manifont-grotesk_book-dot.sfdir
StartChar: exclam
Encoding: 1 33 131
Width: 239
Flags: HMW
HStem: 0 100<74 165 74 165> 700 20G<70 169 169 169>
VStem: 81 77
LayerCount: 3
Back
SplineSet
143.392578125 -17.3984375 m 1
 97.162109375 -17.6474609375 l 1
 64.3095703125 18.09765625 l 1
 64.08203125 68.9013671875 l 1
 96.611328125 105.001953125 l 1
 142.841796875 105.250976562 l 1
 175.694335938 69.505859375 l 1
 175.921875 18.7021484375 l 1
 143.392578125 -17.3984375 l 1
91.880859375 174.384765625 m 1
 69.4287109375 727.202148438 l 1
 170.380859375 727.202148438 l 1
 148.94921875 174.384765625 l 1
 91.880859375 174.384765625 l 1
 91.880859375 174.384765625 l 1
152.422851562 -14.400390625 m 0
 152.422851562 -21.7509765625 146.463867188 -27.708984375 139.11328125 -27.708984375 c 0
 131.763671875 -27.708984375 125.8046875 -21.7509765625 125.8046875 -14.400390625 c 0
 125.8046875 -7.0498046875 131.763671875 -1.091796875 139.11328125 -1.091796875 c 0
 146.463867188 -1.091796875 152.422851562 -7.0498046875 152.422851562 -14.400390625 c 0
113.897460938 -14.6083984375 m 0
 113.897460938 -21.958984375 107.938476562 -27.9169921875 100.587890625 -27.9169921875 c 0
 93.23828125 -27.9169921875 87.279296875 -21.958984375 87.279296875 -14.6083984375 c 0
 87.279296875 -7.2578125 93.23828125 -1.2998046875 100.587890625 -1.2998046875 c 0
 107.938476562 -1.2998046875 113.897460938 -7.2578125 113.897460938 -14.6083984375 c 0
86.5205078125 15.1796875 m 0
 86.5205078125 7.8291015625 80.5615234375 1.87109375 73.2109375 1.87109375 c 0
 65.861328125 1.87109375 59.90234375 7.8291015625 59.90234375 15.1796875 c 0
 59.90234375 22.5302734375 65.861328125 28.48828125 73.2109375 28.48828125 c 0
 80.5615234375 28.48828125 86.5205078125 22.5302734375 86.5205078125 15.1796875 c 0
86.330078125 57.515625 m 0
 86.330078125 50.1650390625 80.37109375 44.20703125 73.021484375 44.20703125 c 0
 65.671875 44.20703125 59.712890625 50.1650390625 59.712890625 57.515625 c 0
 59.712890625 64.8662109375 65.671875 70.82421875 73.021484375 70.82421875 c 0
 80.37109375 70.82421875 86.330078125 64.8662109375 86.330078125 57.515625 c 0
113.4375 87.599609375 m 0
 113.4375 80.2490234375 107.478515625 74.291015625 100.12890625 74.291015625 c 0
 92.779296875 74.291015625 86.8203125 80.2490234375 86.8203125 87.599609375 c 0
 86.8203125 94.9501953125 92.779296875 100.908203125 100.12890625 100.908203125 c 0
 107.478515625 100.908203125 113.4375 94.9501953125 113.4375 87.599609375 c 0
151.963867188 87.8076171875 m 0
 151.963867188 80.45703125 146.004882812 74.4990234375 138.654296875 74.4990234375 c 0
 131.3046875 74.4990234375 125.345703125 80.45703125 125.345703125 87.8076171875 c 0
 125.345703125 95.158203125 131.3046875 101.116210938 138.654296875 101.116210938 c 0
 146.004882812 101.116210938 151.963867188 95.158203125 151.963867188 87.8076171875 c 0
179.340820312 58.01953125 m 0
 179.340820312 50.6689453125 173.381835938 44.7109375 166.03125 44.7109375 c 0
 158.681640625 44.7109375 152.72265625 50.6689453125 152.72265625 58.01953125 c 0
 152.72265625 65.3701171875 158.681640625 71.328125 166.03125 71.328125 c 0
 173.381835938 71.328125 179.340820312 65.3701171875 179.340820312 58.01953125 c 0
179.530273438 15.68359375 m 0
 179.530273438 8.3330078125 173.571289062 2.375 166.220703125 2.375 c 0
 158.87109375 2.375 152.912109375 8.3330078125 152.912109375 15.68359375 c 0
 152.912109375 23.0341796875 158.87109375 28.9921875 166.220703125 28.9921875 c 0
 173.571289062 28.9921875 179.530273438 23.0341796875 179.530273438 15.68359375 c 0
161.877929688 167.182617188 m 0
 161.877929688 159.833007812 155.918945312 153.874023438 148.568359375 153.874023438 c 0
 141.21875 153.874023438 135.259765625 159.833007812 135.259765625 167.182617188 c 0
 135.259765625 174.533203125 141.21875 180.491210938 148.568359375 180.491210938 c 0
 155.918945312 180.491210938 161.877929688 174.533203125 161.877929688 167.182617188 c 0
104.809570312 167.182617188 m 0
 104.809570312 159.833007812 98.8505859375 153.874023438 91.5 153.874023438 c 0
 84.150390625 153.874023438 78.19140625 159.833007812 78.19140625 167.182617188 c 0
 78.19140625 174.533203125 84.150390625 180.491210938 91.5 180.491210938 c 0
 98.8505859375 180.491210938 104.809570312 174.533203125 104.809570312 167.182617188 c 0
82.357421875 720 m 0
 82.357421875 712.649414062 76.3984375 706.69140625 69.0478515625 706.69140625 c 0
 61.6982421875 706.69140625 55.7392578125 712.649414062 55.7392578125 720 c 0
 55.7392578125 727.350585938 61.6982421875 733.30859375 69.0478515625 733.30859375 c 0
 76.3984375 733.30859375 82.357421875 727.350585938 82.357421875 720 c 0
183.309570312 720 m 0
 183.309570312 712.649414062 177.350585938 706.69140625 170 706.69140625 c 0
 162.650390625 706.69140625 156.69140625 712.649414062 156.69140625 720 c 0
 156.69140625 727.350585938 162.650390625 733.30859375 170 733.30859375 c 0
 177.350585938 733.30859375 183.309570312 727.350585938 183.309570312 720 c 0
EndSplineSet
Fore
SplineSet
156.763671875 -17.44140625 m 4
 156.763671875 -24.7919921875 150.8046875 -30.75 143.454101562 -30.75 c 4
 136.104492188 -30.75 130.145507812 -24.7919921875 130.145507812 -17.44140625 c 4
 130.145507812 -10.0908203125 136.104492188 -4.1328125 143.454101562 -4.1328125 c 4
 150.8046875 -4.1328125 156.763671875 -10.0908203125 156.763671875 -17.44140625 c 4
110.368164062 -17.5 m 4
 110.368164062 -24.8505859375 104.409179688 -30.80859375 97.05859375 -30.80859375 c 4
 89.708984375 -30.80859375 83.75 -24.8505859375 83.75 -17.5 c 4
 83.75 -10.1494140625 89.708984375 -4.19140625 97.05859375 -4.19140625 c 4
 104.409179688 -4.19140625 110.368164062 -10.1494140625 110.368164062 -17.5 c 4
77.5595703125 17.94140625 m 4
 77.5595703125 10.5908203125 71.6005859375 4.6328125 64.25 4.6328125 c 4
 56.900390625 4.6328125 50.94140625 10.5908203125 50.94140625 17.94140625 c 4
 50.94140625 25.2919921875 56.900390625 31.25 64.25 31.25 c 4
 71.6005859375 31.25 77.5595703125 25.2919921875 77.5595703125 17.94140625 c 4
77.6171875 68.75 m 4
 77.6171875 61.3994140625 71.658203125 55.44140625 64.30859375 55.44140625 c 4
 56.958984375 55.44140625 51 61.3994140625 51 68.75 c 4
 51 76.1005859375 56.958984375 82.05859375 64.30859375 82.05859375 c 4
 71.658203125 82.05859375 77.6171875 76.1005859375 77.6171875 68.75 c 4
110.30859375 105.19140625 m 4
 110.30859375 97.8408203125 104.349609375 91.8828125 97 91.8828125 c 4
 89.650390625 91.8828125 83.69140625 97.8408203125 83.69140625 105.19140625 c 4
 83.69140625 112.541992188 89.650390625 118.5 97 118.5 c 4
 104.349609375 118.5 110.30859375 112.541992188 110.30859375 105.19140625 c 4
156.868164062 105.25 m 4
 156.868164062 97.8994140625 150.909179688 91.94140625 143.55859375 91.94140625 c 4
 136.208984375 91.94140625 130.25 97.8994140625 130.25 105.25 c 4
 130.25 112.600585938 136.208984375 118.55859375 143.55859375 118.55859375 c 4
 150.909179688 118.55859375 156.868164062 112.600585938 156.868164062 105.25 c 4
189.127929688 68.80859375 m 4
 189.127929688 61.4580078125 183.168945312 55.5 175.818359375 55.5 c 4
 168.46875 55.5 162.509765625 61.4580078125 162.509765625 68.80859375 c 4
 162.509765625 76.1591796875 168.46875 82.1171875 175.818359375 82.1171875 c 4
 183.168945312 82.1171875 189.127929688 76.1591796875 189.127929688 68.80859375 c 4
189.25 18 m 4
 189.25 10.6494140625 183.291015625 4.69140625 175.940429688 4.69140625 c 4
 168.590820312 4.69140625 162.631835938 10.6494140625 162.631835938 18 c 4
 162.631835938 25.3505859375 168.590820312 31.30859375 175.940429688 31.30859375 c 4
 183.291015625 31.30859375 189.25 25.3505859375 189.25 18 c 4
161.877929688 174.432617188 m 0
 161.877929688 167.083007812 155.918945312 161.124023438 148.568359375 161.124023438 c 0
 141.21875 161.124023438 135.259765625 167.083007812 135.259765625 174.432617188 c 0
 135.259765625 181.783203125 141.21875 187.741210938 148.568359375 187.741210938 c 0
 155.918945312 187.741210938 161.877929688 181.783203125 161.877929688 174.432617188 c 0
104.809570312 174.432617188 m 0
 104.809570312 167.083007812 98.8505859375 161.124023438 91.5 161.124023438 c 0
 84.150390625 161.124023438 78.19140625 167.083007812 78.19140625 174.432617188 c 0
 78.19140625 181.783203125 84.150390625 187.741210938 91.5 187.741210938 c 0
 98.8505859375 187.741210938 104.809570312 181.783203125 104.809570312 174.432617188 c 0
82.357421875 727 m 0
 82.357421875 719.649414062 76.3984375 713.69140625 69.0478515625 713.69140625 c 0
 61.6982421875 713.69140625 55.7392578125 719.649414062 55.7392578125 727 c 0
 55.7392578125 734.350585938 61.6982421875 740.30859375 69.0478515625 740.30859375 c 0
 76.3984375 740.30859375 82.357421875 734.350585938 82.357421875 727 c 0
183.309570312 727 m 0
 183.309570312 719.649414062 177.350585938 713.69140625 170 713.69140625 c 0
 162.650390625 713.69140625 156.69140625 719.649414062 156.69140625 727 c 0
 156.69140625 734.350585938 162.650390625 740.30859375 170 740.30859375 c 0
 177.350585938 740.30859375 183.309570312 734.350585938 183.309570312 727 c 0
EndSplineSet
Validated: 1
Layer: 2
EndChar
StartChar: quotedbl
Encoding: 2 34 145
Width: 399
Flags: HMW
HStem: 482 238<89 145 89 89 249 249 249 305>
LayerCount: 3
Back
SplineSet
146.969726562 479.620117188 m 1
 89.849609375 479.620117188 l 1
 67.41015625 722.379882812 l 1
 168.389648438 722.379882812 l 1
 146.969726562 479.620117188 l 1
310.169921875 479.620117188 m 1
 253.049804688 479.620117188 l 1
 230.610351562 722.379882812 l 1
 331.58984375 722.379882812 l 1
 310.169921875 479.620117188 l 1
82.357421875 720 m 0
 82.357421875 712.649414062 76.3984375 706.69140625 69.0478515625 706.69140625 c 0
 61.6982421875 706.69140625 55.7392578125 712.649414062 55.7392578125 720 c 0
 55.7392578125 727.350585938 61.6982421875 733.30859375 69.0478515625 733.30859375 c 0
 76.3984375 733.30859375 82.357421875 727.350585938 82.357421875 720 c 0
183.309570312 720 m 0
 183.309570312 712.649414062 177.350585938 706.69140625 170 706.69140625 c 0
 162.650390625 706.69140625 156.69140625 712.649414062 156.69140625 720 c 0
 156.69140625 727.350585938 162.650390625 733.30859375 170 733.30859375 c 0
 177.350585938 733.30859375 183.309570312 727.350585938 183.309570312 720 c 0
104.734375 477.912109375 m 0
 104.734375 470.561523438 98.775390625 464.602539062 91.42578125 464.602539062 c 0
 84.0751953125 464.602539062 78.1162109375 470.561523438 78.1162109375 477.912109375 c 0
 78.1162109375 485.26171875 84.0751953125 491.220703125 91.42578125 491.220703125 c 0
 98.775390625 491.220703125 104.734375 485.26171875 104.734375 477.912109375 c 0
161.854492188 477.912109375 m 0
 161.854492188 470.561523438 155.895507812 464.602539062 148.545898438 464.602539062 c 0
 141.1953125 464.602539062 135.236328125 470.561523438 135.236328125 477.912109375 c 0
 135.236328125 485.26171875 141.1953125 491.220703125 148.545898438 491.220703125 c 0
 155.895507812 491.220703125 161.854492188 485.26171875 161.854492188 477.912109375 c 0
245.557617188 720 m 0
 245.557617188 712.649414062 239.598632812 706.69140625 232.248046875 706.69140625 c 0
 224.8984375 706.69140625 218.939453125 712.649414062 218.939453125 720 c 0
 218.939453125 727.350585938 224.8984375 733.30859375 232.248046875 733.30859375 c 0
 239.598632812 733.30859375 245.557617188 727.350585938 245.557617188 720 c 0
346.508789062 720 m 0
 346.508789062 712.649414062 340.549804688 706.69140625 333.200195312 706.69140625 c 0
 325.850585938 706.69140625 319.891601562 712.649414062 319.891601562 720 c 0
 319.891601562 727.350585938 325.850585938 733.30859375 333.200195312 733.30859375 c 0
 340.549804688 733.30859375 346.508789062 727.350585938 346.508789062 720 c 0
267.934570312 477.912109375 m 0
 267.934570312 470.561523438 261.975585938 464.602539062 254.625976562 464.602539062 c 0
 247.275390625 464.602539062 241.31640625 470.561523438 241.31640625 477.912109375 c 0
 241.31640625 485.26171875 247.275390625 491.220703125 254.625976562 491.220703125 c 0
 261.975585938 491.220703125 267.934570312 485.26171875 267.934570312 477.912109375 c 0
325.0546875 477.912109375 m 0
 325.0546875 470.561523438 319.095703125 464.602539062 311.74609375 464.602539062 c 0
 304.395507812 464.602539062 298.436523438 470.561523438 298.436523438 477.912109375 c 0
 298.436523438 485.26171875 304.395507812 491.220703125 311.74609375 491.220703125 c 0
 319.095703125 491.220703125 325.0546875 485.26171875 325.0546875 477.912109375 c 0
EndSplineSet
Fore
SplineSet
243.797851562 722.5 m 0
 243.797851562 715.149414062 237.838867188 709.19140625 230.48828125 709.19140625 c 0
 223.138671875 709.19140625 217.1796875 715.149414062 217.1796875 722.5 c 0
 217.1796875 729.850585938 223.138671875 735.80859375 230.48828125 735.80859375 c 0
 237.838867188 735.80859375 243.797851562 729.850585938 243.797851562 722.5 c 0
345 722.5 m 0
 345 715.149414062 339.041015625 709.19140625 331.690429688 709.19140625 c 0
 324.340820312 709.19140625 318.381835938 715.149414062 318.381835938 722.5 c 0
 318.381835938 729.850585938 324.340820312 735.80859375 331.690429688 735.80859375 c 0
 339.041015625 735.80859375 345 729.850585938 345 722.5 c 0
266.424804688 479.662109375 m 0
 266.424804688 472.311523438 260.465820312 466.352539062 253.116210938 466.352539062 c 0
 245.765625 466.352539062 239.806640625 472.311523438 239.806640625 479.662109375 c 0
 239.806640625 487.01171875 245.765625 492.970703125 253.116210938 492.970703125 c 0
 260.465820312 492.970703125 266.424804688 487.01171875 266.424804688 479.662109375 c 0
323.544921875 479.662109375 m 0
 323.544921875 472.311523438 317.5859375 466.352539062 310.236328125 466.352539062 c 0
 302.885742188 466.352539062 296.926757812 472.311523438 296.926757812 479.662109375 c 0
 296.926757812 487.01171875 302.885742188 492.970703125 310.236328125 492.970703125 c 0
 317.5859375 492.970703125 323.544921875 487.01171875 323.544921875 479.662109375 c 0
80.607421875 722.5 m 0
 80.607421875 715.149414062 74.6484375 709.19140625 67.2978515625 709.19140625 c 0
 59.9482421875 709.19140625 53.9892578125 715.149414062 53.9892578125 722.5 c 0
 53.9892578125 729.850585938 59.9482421875 735.80859375 67.2978515625 735.80859375 c 0
 74.6484375 735.80859375 80.607421875 729.850585938 80.607421875 722.5 c 0
181.809570312 722.5 m 0
 181.809570312 715.149414062 175.850585938 709.19140625 168.5 709.19140625 c 0
 161.150390625 709.19140625 155.19140625 715.149414062 155.19140625 722.5 c 0
 155.19140625 729.850585938 161.150390625 735.80859375 168.5 735.80859375 c 0
 175.850585938 735.80859375 181.809570312 729.850585938 181.809570312 722.5 c 0
103.234375 479.662109375 m 0
 103.234375 472.311523438 97.275390625 466.352539062 89.92578125 466.352539062 c 0
 82.5751953125 466.352539062 76.6162109375 472.311523438 76.6162109375 479.662109375 c 0
 76.6162109375 487.01171875 82.5751953125 492.970703125 89.92578125 492.970703125 c 0
 97.275390625 492.970703125 103.234375 487.01171875 103.234375 479.662109375 c 0
160.354492188 479.662109375 m 0
 160.354492188 472.311523438 154.395507812 466.352539062 147.045898438 466.352539062 c 0
 139.6953125 466.352539062 133.736328125 472.311523438 133.736328125 479.662109375 c 0
 133.736328125 487.01171875 139.6953125 492.970703125 147.045898438 492.970703125 c 0
 154.395507812 492.970703125 160.354492188 487.01171875 160.354492188 479.662109375 c 0
EndSplineSet
Validated: 1
Layer: 2
EndChar
StartChar: numbersign
Encoding: 3 35 160
Width: 556
Flags: HMW
HStem: 0 21G<40 129 40 40 220 309 220 220> 205 75<20 98 0 120 209 278 20 188 389 472> 445 75<84 167 64 189 278 347 84 257 458 536> 700 20G<246 336 336 336 426 516 516 516>
LayerCount: 3
Back
SplineSet
307 -8 m 1
 225 15 l 1
 278 205 l 1
 188 205 l 1
 127 -8 l 1
 44 15 l 1
 98 205 l 1
 0 205 l 1
 0 280 l 1
 120 280 l 1
 167 445 l 1
 64 445 l 1
 64 520 l 1
 189 520 l 1
 249 728.090820312 l 1
 332 704.090820312 l 1
 278 520 l 1
 368 520 l 1
 429 728.090820312 l 1
 512 704 l 1
 458 520 l 1
 556 520 l 1
 556 445 l 1
 437 445 l 1
 389 280 l 1
 492 280 l 1
 492 205 l 1
 368 205 l 1
 307 -8 l 1
257 445 m 1
 209 280 l 1
 300 280 l 1
 347 445 l 1
 257 445 l 1
77.3095703125 520 m 0
 77.3095703125 512.649414062 71.3505859375 506.69140625 64 506.69140625 c 0
 56.650390625 506.69140625 50.69140625 512.649414062 50.69140625 520 c 0
 50.69140625 527.349609375 56.650390625 533.30859375 64 533.30859375 c 0
 71.3505859375 533.30859375 77.3095703125 527.349609375 77.3095703125 520 c 0
77.3095703125 445 m 0
 77.3095703125 437.649414062 71.3505859375 431.69140625 64 431.69140625 c 0
 56.650390625 431.69140625 50.69140625 437.649414062 50.69140625 445 c 0
 50.69140625 452.350585938 56.650390625 458.30859375 64 458.30859375 c 0
 71.3505859375 458.30859375 77.3095703125 452.350585938 77.3095703125 445 c 0
569.309570312 520 m 0
 569.309570312 512.649414062 563.350585938 506.690429688 556 506.690429688 c 0
 548.650390625 506.690429688 542.69140625 512.649414062 542.69140625 520 c 0
 542.69140625 527.349609375 548.650390625 533.30859375 556 533.30859375 c 0
 563.350585938 533.30859375 569.309570312 527.349609375 569.309570312 520 c 0
569.309570312 445 m 0
 569.309570312 437.649414062 563.350585938 431.69140625 556 431.69140625 c 0
 548.650390625 431.69140625 542.69140625 437.649414062 542.69140625 445 c 0
 542.69140625 452.349609375 548.650390625 458.30859375 556 458.30859375 c 0
 563.350585938 458.30859375 569.309570312 452.349609375 569.309570312 445 c 0
505.309570312 280 m 0
 505.309570312 272.649414062 499.350585938 266.690429688 492 266.690429688 c 0
 484.650390625 266.690429688 478.69140625 272.649414062 478.69140625 280 c 0
 478.69140625 287.349609375 484.650390625 293.30859375 492 293.30859375 c 0
 499.350585938 293.30859375 505.309570312 287.349609375 505.309570312 280 c 0
505.309570312 205 m 0
 505.309570312 197.649414062 499.350585938 191.69140625 492 191.69140625 c 0
 484.650390625 191.69140625 478.69140625 197.649414062 478.69140625 205 c 0
 478.69140625 212.349609375 484.650390625 218.30859375 492 218.30859375 c 0
 499.350585938 218.30859375 505.309570312 212.349609375 505.309570312 205 c 0
13.3095703125 280 m 0
 13.3095703125 272.649414062 7.3505859375 266.690429688 0 266.690429688 c 0
 -7.349609375 266.690429688 -13.30859375 272.649414062 -13.30859375 280 c 0
 -13.30859375 287.349609375 -7.349609375 293.30859375 0 293.30859375 c 0
 7.3505859375 293.30859375 13.3095703125 287.349609375 13.3095703125 280 c 0
13.3095703125 205 m 0
 13.3095703125 197.649414062 7.3505859375 191.69140625 0 191.69140625 c 0
 -7.349609375 191.69140625 -13.30859375 197.649414062 -13.30859375 205 c 0
 -13.30859375 212.349609375 -7.349609375 218.30859375 0 218.30859375 c 0
 7.3505859375 218.30859375 13.3095703125 212.349609375 13.3095703125 205 c 0
133.309570312 280 m 0
 133.309570312 272.649414062 127.350585938 266.69140625 120 266.69140625 c 0
 112.650390625 266.69140625 106.69140625 272.649414062 106.69140625 280 c 0
 106.69140625 287.350585938 112.650390625 293.30859375 120 293.30859375 c 0
 127.350585938 293.30859375 133.309570312 287.350585938 133.309570312 280 c 0
222.309570312 280 m 0
 222.309570312 272.649414062 216.350585938 266.69140625 209 266.69140625 c 0
 201.650390625 266.69140625 195.69140625 272.649414062 195.69140625 280 c 0
 195.69140625 287.349609375 201.650390625 293.30859375 209 293.30859375 c 0
 216.350585938 293.30859375 222.309570312 287.349609375 222.309570312 280 c 0
313.309570312 280 m 0
 313.309570312 272.649414062 307.350585938 266.69140625 300 266.69140625 c 0
 292.650390625 266.69140625 286.69140625 272.649414062 286.69140625 280 c 0
 286.69140625 287.349609375 292.650390625 293.30859375 300 293.30859375 c 0
 307.350585938 293.30859375 313.309570312 287.349609375 313.309570312 280 c 0
402.309570312 280 m 0
 402.309570312 272.649414062 396.350585938 266.69140625 389 266.69140625 c 0
 381.650390625 266.69140625 375.69140625 272.649414062 375.69140625 280 c 0
 375.69140625 287.349609375 381.650390625 293.30859375 389 293.30859375 c 0
 396.350585938 293.30859375 402.309570312 287.349609375 402.309570312 280 c 0
381.309570312 205 m 0
 381.309570312 197.649414062 375.350585938 191.69140625 368 191.69140625 c 0
 360.650390625 191.69140625 354.69140625 197.649414062 354.69140625 205 c 0
 354.69140625 212.350585938 360.650390625 218.30859375 368 218.30859375 c 0
 375.350585938 218.30859375 381.309570312 212.350585938 381.309570312 205 c 0
291.309570312 205 m 0
 291.309570312 197.649414062 285.350585938 191.69140625 278 191.69140625 c 0
 270.650390625 191.69140625 264.69140625 197.649414062 264.69140625 205 c 0
 264.69140625 212.349609375 270.650390625 218.30859375 278 218.30859375 c 0
 285.350585938 218.30859375 291.309570312 212.349609375 291.309570312 205 c 0
201.309570312 205 m 0
 201.309570312 197.649414062 195.350585938 191.69140625 188 191.69140625 c 0
 180.650390625 191.69140625 174.69140625 197.649414062 174.69140625 205 c 0
 174.69140625 212.350585938 180.650390625 218.30859375 188 218.30859375 c 0
 195.350585938 218.30859375 201.309570312 212.350585938 201.309570312 205 c 0
111.309570312 205 m 0
 111.309570312 197.649414062 105.350585938 191.69140625 98 191.69140625 c 0
 90.650390625 191.69140625 84.69140625 197.649414062 84.69140625 205 c 0
 84.69140625 212.349609375 90.650390625 218.30859375 98 218.30859375 c 0
 105.350585938 218.30859375 111.309570312 212.349609375 111.309570312 205 c 0
202.309570312 520 m 0
 202.309570312 512.649414062 196.350585938 506.69140625 189 506.69140625 c 0
 181.650390625 506.69140625 175.69140625 512.649414062 175.69140625 520 c 0
 175.69140625 527.350585938 181.650390625 533.30859375 189 533.30859375 c 0
 196.350585938 533.30859375 202.309570312 527.350585938 202.309570312 520 c 0
291.309570312 520 m 0
 291.309570312 512.649414062 285.350585938 506.69140625 278 506.69140625 c 0
 270.650390625 506.69140625 264.69140625 512.649414062 264.69140625 520 c 0
 264.69140625 527.349609375 270.650390625 533.30859375 278 533.30859375 c 0
 285.350585938 533.30859375 291.309570312 527.349609375 291.309570312 520 c 0
381.309570312 520 m 0
 381.309570312 512.649414062 375.350585938 506.69140625 368 506.69140625 c 0
 360.650390625 506.69140625 354.69140625 512.649414062 354.69140625 520 c 0
 354.69140625 527.349609375 360.650390625 533.30859375 368 533.30859375 c 0
 375.350585938 533.30859375 381.309570312 527.349609375 381.309570312 520 c 0
471.309570312 520 m 0
 471.309570312 512.649414062 465.350585938 506.69140625 458 506.69140625 c 0
 450.650390625 506.69140625 444.69140625 512.649414062 444.69140625 520 c 0
 444.69140625 527.349609375 450.650390625 533.30859375 458 533.30859375 c 0
 465.350585938 533.30859375 471.309570312 527.349609375 471.309570312 520 c 0
450.041992188 445 m 0
 450.041992188 437.649414062 444.083007812 431.69140625 436.732421875 431.69140625 c 0
 429.3828125 431.69140625 423.423828125 437.649414062 423.423828125 445 c 0
 423.423828125 452.349609375 429.3828125 458.30859375 436.732421875 458.30859375 c 0
 444.083007812 458.30859375 450.041992188 452.349609375 450.041992188 445 c 0
360.309570312 445 m 0
 360.309570312 437.649414062 354.350585938 431.69140625 347 431.69140625 c 0
 339.650390625 431.69140625 333.69140625 437.649414062 333.69140625 445 c 0
 333.69140625 452.350585938 339.650390625 458.30859375 347 458.30859375 c 0
 354.350585938 458.30859375 360.309570312 452.350585938 360.309570312 445 c 0
270.309570312 445 m 0
 270.309570312 437.649414062 264.350585938 431.69140625 257 431.69140625 c 0
 249.650390625 431.69140625 243.69140625 437.649414062 243.69140625 445 c 0
 243.69140625 452.349609375 249.650390625 458.30859375 257 458.30859375 c 0
 264.350585938 458.30859375 270.309570312 452.349609375 270.309570312 445 c 0
180.309570312 445 m 0
 180.309570312 437.649414062 174.350585938 431.69140625 167 431.69140625 c 0
 159.650390625 431.69140625 153.69140625 437.649414062 153.69140625 445 c 0
 153.69140625 452.350585938 159.650390625 458.30859375 167 458.30859375 c 0
 174.350585938 458.30859375 180.309570312 452.350585938 180.309570312 445 c 0
442.309570312 728.090820312 m 0
 442.309570312 720.740234375 436.350585938 714.782226562 429 714.782226562 c 0
 421.650390625 714.782226562 415.69140625 720.740234375 415.69140625 728.090820312 c 0
 415.69140625 735.44140625 421.650390625 741.399414062 429 741.399414062 c 0
 436.350585938 741.399414062 442.309570312 735.44140625 442.309570312 728.090820312 c 0
525.309570312 704 m 0
 525.309570312 696.649414062 519.350585938 690.69140625 512 690.69140625 c 0
 504.650390625 690.69140625 498.69140625 696.649414062 498.69140625 704 c 0
 498.69140625 711.350585938 504.650390625 717.30859375 512 717.30859375 c 0
 519.350585938 717.30859375 525.309570312 711.350585938 525.309570312 704 c 0
262.309570312 728.090820312 m 0
 262.309570312 720.740234375 256.350585938 714.782226562 249 714.782226562 c 0
 241.650390625 714.782226562 235.69140625 720.740234375 235.69140625 728.090820312 c 0
 235.69140625 735.44140625 241.650390625 741.399414062 249 741.399414062 c 0
 256.350585938 741.399414062 262.309570312 735.44140625 262.309570312 728.090820312 c 0
345.309570312 704.090820312 m 0
 345.309570312 696.740234375 339.350585938 690.782226562 332 690.782226562 c 0
 324.650390625 690.782226562 318.69140625 696.740234375 318.69140625 704.090820312 c 0
 318.69140625 711.44140625 324.650390625 717.399414062 332 717.399414062 c 0
 339.350585938 717.399414062 345.309570312 711.44140625 345.309570312 704.090820312 c 0
113.69140625 -8 m 0
 113.69140625 -0.650390625 119.650390625 5.30859375 127 5.30859375 c 0
 134.350585938 5.30859375 140.309570312 -0.650390625 140.309570312 -8 c 0
 140.309570312 -15.3505859375 134.350585938 -21.30859375 127 -21.30859375 c 0
 119.650390625 -21.30859375 113.69140625 -15.3505859375 113.69140625 -8 c 0
30.69140625 15 m 0
 30.69140625 22.349609375 36.650390625 28.30859375 44 28.30859375 c 0
 51.3505859375 28.30859375 57.3095703125 22.349609375 57.3095703125 15 c 0
 57.3095703125 7.6494140625 51.3505859375 1.69140625 44 1.69140625 c 0
 36.650390625 1.69140625 30.69140625 7.6494140625 30.69140625 15 c 0
293.69140625 -8 m 0
 293.69140625 -0.650390625 299.650390625 5.30859375 307 5.30859375 c 0
 314.350585938 5.30859375 320.309570312 -0.650390625 320.309570312 -8 c 0
 320.309570312 -15.3505859375 314.350585938 -21.30859375 307 -21.30859375 c 0
 299.650390625 -21.30859375 293.69140625 -15.3505859375 293.69140625 -8 c 0
211.69140625 15 m 0
 211.69140625 22.349609375 217.650390625 28.30859375 225 28.30859375 c 0
 232.350585938 28.30859375 238.309570312 22.349609375 238.309570312 15 c 0
 238.309570312 7.6494140625 232.350585938 1.69140625 225 1.69140625 c 0
 217.650390625 1.69140625 211.69140625 7.6494140625 211.69140625 15 c 0
EndSplineSet
Fore
SplineSet
77.3095703125 520 m 0
 77.3095703125 512.649414062 71.3505859375 506.69140625 64 506.69140625 c 0
 56.650390625 506.69140625 50.69140625 512.649414062 50.69140625 520 c 0
 50.69140625 527.349609375 56.650390625 533.30859375 64 533.30859375 c 0
 71.3505859375 533.30859375 77.3095703125 527.349609375 77.3095703125 520 c 0
77.3095703125 445 m 0
 77.3095703125 437.649414062 71.3505859375 431.69140625 64 431.69140625 c 0
 56.650390625 431.69140625 50.69140625 437.649414062 50.69140625 445 c 0
 50.69140625 452.350585938 56.650390625 458.30859375 64 458.30859375 c 0
 71.3505859375 458.30859375 77.3095703125 452.350585938 77.3095703125 445 c 0
569.309570312 520 m 0
 569.309570312 512.649414062 563.350585938 506.690429688 556 506.690429688 c 0
 548.650390625 506.690429688 542.69140625 512.649414062 542.69140625 520 c 0
 542.69140625 527.349609375 548.650390625 533.30859375 556 533.30859375 c 0
 563.350585938 533.30859375 569.309570312 527.349609375 569.309570312 520 c 0
569.309570312 445 m 0
 569.309570312 437.649414062 563.350585938 431.69140625 556 431.69140625 c 0
 548.650390625 431.69140625 542.69140625 437.649414062 542.69140625 445 c 0
 542.69140625 452.349609375 548.650390625 458.30859375 556 458.30859375 c 0
 563.350585938 458.30859375 569.309570312 452.349609375 569.309570312 445 c 0
505.309570312 280 m 0
 505.309570312 272.649414062 499.350585938 266.690429688 492 266.690429688 c 0
 484.650390625 266.690429688 478.69140625 272.649414062 478.69140625 280 c 0
 478.69140625 287.349609375 484.650390625 293.30859375 492 293.30859375 c 0
 499.350585938 293.30859375 505.309570312 287.349609375 505.309570312 280 c 0
505.309570312 205 m 0
 505.309570312 197.649414062 499.350585938 191.69140625 492 191.69140625 c 0
 484.650390625 191.69140625 478.69140625 197.649414062 478.69140625 205 c 0
 478.69140625 212.349609375 484.650390625 218.30859375 492 218.30859375 c 0
 499.350585938 218.30859375 505.309570312 212.349609375 505.309570312 205 c 0
13.3095703125 280 m 0
 13.3095703125 272.649414062 7.3505859375 266.690429688 0 266.690429688 c 0
 -7.349609375 266.690429688 -13.30859375 272.649414062 -13.30859375 280 c 0
 -13.30859375 287.349609375 -7.349609375 293.30859375 0 293.30859375 c 0
 7.3505859375 293.30859375 13.3095703125 287.349609375 13.3095703125 280 c 0
13.3095703125 205 m 0
 13.3095703125 197.649414062 7.3505859375 191.69140625 0 191.69140625 c 0
 -7.349609375 191.69140625 -13.30859375 197.649414062 -13.30859375 205 c 0
 -13.30859375 212.349609375 -7.349609375 218.30859375 0 218.30859375 c 0
 7.3505859375 218.30859375 13.3095703125 212.349609375 13.3095703125 205 c 0
133.309570312 280 m 0
 133.309570312 272.649414062 127.350585938 266.69140625 120 266.69140625 c 0
 112.650390625 266.69140625 106.69140625 272.649414062 106.69140625 280 c 0
 106.69140625 287.350585938 112.650390625 293.30859375 120 293.30859375 c 0
 127.350585938 293.30859375 133.309570312 287.350585938 133.309570312 280 c 0
222.309570312 280 m 0
 222.309570312 272.649414062 216.350585938 266.69140625 209 266.69140625 c 0
 201.650390625 266.69140625 195.69140625 272.649414062 195.69140625 280 c 0
 195.69140625 287.349609375 201.650390625 293.30859375 209 293.30859375 c 0
 216.350585938 293.30859375 222.309570312 287.349609375 222.309570312 280 c 0
313.309570312 280 m 0
 313.309570312 272.649414062 307.350585938 266.69140625 300 266.69140625 c 0
 292.650390625 266.69140625 286.69140625 272.649414062 286.69140625 280 c 0
 286.69140625 287.349609375 292.650390625 293.30859375 300 293.30859375 c 0
 307.350585938 293.30859375 313.309570312 287.349609375 313.309570312 280 c 0
402.309570312 280 m 0
 402.309570312 272.649414062 396.350585938 266.69140625 389 266.69140625 c 0
 381.650390625 266.69140625 375.69140625 272.649414062 375.69140625 280 c 0
 375.69140625 287.349609375 381.650390625 293.30859375 389 293.30859375 c 0
 396.350585938 293.30859375 402.309570312 287.349609375 402.309570312 280 c 0
381.309570312 205 m 0
 381.309570312 197.649414062 375.350585938 191.69140625 368 191.69140625 c 0
 360.650390625 191.69140625 354.69140625 197.649414062 354.69140625 205 c 0
 354.69140625 212.350585938 360.650390625 218.30859375 368 218.30859375 c 0
 375.350585938 218.30859375 381.309570312 212.350585938 381.309570312 205 c 0
291.309570312 205 m 0
 291.309570312 197.649414062 285.350585938 191.69140625 278 191.69140625 c 0
 270.650390625 191.69140625 264.69140625 197.649414062 264.69140625 205 c 0
 264.69140625 212.349609375 270.650390625 218.30859375 278 218.30859375 c 0
 285.350585938 218.30859375 291.309570312 212.349609375 291.309570312 205 c 0
201.309570312 205 m 0
 201.309570312 197.649414062 195.350585938 191.69140625 188 191.69140625 c 0
 180.650390625 191.69140625 174.69140625 197.649414062 174.69140625 205 c 0
 174.69140625 212.350585938 180.650390625 218.30859375 188 218.30859375 c 0
 195.350585938 218.30859375 201.309570312 212.350585938 201.309570312 205 c 0
111.309570312 205 m 0
 111.309570312 197.649414062 105.350585938 191.69140625 98 191.69140625 c 0
 90.650390625 191.69140625 84.69140625 197.649414062 84.69140625 205 c 0
 84.69140625 212.349609375 90.650390625 218.30859375 98 218.30859375 c 0
 105.350585938 218.30859375 111.309570312 212.349609375 111.309570312 205 c 0
202.309570312 520 m 0
 202.309570312 512.649414062 196.350585938 506.69140625 189 506.69140625 c 0
 181.650390625 506.69140625 175.69140625 512.649414062 175.69140625 520 c 0
 175.69140625 527.350585938 181.650390625 533.30859375 189 533.30859375 c 0
 196.350585938 533.30859375 202.309570312 527.350585938 202.309570312 520 c 0
291.309570312 520 m 0
 291.309570312 512.649414062 285.350585938 506.69140625 278 506.69140625 c 0
 270.650390625 506.69140625 264.69140625 512.649414062 264.69140625 520 c 0
 264.69140625 527.349609375 270.650390625 533.30859375 278 533.30859375 c 0
 285.350585938 533.30859375 291.309570312 527.349609375 291.309570312 520 c 0
381.309570312 520 m 0
 381.309570312 512.649414062 375.350585938 506.69140625 368 506.69140625 c 0
 360.650390625 506.69140625 354.69140625 512.649414062 354.69140625 520 c 0
 354.69140625 527.349609375 360.650390625 533.30859375 368 533.30859375 c 0
 375.350585938 533.30859375 381.309570312 527.349609375 381.309570312 520 c 0
471.309570312 520 m 0
 471.309570312 512.649414062 465.350585938 506.69140625 458 506.69140625 c 0
 450.650390625 506.69140625 444.69140625 512.649414062 444.69140625 520 c 0
 444.69140625 527.349609375 450.650390625 533.30859375 458 533.30859375 c 0
 465.350585938 533.30859375 471.309570312 527.349609375 471.309570312 520 c 0
450.041992188 445 m 0
 450.041992188 437.649414062 444.083007812 431.69140625 436.732421875 431.69140625 c 0
 429.3828125 431.69140625 423.423828125 437.649414062 423.423828125 445 c 0
 423.423828125 452.349609375 429.3828125 458.30859375 436.732421875 458.30859375 c 0
 444.083007812 458.30859375 450.041992188 452.349609375 450.041992188 445 c 0
360.309570312 445 m 0
 360.309570312 437.649414062 354.350585938 431.69140625 347 431.69140625 c 0
 339.650390625 431.69140625 333.69140625 437.649414062 333.69140625 445 c 0
 333.69140625 452.350585938 339.650390625 458.30859375 347 458.30859375 c 0
 354.350585938 458.30859375 360.309570312 452.350585938 360.309570312 445 c 0
270.309570312 445 m 0
 270.309570312 437.649414062 264.350585938 431.69140625 257 431.69140625 c 0
 249.650390625 431.69140625 243.69140625 437.649414062 243.69140625 445 c 0
 243.69140625 452.349609375 249.650390625 458.30859375 257 458.30859375 c 0
 264.350585938 458.30859375 270.309570312 452.349609375 270.309570312 445 c 0
180.309570312 445 m 0
 180.309570312 437.649414062 174.350585938 431.69140625 167 431.69140625 c 0
 159.650390625 431.69140625 153.69140625 437.649414062 153.69140625 445 c 0
 153.69140625 452.350585938 159.650390625 458.30859375 167 458.30859375 c 0
 174.350585938 458.30859375 180.309570312 452.350585938 180.309570312 445 c 0
442.309570312 728.090820312 m 0
 442.309570312 720.740234375 436.350585938 714.782226562 429 714.782226562 c 0
 421.650390625 714.782226562 415.69140625 720.740234375 415.69140625 728.090820312 c 0
 415.69140625 735.44140625 421.650390625 741.399414062 429 741.399414062 c 0
 436.350585938 741.399414062 442.309570312 735.44140625 442.309570312 728.090820312 c 0
525.309570312 704 m 0
 525.309570312 696.649414062 519.350585938 690.69140625 512 690.69140625 c 0
 504.650390625 690.69140625 498.69140625 696.649414062 498.69140625 704 c 0
 498.69140625 711.350585938 504.650390625 717.30859375 512 717.30859375 c 0
 519.350585938 717.30859375 525.309570312 711.350585938 525.309570312 704 c 0
262.309570312 728.090820312 m 0
 262.309570312 720.740234375 256.350585938 714.782226562 249 714.782226562 c 0
 241.650390625 714.782226562 235.69140625 720.740234375 235.69140625 728.090820312 c 0
 235.69140625 735.44140625 241.650390625 741.399414062 249 741.399414062 c 0
 256.350585938 741.399414062 262.309570312 735.44140625 262.309570312 728.090820312 c 0
345.309570312 704.090820312 m 0
 345.309570312 696.740234375 339.350585938 690.782226562 332 690.782226562 c 0
 324.650390625 690.782226562 318.69140625 696.740234375 318.69140625 704.090820312 c 0
 318.69140625 711.44140625 324.650390625 717.399414062 332 717.399414062 c 0
 339.350585938 717.399414062 345.309570312 711.44140625 345.309570312 704.090820312 c 0
113.69140625 -8 m 0
 113.69140625 -0.650390625 119.650390625 5.30859375 127 5.30859375 c 0
 134.350585938 5.30859375 140.309570312 -0.650390625 140.309570312 -8 c 0
 140.309570312 -15.3505859375 134.350585938 -21.30859375 127 -21.30859375 c 0
 119.650390625 -21.30859375 113.69140625 -15.3505859375 113.69140625 -8 c 0
30.69140625 15 m 0
 30.69140625 22.349609375 36.650390625 28.30859375 44 28.30859375 c 0
 51.3505859375 28.30859375 57.3095703125 22.349609375 57.3095703125 15 c 0
 57.3095703125 7.6494140625 51.3505859375 1.69140625 44 1.69140625 c 0
 36.650390625 1.69140625 30.69140625 7.6494140625 30.69140625 15 c 0
293.69140625 -8 m 0
 293.69140625 -0.650390625 299.650390625 5.30859375 307 5.30859375 c 0
 314.350585938 5.30859375 320.309570312 -0.650390625 320.309570312 -8 c 0
 320.309570312 -15.3505859375 314.350585938 -21.30859375 307 -21.30859375 c 0
 299.650390625 -21.30859375 293.69140625 -15.3505859375 293.69140625 -8 c 0
211.69140625 15 m 0
 211.69140625 22.349609375 217.650390625 28.30859375 225 28.30859375 c 0
 232.350585938 28.30859375 238.309570312 22.349609375 238.309570312 15 c 0
 238.309570312 7.6494140625 232.350585938 1.69140625 225 1.69140625 c 0
 217.650390625 1.69140625 211.69140625 7.6494140625 211.69140625 15 c 0
EndSplineSet
Validated: 1
Layer: 2
EndChar
StartChar: dollar
Encoding: 4 36 167
Width: 556
Flags: HMW
HStem: -100 21G<236 311 236 236> 800 20G<236 311 311 311>
VStem: 40 94 67 92<513 570.5 513 592> 236 75<-100 -14 -100 -11 -100 -11 72 321 435 651 732 820> 418 97<154.5 222>
LayerCount: 3
Back
SplineSet
235.946289062 820 m 1
 310.905273438 820 l 1
 310.905273438 732.033203125 l 1
 438.25 667.25390625 l 1
 486 534 l 1
 397.038085938 506.987304688 l 1
 372.41015625 602.216796875 l 1
 311.072265625 650.986328125 l 1
 311.072265625 412.015625 l 1
 457.666992188 340.015625 l 1
 515.022460938 198.9765625 l 1
 457.604492188 47.1220703125 l 1
 311.073242188 -14.0634765625 l 1
 311.073242188 -100.029296875 l 1
 236.11328125 -100.029296875 l 1
 236.11328125 -13.0615234375 l 1
 93.0927734375 64.3154296875 l 1
 46 203 l 1
 134.053710938 227.993164062 l 1
 164.821289062 122.6328125 l 1
 236.112304688 66.9873046875 l 1
 236.112304688 339.974609375 l 1
 96.177734375 424.231445312 l 1
 67.1826171875 531.000976562 l 1
 118.315429688 672.356445312 l 1
 236.112304688 732.033203125 l 1
 235.946289062 820 l 1
235.946289062 435.029296875 m 1
 235.946289062 650.986328125 l 1
 180.122070312 614.631835938 l 1
 158.818359375 537.00390625 l 1
 178.30859375 475.543945312 l 1
 235.946289062 435.029296875 l 1
334.001953125 313.041992188 m 1
 322.130859375 317.044921875 l 1
 311.072265625 321.046875 l 1
 311.072265625 65.9833984375 l 1
 388.168945312 102.99609375 l 1
 418.05078125 193.973632812 l 1
 397.038085938 266.298828125 l 1
 334.001953125 313.041992188 l 1
249.318359375 -100.029296875 m 0
 249.318359375 -107.37890625 243.359375 -113.337890625 236.008789062 -113.337890625 c 0
 228.659179688 -113.337890625 222.700195312 -107.37890625 222.700195312 -100.029296875 c 0
 222.700195312 -92.6787109375 228.659179688 -86.720703125 236.008789062 -86.720703125 c 0
 243.359375 -86.720703125 249.318359375 -92.6787109375 249.318359375 -100.029296875 c 0
324.27734375 -100.029296875 m 0
 324.27734375 -107.37890625 318.318359375 -113.337890625 310.967773438 -113.337890625 c 0
 303.618164062 -113.337890625 297.659179688 -107.37890625 297.659179688 -100.029296875 c 0
 297.659179688 -92.6787109375 303.618164062 -86.720703125 310.967773438 -86.720703125 c 0
 318.318359375 -86.720703125 324.27734375 -92.6787109375 324.27734375 -100.029296875 c 0
324.27734375 -14.1337890625 m 0
 324.27734375 -21.4833984375 318.318359375 -27.4423828125 310.967773438 -27.4423828125 c 0
 303.618164062 -27.4423828125 297.659179688 -21.4833984375 297.659179688 -14.1337890625 c 0
 297.659179688 -6.783203125 303.618164062 -0.8251953125 310.967773438 -0.8251953125 c 0
 318.318359375 -0.8251953125 324.27734375 -6.783203125 324.27734375 -14.1337890625 c 0
249.318359375 -12.970703125 m 0
 249.318359375 -20.3212890625 243.359375 -26.2802734375 236.008789062 -26.2802734375 c 0
 228.659179688 -26.2802734375 222.700195312 -20.3212890625 222.700195312 -12.970703125 c 0
 222.700195312 -5.62109375 228.659179688 0.337890625 236.008789062 0.337890625 c 0
 243.359375 0.337890625 249.318359375 -5.62109375 249.318359375 -12.970703125 c 0
106.46484375 64.3154296875 m 0
 106.46484375 56.9658203125 100.505859375 51.0068359375 93.1552734375 51.0068359375 c 0
 85.8056640625 51.0068359375 79.8466796875 56.9658203125 79.8466796875 64.3154296875 c 0
 79.8466796875 71.666015625 85.8056640625 77.6240234375 93.1552734375 77.6240234375 c 0
 100.505859375 77.6240234375 106.46484375 71.666015625 106.46484375 64.3154296875 c 0
249.318359375 67.1171875 m 0
 249.318359375 59.7666015625 243.359375 53.80859375 236.008789062 53.80859375 c 0
 228.659179688 53.80859375 222.700195312 59.7666015625 222.700195312 67.1171875 c 0
 222.700195312 74.4677734375 228.659179688 80.42578125 236.008789062 80.42578125 c 0
 243.359375 80.42578125 249.318359375 74.4677734375 249.318359375 67.1171875 c 0
324.444335938 65.984375 m 0
 324.444335938 58.6337890625 318.485351562 52.67578125 311.135742188 52.67578125 c 0
 303.786132812 52.67578125 297.827148438 58.6337890625 297.827148438 65.984375 c 0
 297.827148438 73.333984375 303.786132812 79.29296875 311.135742188 79.29296875 c 0
 318.485351562 79.29296875 324.444335938 73.333984375 324.444335938 65.984375 c 0
470.9765625 47.1220703125 m 0
 470.9765625 39.771484375 465.017578125 33.8134765625 457.66796875 33.8134765625 c 0
 450.317382812 33.8134765625 444.358398438 39.771484375 444.358398438 47.1220703125 c 0
 444.358398438 54.47265625 450.317382812 60.4306640625 457.66796875 60.4306640625 c 0
 465.017578125 60.4306640625 470.9765625 54.47265625 470.9765625 47.1220703125 c 0
401.541015625 102.997070312 m 0
 401.541015625 95.646484375 395.58203125 89.6875 388.231445312 89.6875 c 0
 380.881835938 89.6875 374.922851562 95.646484375 374.922851562 102.997070312 c 0
 374.922851562 110.346679688 380.881835938 116.305664062 388.231445312 116.305664062 c 0
 395.58203125 116.305664062 401.541015625 110.346679688 401.541015625 102.997070312 c 0
178.193359375 122.6328125 m 0
 178.193359375 115.282226562 172.234375 109.32421875 164.883789062 109.32421875 c 0
 157.534179688 109.32421875 151.575195312 115.282226562 151.575195312 122.6328125 c 0
 151.575195312 129.983398438 157.534179688 135.94140625 164.883789062 135.94140625 c 0
 172.234375 135.94140625 178.193359375 129.983398438 178.193359375 122.6328125 c 0
147.42578125 227.993164062 m 0
 147.42578125 220.642578125 141.466796875 214.684570312 134.116210938 214.684570312 c 0
 126.766601562 214.684570312 120.807617188 220.642578125 120.807617188 227.993164062 c 0
 120.807617188 235.342773438 126.766601562 241.301757812 134.116210938 241.301757812 c 0
 141.466796875 241.301757812 147.42578125 235.342773438 147.42578125 227.993164062 c 0
59.3720703125 203 m 0
 59.3720703125 195.649414062 53.4130859375 189.69140625 46.0625 189.69140625 c 0
 38.712890625 189.69140625 32.75390625 195.649414062 32.75390625 203 c 0
 32.75390625 210.349609375 38.712890625 216.30859375 46.0625 216.30859375 c 0
 53.4130859375 216.30859375 59.3720703125 210.349609375 59.3720703125 203 c 0
431.422851562 193.974609375 m 0
 431.422851562 186.624023438 425.463867188 180.665039062 418.11328125 180.665039062 c 0
 410.763671875 180.665039062 404.8046875 186.624023438 404.8046875 193.974609375 c 0
 404.8046875 201.32421875 410.763671875 207.283203125 418.11328125 207.283203125 c 0
 425.463867188 207.283203125 431.422851562 201.32421875 431.422851562 193.974609375 c 0
528.39453125 198.9765625 m 0
 528.39453125 191.625976562 522.435546875 185.666992188 515.0859375 185.666992188 c 0
 507.735351562 185.666992188 501.776367188 191.625976562 501.776367188 198.9765625 c 0
 501.776367188 206.326171875 507.735351562 212.28515625 515.0859375 212.28515625 c 0
 522.435546875 212.28515625 528.39453125 206.326171875 528.39453125 198.9765625 c 0
410.41015625 266.299804688 m 0
 410.41015625 258.94921875 404.451171875 252.990234375 397.100585938 252.990234375 c 0
 389.750976562 252.990234375 383.791992188 258.94921875 383.791992188 266.299804688 c 0
 383.791992188 273.649414062 389.750976562 279.608398438 397.100585938 279.608398438 c 0
 404.451171875 279.608398438 410.41015625 273.649414062 410.41015625 266.299804688 c 0
471.0390625 340.015625 m 0
 471.0390625 332.665039062 465.080078125 326.706054688 457.73046875 326.706054688 c 0
 450.379882812 326.706054688 444.420898438 332.665039062 444.420898438 340.015625 c 0
 444.420898438 347.365234375 450.379882812 353.32421875 457.73046875 353.32421875 c 0
 465.080078125 353.32421875 471.0390625 347.365234375 471.0390625 340.015625 c 0
324.444335938 321.046875 m 0
 324.444335938 313.696289062 318.485351562 307.73828125 311.134765625 307.73828125 c 0
 303.78515625 307.73828125 297.826171875 313.696289062 297.826171875 321.046875 c 0
 297.826171875 328.397460938 303.78515625 334.35546875 311.134765625 334.35546875 c 0
 318.485351562 334.35546875 324.444335938 328.397460938 324.444335938 321.046875 c 0
249.318359375 340.07421875 m 0
 249.318359375 332.724609375 243.359375 326.765625 236.008789062 326.765625 c 0
 228.659179688 326.765625 222.700195312 332.724609375 222.700195312 340.07421875 c 0
 222.700195312 347.424804688 228.659179688 353.3828125 236.008789062 353.3828125 c 0
 243.359375 353.3828125 249.318359375 347.424804688 249.318359375 340.07421875 c 0
249.318359375 435.029296875 m 0
 249.318359375 427.678710938 243.359375 421.720703125 236.008789062 421.720703125 c 0
 228.659179688 421.720703125 222.700195312 427.678710938 222.700195312 435.029296875 c 0
 222.700195312 442.37890625 228.659179688 448.337890625 236.008789062 448.337890625 c 0
 243.359375 448.337890625 249.318359375 442.37890625 249.318359375 435.029296875 c 0
324.444335938 412.014648438 m 0
 324.444335938 404.665039062 318.485351562 398.706054688 311.135742188 398.706054688 c 0
 303.786132812 398.706054688 297.827148438 404.665039062 297.827148438 412.014648438 c 0
 297.827148438 419.365234375 303.786132812 425.323242188 311.135742188 425.323242188 c 0
 318.485351562 425.323242188 324.444335938 419.365234375 324.444335938 412.014648438 c 0
191.680664062 475.543945312 m 0
 191.680664062 468.193359375 185.721679688 462.235351562 178.37109375 462.235351562 c 0
 171.021484375 462.235351562 165.0625 468.193359375 165.0625 475.543945312 c 0
 165.0625 482.893554688 171.021484375 488.852539062 178.37109375 488.852539062 c 0
 185.721679688 488.852539062 191.680664062 482.893554688 191.680664062 475.543945312 c 0
109.548828125 424.231445312 m 0
 109.548828125 416.880859375 103.58984375 410.922851562 96.240234375 410.922851562 c 0
 88.890625 410.922851562 82.931640625 416.880859375 82.931640625 424.231445312 c 0
 82.931640625 431.581054688 88.890625 437.540039062 96.240234375 437.540039062 c 0
 103.58984375 437.540039062 109.548828125 431.581054688 109.548828125 424.231445312 c 0
80.5537109375 531.000976562 m 0
 80.5537109375 523.651367188 74.5947265625 517.692382812 67.2451171875 517.692382812 c 0
 59.8955078125 517.692382812 53.9365234375 523.651367188 53.9365234375 531.000976562 c 0
 53.9365234375 538.3515625 59.8955078125 544.309570312 67.2451171875 544.309570312 c 0
 74.5947265625 544.309570312 80.5537109375 538.3515625 80.5537109375 531.000976562 c 0
172.190429688 537.00390625 m 0
 172.190429688 529.653320312 166.231445312 523.6953125 158.880859375 523.6953125 c 0
 151.53125 523.6953125 145.572265625 529.653320312 145.572265625 537.00390625 c 0
 145.572265625 544.353515625 151.53125 550.3125 158.880859375 550.3125 c 0
 166.231445312 550.3125 172.190429688 544.353515625 172.190429688 537.00390625 c 0
193.494140625 614.631835938 m 0
 193.494140625 607.28125 187.53515625 601.323242188 180.184570312 601.323242188 c 0
 172.834960938 601.323242188 166.875976562 607.28125 166.875976562 614.631835938 c 0
 166.875976562 621.981445312 172.834960938 627.940429688 180.184570312 627.940429688 c 0
 187.53515625 627.940429688 193.494140625 621.981445312 193.494140625 614.631835938 c 0
131.686523438 672.356445312 m 0
 131.686523438 665.005859375 125.727539062 659.047851562 118.377929688 659.047851562 c 0
 111.028320312 659.047851562 105.069335938 665.005859375 105.069335938 672.356445312 c 0
 105.069335938 679.70703125 111.028320312 685.665039062 118.377929688 685.665039062 c 0
 125.727539062 685.665039062 131.686523438 679.70703125 131.686523438 672.356445312 c 0
324.27734375 732.033203125 m 0
 324.27734375 724.682617188 318.318359375 718.724609375 310.967773438 718.724609375 c 0
 303.618164062 718.724609375 297.659179688 724.682617188 297.659179688 732.033203125 c 0
 297.659179688 739.383789062 303.618164062 745.341796875 310.967773438 745.341796875 c 0
 318.318359375 745.341796875 324.27734375 739.383789062 324.27734375 732.033203125 c 0
249.484375 651.094726562 m 0
 249.484375 643.744140625 243.525390625 637.78515625 236.174804688 637.78515625 c 0
 228.825195312 637.78515625 222.866210938 643.744140625 222.866210938 651.094726562 c 0
 222.866210938 658.444335938 228.825195312 664.403320312 236.174804688 664.403320312 c 0
 243.525390625 664.403320312 249.484375 658.444335938 249.484375 651.094726562 c 0
249.484375 731.609375 m 0
 249.484375 724.258789062 243.525390625 718.30078125 236.17578125 718.30078125 c 0
 228.826171875 718.30078125 222.866210938 724.258789062 222.866210938 731.609375 c 0
 222.866210938 738.958984375 228.826171875 744.91796875 236.17578125 744.91796875 c 0
 243.525390625 744.91796875 249.484375 738.958984375 249.484375 731.609375 c 0
324.444335938 650.986328125 m 0
 324.444335938 643.635742188 318.485351562 637.676757812 311.135742188 637.676757812 c 0
 303.786132812 637.676757812 297.827148438 643.635742188 297.827148438 650.986328125 c 0
 297.827148438 658.3359375 303.786132812 664.294921875 311.135742188 664.294921875 c 0
 318.485351562 664.294921875 324.444335938 658.3359375 324.444335938 650.986328125 c 0
324.27734375 820 m 0
 324.27734375 812.649414062 318.318359375 806.69140625 310.967773438 806.69140625 c 0
 303.618164062 806.69140625 297.659179688 812.649414062 297.659179688 820 c 0
 297.659179688 827.350585938 303.618164062 833.30859375 310.967773438 833.30859375 c 0
 318.318359375 833.30859375 324.27734375 827.350585938 324.27734375 820 c 0
249.703125 819.450195312 m 0
 249.703125 812.099609375 243.744140625 806.140625 236.393554688 806.140625 c 0
 229.043945312 806.140625 223.084960938 812.099609375 223.084960938 819.450195312 c 0
 223.084960938 826.799804688 229.043945312 832.758789062 236.393554688 832.758789062 c 0
 243.744140625 832.758789062 249.703125 826.799804688 249.703125 819.450195312 c 0
451.622070312 667.25390625 m 0
 451.622070312 659.903320312 445.663085938 653.9453125 438.3125 653.9453125 c 0
 430.962890625 653.9453125 425.00390625 659.903320312 425.00390625 667.25390625 c 0
 425.00390625 674.604492188 430.962890625 680.5625 438.3125 680.5625 c 0
 445.663085938 680.5625 451.622070312 674.604492188 451.622070312 667.25390625 c 0
385.782226562 602.216796875 m 0
 385.782226562 594.866210938 379.823242188 588.908203125 372.47265625 588.908203125 c 0
 365.123046875 588.908203125 359.1640625 594.866210938 359.1640625 602.216796875 c 0
 359.1640625 609.567382812 365.123046875 615.525390625 372.47265625 615.525390625 c 0
 379.823242188 615.525390625 385.782226562 609.567382812 385.782226562 602.216796875 c 0
410.41015625 506.987304688 m 0
 410.41015625 499.63671875 404.451171875 493.678710938 397.100585938 493.678710938 c 0
 389.750976562 493.678710938 383.791992188 499.63671875 383.791992188 506.987304688 c 0
 383.791992188 514.337890625 389.750976562 520.295898438 397.100585938 520.295898438 c 0
 404.451171875 520.295898438 410.41015625 514.337890625 410.41015625 506.987304688 c 0
499.372070312 534 m 0
 499.372070312 526.649414062 493.413085938 520.69140625 486.0625 520.69140625 c 0
 478.712890625 520.69140625 472.75390625 526.649414062 472.75390625 534 c 0
 472.75390625 541.350585938 478.712890625 547.30859375 486.0625 547.30859375 c 0
 493.413085938 547.30859375 499.372070312 541.350585938 499.372070312 534 c 0
EndSplineSet
Fore
SplineSet
249.318359375 -100.029296875 m 0xcc
 249.318359375 -107.37890625 243.359375 -113.337890625 236.008789062 -113.337890625 c 0
 228.659179688 -113.337890625 222.700195312 -107.37890625 222.700195312 -100.029296875 c 0
 222.700195312 -92.6787109375 228.659179688 -86.720703125 236.008789062 -86.720703125 c 0
 243.359375 -86.720703125 249.318359375 -92.6787109375 249.318359375 -100.029296875 c 0xcc
324.27734375 -100.029296875 m 0
 324.27734375 -107.37890625 318.318359375 -113.337890625 310.967773438 -113.337890625 c 0
 303.618164062 -113.337890625 297.659179688 -107.37890625 297.659179688 -100.029296875 c 0
 297.659179688 -92.6787109375 303.618164062 -86.720703125 310.967773438 -86.720703125 c 0
 318.318359375 -86.720703125 324.27734375 -92.6787109375 324.27734375 -100.029296875 c 0
324.27734375 -14.1337890625 m 0
 324.27734375 -21.4833984375 318.318359375 -27.4423828125 310.967773438 -27.4423828125 c 0
 303.618164062 -27.4423828125 297.659179688 -21.4833984375 297.659179688 -14.1337890625 c 0
 297.659179688 -6.783203125 303.618164062 -0.8251953125 310.967773438 -0.8251953125 c 0
 318.318359375 -0.8251953125 324.27734375 -6.783203125 324.27734375 -14.1337890625 c 0
249.318359375 -12.970703125 m 0
 249.318359375 -20.3212890625 243.359375 -26.2802734375 236.008789062 -26.2802734375 c 0
 228.659179688 -26.2802734375 222.700195312 -20.3212890625 222.700195312 -12.970703125 c 0
 222.700195312 -5.62109375 228.659179688 0.337890625 236.008789062 0.337890625 c 0
 243.359375 0.337890625 249.318359375 -5.62109375 249.318359375 -12.970703125 c 0
106.46484375 64.3154296875 m 0
 106.46484375 56.9658203125 100.505859375 51.0068359375 93.1552734375 51.0068359375 c 0
 85.8056640625 51.0068359375 79.8466796875 56.9658203125 79.8466796875 64.3154296875 c 0
 79.8466796875 71.666015625 85.8056640625 77.6240234375 93.1552734375 77.6240234375 c 0
 100.505859375 77.6240234375 106.46484375 71.666015625 106.46484375 64.3154296875 c 0
249.318359375 67.1171875 m 0
 249.318359375 59.7666015625 243.359375 53.80859375 236.008789062 53.80859375 c 0
 228.659179688 53.80859375 222.700195312 59.7666015625 222.700195312 67.1171875 c 0
 222.700195312 74.4677734375 228.659179688 80.42578125 236.008789062 80.42578125 c 0
 243.359375 80.42578125 249.318359375 74.4677734375 249.318359375 67.1171875 c 0
324.444335938 65.984375 m 0
 324.444335938 58.6337890625 318.485351562 52.67578125 311.135742188 52.67578125 c 0
 303.786132812 52.67578125 297.827148438 58.6337890625 297.827148438 65.984375 c 0
 297.827148438 73.333984375 303.786132812 79.29296875 311.135742188 79.29296875 c 0
 318.485351562 79.29296875 324.444335938 73.333984375 324.444335938 65.984375 c 0
470.9765625 47.1220703125 m 0
 470.9765625 39.771484375 465.017578125 33.8134765625 457.66796875 33.8134765625 c 0
 450.317382812 33.8134765625 444.358398438 39.771484375 444.358398438 47.1220703125 c 0
 444.358398438 54.47265625 450.317382812 60.4306640625 457.66796875 60.4306640625 c 0
 465.017578125 60.4306640625 470.9765625 54.47265625 470.9765625 47.1220703125 c 0
401.541015625 102.997070312 m 0
 401.541015625 95.646484375 395.58203125 89.6875 388.231445312 89.6875 c 0
 380.881835938 89.6875 374.922851562 95.646484375 374.922851562 102.997070312 c 0
 374.922851562 110.346679688 380.881835938 116.305664062 388.231445312 116.305664062 c 0
 395.58203125 116.305664062 401.541015625 110.346679688 401.541015625 102.997070312 c 0
178.193359375 122.6328125 m 0
 178.193359375 115.282226562 172.234375 109.32421875 164.883789062 109.32421875 c 0
 157.534179688 109.32421875 151.575195312 115.282226562 151.575195312 122.6328125 c 0
 151.575195312 129.983398438 157.534179688 135.94140625 164.883789062 135.94140625 c 0
 172.234375 135.94140625 178.193359375 129.983398438 178.193359375 122.6328125 c 0
147.42578125 227.993164062 m 0
 147.42578125 220.642578125 141.466796875 214.684570312 134.116210938 214.684570312 c 0
 126.766601562 214.684570312 120.807617188 220.642578125 120.807617188 227.993164062 c 0
 120.807617188 235.342773438 126.766601562 241.301757812 134.116210938 241.301757812 c 0
 141.466796875 241.301757812 147.42578125 235.342773438 147.42578125 227.993164062 c 0
59.3720703125 203 m 0
 59.3720703125 195.649414062 53.4130859375 189.69140625 46.0625 189.69140625 c 0
 38.712890625 189.69140625 32.75390625 195.649414062 32.75390625 203 c 0
 32.75390625 210.349609375 38.712890625 216.30859375 46.0625 216.30859375 c 0
 53.4130859375 216.30859375 59.3720703125 210.349609375 59.3720703125 203 c 0
431.422851562 193.974609375 m 0
 431.422851562 186.624023438 425.463867188 180.665039062 418.11328125 180.665039062 c 0
 410.763671875 180.665039062 404.8046875 186.624023438 404.8046875 193.974609375 c 0
 404.8046875 201.32421875 410.763671875 207.283203125 418.11328125 207.283203125 c 0
 425.463867188 207.283203125 431.422851562 201.32421875 431.422851562 193.974609375 c 0
528.39453125 198.9765625 m 0
 528.39453125 191.625976562 522.435546875 185.666992188 515.0859375 185.666992188 c 0
 507.735351562 185.666992188 501.776367188 191.625976562 501.776367188 198.9765625 c 0
 501.776367188 206.326171875 507.735351562 212.28515625 515.0859375 212.28515625 c 0
 522.435546875 212.28515625 528.39453125 206.326171875 528.39453125 198.9765625 c 0
410.41015625 266.299804688 m 0
 410.41015625 258.94921875 404.451171875 252.990234375 397.100585938 252.990234375 c 0
 389.750976562 252.990234375 383.791992188 258.94921875 383.791992188 266.299804688 c 0
 383.791992188 273.649414062 389.750976562 279.608398438 397.100585938 279.608398438 c 0
 404.451171875 279.608398438 410.41015625 273.649414062 410.41015625 266.299804688 c 0
471.0390625 340.015625 m 0
 471.0390625 332.665039062 465.080078125 326.706054688 457.73046875 326.706054688 c 0
 450.379882812 326.706054688 444.420898438 332.665039062 444.420898438 340.015625 c 0
 444.420898438 347.365234375 450.379882812 353.32421875 457.73046875 353.32421875 c 0
 465.080078125 353.32421875 471.0390625 347.365234375 471.0390625 340.015625 c 0
324.444335938 321.046875 m 0
 324.444335938 313.696289062 318.485351562 307.73828125 311.134765625 307.73828125 c 0
 303.78515625 307.73828125 297.826171875 313.696289062 297.826171875 321.046875 c 0
 297.826171875 328.397460938 303.78515625 334.35546875 311.134765625 334.35546875 c 0
 318.485351562 334.35546875 324.444335938 328.397460938 324.444335938 321.046875 c 0
249.318359375 340.07421875 m 0
 249.318359375 332.724609375 243.359375 326.765625 236.008789062 326.765625 c 0
 228.659179688 326.765625 222.700195312 332.724609375 222.700195312 340.07421875 c 0
 222.700195312 347.424804688 228.659179688 353.3828125 236.008789062 353.3828125 c 0
 243.359375 353.3828125 249.318359375 347.424804688 249.318359375 340.07421875 c 0
249.318359375 435.029296875 m 0
 249.318359375 427.678710938 243.359375 421.720703125 236.008789062 421.720703125 c 0
 228.659179688 421.720703125 222.700195312 427.678710938 222.700195312 435.029296875 c 0
 222.700195312 442.37890625 228.659179688 448.337890625 236.008789062 448.337890625 c 0
 243.359375 448.337890625 249.318359375 442.37890625 249.318359375 435.029296875 c 0
324.444335938 412.014648438 m 0
 324.444335938 404.665039062 318.485351562 398.706054688 311.135742188 398.706054688 c 0
 303.786132812 398.706054688 297.827148438 404.665039062 297.827148438 412.014648438 c 0
 297.827148438 419.365234375 303.786132812 425.323242188 311.135742188 425.323242188 c 0
 318.485351562 425.323242188 324.444335938 419.365234375 324.444335938 412.014648438 c 0
191.680664062 475.543945312 m 0
 191.680664062 468.193359375 185.721679688 462.235351562 178.37109375 462.235351562 c 0
 171.021484375 462.235351562 165.0625 468.193359375 165.0625 475.543945312 c 0
 165.0625 482.893554688 171.021484375 488.852539062 178.37109375 488.852539062 c 0
 185.721679688 488.852539062 191.680664062 482.893554688 191.680664062 475.543945312 c 0
109.548828125 424.231445312 m 0
 109.548828125 416.880859375 103.58984375 410.922851562 96.240234375 410.922851562 c 0
 88.890625 410.922851562 82.931640625 416.880859375 82.931640625 424.231445312 c 0
 82.931640625 431.581054688 88.890625 437.540039062 96.240234375 437.540039062 c 0
 103.58984375 437.540039062 109.548828125 431.581054688 109.548828125 424.231445312 c 0
80.5537109375 531.000976562 m 0
 80.5537109375 523.651367188 74.5947265625 517.692382812 67.2451171875 517.692382812 c 0
 59.8955078125 517.692382812 53.9365234375 523.651367188 53.9365234375 531.000976562 c 0
 53.9365234375 538.3515625 59.8955078125 544.309570312 67.2451171875 544.309570312 c 0
 74.5947265625 544.309570312 80.5537109375 538.3515625 80.5537109375 531.000976562 c 0
172.190429688 537.00390625 m 0
 172.190429688 529.653320312 166.231445312 523.6953125 158.880859375 523.6953125 c 0
 151.53125 523.6953125 145.572265625 529.653320312 145.572265625 537.00390625 c 0
 145.572265625 544.353515625 151.53125 550.3125 158.880859375 550.3125 c 0
 166.231445312 550.3125 172.190429688 544.353515625 172.190429688 537.00390625 c 0
193.494140625 614.631835938 m 0
 193.494140625 607.28125 187.53515625 601.323242188 180.184570312 601.323242188 c 0
 172.834960938 601.323242188 166.875976562 607.28125 166.875976562 614.631835938 c 0
 166.875976562 621.981445312 172.834960938 627.940429688 180.184570312 627.940429688 c 0
 187.53515625 627.940429688 193.494140625 621.981445312 193.494140625 614.631835938 c 0
131.686523438 672.356445312 m 0
 131.686523438 665.005859375 125.727539062 659.047851562 118.377929688 659.047851562 c 0
 111.028320312 659.047851562 105.069335938 665.005859375 105.069335938 672.356445312 c 0
 105.069335938 679.70703125 111.028320312 685.665039062 118.377929688 685.665039062 c 0
 125.727539062 685.665039062 131.686523438 679.70703125 131.686523438 672.356445312 c 0
324.27734375 732.033203125 m 0
 324.27734375 724.682617188 318.318359375 718.724609375 310.967773438 718.724609375 c 0
 303.618164062 718.724609375 297.659179688 724.682617188 297.659179688 732.033203125 c 0
 297.659179688 739.383789062 303.618164062 745.341796875 310.967773438 745.341796875 c 0
 318.318359375 745.341796875 324.27734375 739.383789062 324.27734375 732.033203125 c 0
249.484375 651.094726562 m 0
 249.484375 643.744140625 243.525390625 637.78515625 236.174804688 637.78515625 c 0
 228.825195312 637.78515625 222.866210938 643.744140625 222.866210938 651.094726562 c 0
 222.866210938 658.444335938 228.825195312 664.403320312 236.174804688 664.403320312 c 0
 243.525390625 664.403320312 249.484375 658.444335938 249.484375 651.094726562 c 0
249.484375 731.609375 m 0
 249.484375 724.258789062 243.525390625 718.30078125 236.17578125 718.30078125 c 0
 228.826171875 718.30078125 222.866210938 724.258789062 222.866210938 731.609375 c 0
 222.866210938 738.958984375 228.826171875 744.91796875 236.17578125 744.91796875 c 0
 243.525390625 744.91796875 249.484375 738.958984375 249.484375 731.609375 c 0
324.444335938 650.986328125 m 0
 324.444335938 643.635742188 318.485351562 637.676757812 311.135742188 637.676757812 c 0
 303.786132812 637.676757812 297.827148438 643.635742188 297.827148438 650.986328125 c 0
 297.827148438 658.3359375 303.786132812 664.294921875 311.135742188 664.294921875 c 0
 318.485351562 664.294921875 324.444335938 658.3359375 324.444335938 650.986328125 c 0
324.27734375 820 m 0
 324.27734375 812.649414062 318.318359375 806.69140625 310.967773438 806.69140625 c 0
 303.618164062 806.69140625 297.659179688 812.649414062 297.659179688 820 c 0
 297.659179688 827.350585938 303.618164062 833.30859375 310.967773438 833.30859375 c 0
 318.318359375 833.30859375 324.27734375 827.350585938 324.27734375 820 c 0
249.703125 819.450195312 m 0
 249.703125 812.099609375 243.744140625 806.140625 236.393554688 806.140625 c 0
 229.043945312 806.140625 223.084960938 812.099609375 223.084960938 819.450195312 c 0
 223.084960938 826.799804688 229.043945312 832.758789062 236.393554688 832.758789062 c 0
 243.744140625 832.758789062 249.703125 826.799804688 249.703125 819.450195312 c 0
451.622070312 667.25390625 m 0
 451.622070312 659.903320312 445.663085938 653.9453125 438.3125 653.9453125 c 0
 430.962890625 653.9453125 425.00390625 659.903320312 425.00390625 667.25390625 c 0
 425.00390625 674.604492188 430.962890625 680.5625 438.3125 680.5625 c 0
 445.663085938 680.5625 451.622070312 674.604492188 451.622070312 667.25390625 c 0
385.782226562 602.216796875 m 0
 385.782226562 594.866210938 379.823242188 588.908203125 372.47265625 588.908203125 c 0
 365.123046875 588.908203125 359.1640625 594.866210938 359.1640625 602.216796875 c 0
 359.1640625 609.567382812 365.123046875 615.525390625 372.47265625 615.525390625 c 0
 379.823242188 615.525390625 385.782226562 609.567382812 385.782226562 602.216796875 c 0
410.41015625 506.987304688 m 0
 410.41015625 499.63671875 404.451171875 493.678710938 397.100585938 493.678710938 c 0
 389.750976562 493.678710938 383.791992188 499.63671875 383.791992188 506.987304688 c 0
 383.791992188 514.337890625 389.750976562 520.295898438 397.100585938 520.295898438 c 0
 404.451171875 520.295898438 410.41015625 514.337890625 410.41015625 506.987304688 c 0
499.372070312 534 m 0
 499.372070312 526.649414062 493.413085938 520.69140625 486.0625 520.69140625 c 0
 478.712890625 520.69140625 472.75390625 526.649414062 472.75390625 534 c 0
 472.75390625 541.350585938 478.712890625 547.30859375 486.0625 547.30859375 c 0
 493.413085938 547.30859375 499.372070312 541.350585938 499.372070312 534 c 0
EndSplineSet
Validated: 1
Layer: 2
EndChar
StartChar: percent
Encoding: 5 37 344
Width: 1000
VWidth: 0
HStem: -40.3682 26.6172<336.182 362.792> -26.9688 26.6172<696.832 723.442> -1.51855 26.6172<263.733 290.341> 19.0996 26.6172<586.32 612.929 807.346 833.955> 51.7822 26.6172<696.832 723.442> 73.832 26.6172<646.827 673.436 746.838 773.448> 146.282 26.6172<543.533 570.142 624.382 650.992 769.283 795.892 850.133 876.742> 218.731 26.6172<648.401 675.01 746.838 773.448> 240.782 26.6172<696.832 723.442> 273.463 26.6172<586.32 612.929 807.346 833.955> 319.532 26.6172<696.832 723.442> 373.031 26.6172<296.582 323.192> 419.1 26.6172<186.07 212.679 407.096 433.705> 451.782 26.6172<296.582 323.192> 473.832 26.6172<246.577 273.186 346.588 373.198> 546.282 26.6172<143.283 169.892 224.132 250.742 369.033 395.642 449.883 476.492> 618.731 26.6172<248.151 274.76 346.588 373.198> 640.782 26.6172<296.582 323.192> 673.463 26.6172<186.07 212.679 407.096 433.705> 693.678 26.6172<728.881 755.49> 719.532 26.6172<296.582 323.192> 732.527 26.6172<656.431 683.041>
VStem: 143.278 26.6182<546.287 572.895> 186.065 26.6182<419.104 445.712 673.467 700.076> 224.128 26.6182<546.287 572.895> 246.572 26.6182<473.836 500.445 618.838 645.242> 263.729 26.6172<-1.51421 25.0943> 296.578 26.6182<373.036 399.644 451.787 478.395 640.787 667.395 719.537 746.145> 336.178 26.6182<-40.3638 -13.7553> 346.584 26.6182<473.836 500.445 618.736 645.344> 369.028 26.6182<546.287 572.895> 407.092 26.6172<419.104 445.712 673.467 700.076> 449.879 26.6172<546.287 572.895> 543.528 26.6182<146.287 172.895> 586.315 26.6182<19.104 45.7125 273.467 300.076> 624.378 26.6182<146.287 172.895> 646.822 26.6182<73.8364 100.445 218.838 245.242> 656.427 26.6182<732.532 759.14> 696.828 26.6182<-26.9644 -0.355909 51.7866 78.3951 240.787 267.395 319.537 346.145> 728.877 26.6172<693.682 720.291> 746.834 26.6182<73.8364 100.445 218.736 245.344> 769.278 26.6182<146.287 172.895> 807.342 26.6172<19.104 45.7125 273.467 300.076> 850.129 26.6172<146.287 172.895>
LayerCount: 3
Back
SplineSet
310.000976562 725 m 1
 415.280273438 681.108398438 l 1
 456.083984375 559.98828125 l 1
 415.280273438 438.869140625 l 1
 310.000976562 394.977539062 l 1
 204.793945312 438.869140625 l 1
 164 559.98828125 l 1
 204.763671875 681.108398438 l 1
 310.000976562 725 l 1
310.000976562 470.020507812 m 1
 357.653320312 491.032226562 l 1
 379.040039062 560.072265625 l 1
 357.653320312 629.111328125 l 1
 310.000976562 650.124023438 l 1
 263.922851562 629.111328125 l 1
 241.043945312 560.072265625 l 1
 262.421875 491.032226562 l 1
 310.000976562 470.020507812 l 1
357 -8 m 1
 289 28 l 1
 662 728.090820312 l 1
 732 691 l 1
 357 -8 l 1
710.063476562 325.020507812 m 1
 815.301757812 281.127929688 l 1
 856.064453125 160.008789062 l 1
 815.301757812 38.8896484375 l 1
 710.063476562 -5.0029296875 l 1
 604.826171875 38.8896484375 l 1
 564.063476562 160.008789062 l 1
 604.794921875 281.127929688 l 1
 710.063476562 325.020507812 l 1
710.063476562 69.95703125 m 1
 757.643554688 90.96875 l 1
 779.01953125 160.008789062 l 1
 757.643554688 229.048828125 l 1
 710.063476562 250.060546875 l 1
 663.995117188 229.048828125 l 1
 641.190429688 160.008789062 l 1
 662.495117188 90.96875 l 1
 710.063476562 69.95703125 l 1
EndSplineSet
Fore
SplineSet
290.345703125 11.7900390625 m 0x22790331e230
 290.345703125 4.439453125 284.38671875 -1.5185546875 277.037109375 -1.5185546875 c 0
 269.6875 -1.5185546875 263.728515625 4.439453125 263.728515625 11.7900390625 c 0
 263.728515625 19.140625 269.6875 25.0986328125 277.037109375 25.0986328125 c 0
 284.38671875 25.0986328125 290.345703125 19.140625 290.345703125 11.7900390625 c 0x22790331e230
362.795898438 -27.0595703125 m 0x82790319e230
 362.795898438 -34.41015625 356.836914062 -40.3681640625 349.486328125 -40.3681640625 c 0
 342.13671875 -40.3681640625 336.177734375 -34.41015625 336.177734375 -27.0595703125 c 0
 336.177734375 -19.708984375 342.13671875 -13.7509765625 349.486328125 -13.7509765625 c 0
 356.836914062 -13.7509765625 362.795898438 -19.708984375 362.795898438 -27.0595703125 c 0x82790319e230
683.044921875 745.8359375 m 0x02790711e630
 683.044921875 738.485351562 677.0859375 732.52734375 669.736328125 732.52734375 c 0
 662.385742188 732.52734375 656.426757812 738.485351562 656.426757812 745.8359375 c 0
 656.426757812 753.186523438 662.385742188 759.14453125 669.736328125 759.14453125 c 0
 677.0859375 759.14453125 683.044921875 753.186523438 683.044921875 745.8359375 c 0x02790711e630
755.494140625 706.986328125 m 0x02791311e330
 755.494140625 699.635742188 749.53515625 693.677734375 742.185546875 693.677734375 c 0
 734.8359375 693.677734375 728.876953125 699.635742188 728.876953125 706.986328125 c 0
 728.876953125 714.336914062 734.8359375 720.294921875 742.185546875 720.294921875 c 0
 749.53515625 720.294921875 755.494140625 714.336914062 755.494140625 706.986328125 c 0x02791311e330
323.196289062 732.840820312 m 0
 323.196289062 725.490234375 317.237304688 719.532226562 309.887695312 719.532226562 c 0
 302.537109375 719.532226562 296.578125 725.490234375 296.578125 732.840820312 c 0
 296.578125 740.19140625 302.537109375 746.149414062 309.887695312 746.149414062 c 0x02790b11e230
 317.237304688 746.149414062 323.196289062 740.19140625 323.196289062 732.840820312 c 0
323.196289062 654.090820312 m 0
 323.196289062 646.740234375 317.237304688 640.782226562 309.887695312 640.782226562 c 0
 302.537109375 640.782226562 296.578125 646.740234375 296.578125 654.090820312 c 0
 296.578125 661.440429688 302.537109375 667.399414062 309.887695312 667.399414062 c 0x02794311e230
 317.237304688 667.399414062 323.196289062 661.440429688 323.196289062 654.090820312 c 0
373.202148438 632.040039062 m 0x02798315e230
 373.202148438 624.689453125 367.243164062 618.731445312 359.893554688 618.731445312 c 0
 352.54296875 618.731445312 346.583984375 624.689453125 346.583984375 632.040039062 c 0
 346.583984375 639.389648438 352.54296875 645.348632812 359.893554688 645.348632812 c 0
 367.243164062 645.348632812 373.202148438 639.389648438 373.202148438 632.040039062 c 0x02798315e230
395.646484375 559.590820312 m 0x02790313e230
 395.646484375 552.240234375 389.6875 546.282226562 382.337890625 546.282226562 c 0
 374.987304688 546.282226562 369.028320312 552.240234375 369.028320312 559.590820312 c 0
 369.028320312 566.940429688 374.987304688 572.899414062 382.337890625 572.899414062 c 0
 389.6875 572.899414062 395.646484375 566.940429688 395.646484375 559.590820312 c 0x02790313e230
373.202148438 487.140625 m 0x027b0315e230
 373.202148438 479.790039062 367.243164062 473.83203125 359.893554688 473.83203125 c 0
 352.54296875 473.83203125 346.583984375 479.790039062 346.583984375 487.140625 c 0
 346.583984375 494.490234375 352.54296875 500.44921875 359.893554688 500.44921875 c 0
 367.243164062 500.44921875 373.202148438 494.490234375 373.202148438 487.140625 c 0x027b0315e230
323.196289062 465.090820312 m 0
 323.196289062 457.740234375 317.237304688 451.782226562 309.887695312 451.782226562 c 0
 302.537109375 451.782226562 296.578125 457.740234375 296.578125 465.090820312 c 0
 296.578125 472.440429688 302.537109375 478.399414062 309.887695312 478.399414062 c 0x027d0311e230
 317.237304688 478.399414062 323.196289062 472.440429688 323.196289062 465.090820312 c 0
273.190429688 487.140625 m 0x027b0351e230
 273.190429688 479.790039062 267.231445312 473.83203125 259.881835938 473.83203125 c 0
 252.53125 473.83203125 246.572265625 479.790039062 246.572265625 487.140625 c 0
 246.572265625 494.490234375 252.53125 500.44921875 259.881835938 500.44921875 c 0
 267.231445312 500.44921875 273.190429688 494.490234375 273.190429688 487.140625 c 0x027b0351e230
250.74609375 559.590820312 m 0x02790391e230
 250.74609375 552.240234375 244.787109375 546.282226562 237.4375 546.282226562 c 0
 230.086914062 546.282226562 224.127929688 552.240234375 224.127929688 559.590820312 c 0
 224.127929688 566.940429688 230.086914062 572.899414062 237.4375 572.899414062 c 0
 244.787109375 572.899414062 250.74609375 566.940429688 250.74609375 559.590820312 c 0x02790391e230
274.764648438 632.040039062 m 0
 274.764648438 624.689453125 268.805664062 618.731445312 261.456054688 618.731445312 c 0
 254.10546875 618.731445312 248.146484375 624.689453125 248.146484375 632.040039062 c 0
 248.146484375 639.389648438 254.10546875 645.348632812 261.456054688 645.348632812 c 0x02798311e230
 268.805664062 645.348632812 274.764648438 639.389648438 274.764648438 632.040039062 c 0
212.68359375 686.771484375 m 0
 212.68359375 679.420898438 206.724609375 673.462890625 199.374023438 673.462890625 c 0
 192.024414062 673.462890625 186.065429688 679.420898438 186.065429688 686.771484375 c 0
 186.065429688 694.122070312 192.024414062 700.080078125 199.374023438 700.080078125 c 0x02792311e230
 206.724609375 700.080078125 212.68359375 694.122070312 212.68359375 686.771484375 c 0
169.896484375 559.590820312 m 0
 169.896484375 552.240234375 163.9375 546.282226562 156.586914062 546.282226562 c 0
 149.237304688 546.282226562 143.278320312 552.240234375 143.278320312 559.590820312 c 0
 143.278320312 566.940429688 149.237304688 572.899414062 156.586914062 572.899414062 c 0
 163.9375 572.899414062 169.896484375 566.940429688 169.896484375 559.590820312 c 0
212.68359375 432.408203125 m 0
 212.68359375 425.05859375 206.724609375 419.099609375 199.374023438 419.099609375 c 0
 192.024414062 419.099609375 186.065429688 425.05859375 186.065429688 432.408203125 c 0
 186.065429688 439.758789062 192.024414062 445.716796875 199.374023438 445.716796875 c 0
 206.724609375 445.716796875 212.68359375 439.758789062 212.68359375 432.408203125 c 0
323.196289062 386.33984375 m 0
 323.196289062 378.990234375 317.237304688 373.03125 309.887695312 373.03125 c 0
 302.537109375 373.03125 296.578125 378.990234375 296.578125 386.33984375 c 0
 296.578125 393.690429688 302.537109375 399.6484375 309.887695312 399.6484375 c 0
 317.237304688 399.6484375 323.196289062 393.690429688 323.196289062 386.33984375 c 0
433.708984375 432.408203125 m 0
 433.708984375 425.05859375 427.75 419.099609375 420.400390625 419.099609375 c 0
 413.05078125 419.099609375 407.091796875 425.05859375 407.091796875 432.408203125 c 0
 407.091796875 439.758789062 413.05078125 445.716796875 420.400390625 445.716796875 c 0
 427.75 445.716796875 433.708984375 439.758789062 433.708984375 432.408203125 c 0
476.49609375 559.590820312 m 0
 476.49609375 552.240234375 470.537109375 546.282226562 463.1875 546.282226562 c 0
 455.837890625 546.282226562 449.87890625 552.240234375 449.87890625 559.590820312 c 0
 449.87890625 566.940429688 455.837890625 572.899414062 463.1875 572.899414062 c 0
 470.537109375 572.899414062 476.49609375 566.940429688 476.49609375 559.590820312 c 0
433.708984375 686.771484375 m 0
 433.708984375 679.420898438 427.75 673.462890625 420.400390625 673.462890625 c 0
 413.05078125 673.462890625 407.091796875 679.420898438 407.091796875 686.771484375 c 0
 407.091796875 694.122070312 413.05078125 700.080078125 420.400390625 700.080078125 c 0
 427.75 700.080078125 433.708984375 694.122070312 433.708984375 686.771484375 c 0
723.446289062 332.840820312 m 0
 723.446289062 325.490234375 717.487304688 319.532226562 710.137695312 319.532226562 c 0
 702.787109375 319.532226562 696.828125 325.490234375 696.828125 332.840820312 c 0
 696.828125 340.19140625 702.787109375 346.149414062 710.137695312 346.149414062 c 0
 717.487304688 346.149414062 723.446289062 340.19140625 723.446289062 332.840820312 c 0
723.446289062 254.090820312 m 0
 723.446289062 246.740234375 717.487304688 240.782226562 710.137695312 240.782226562 c 0
 702.787109375 240.782226562 696.828125 246.740234375 696.828125 254.090820312 c 0
 696.828125 261.440429688 702.787109375 267.399414062 710.137695312 267.399414062 c 0x02f90311e230
 717.487304688 267.399414062 723.446289062 261.440429688 723.446289062 254.090820312 c 0
773.452148438 232.040039062 m 0x03790311e2b0
 773.452148438 224.689453125 767.493164062 218.731445312 760.143554688 218.731445312 c 0
 752.79296875 218.731445312 746.833984375 224.689453125 746.833984375 232.040039062 c 0
 746.833984375 239.389648438 752.79296875 245.348632812 760.143554688 245.348632812 c 0
 767.493164062 245.348632812 773.452148438 239.389648438 773.452148438 232.040039062 c 0x03790311e2b0
795.896484375 159.590820312 m 0x02790311e270
 795.896484375 152.240234375 789.9375 146.282226562 782.587890625 146.282226562 c 0
 775.237304688 146.282226562 769.278320312 152.240234375 769.278320312 159.590820312 c 0
 769.278320312 166.940429688 775.237304688 172.899414062 782.587890625 172.899414062 c 0
 789.9375 172.899414062 795.896484375 166.940429688 795.896484375 159.590820312 c 0x02790311e270
773.452148438 87.140625 m 0x06790311e2b0
 773.452148438 79.7900390625 767.493164062 73.83203125 760.143554688 73.83203125 c 0
 752.79296875 73.83203125 746.833984375 79.7900390625 746.833984375 87.140625 c 0
 746.833984375 94.490234375 752.79296875 100.44921875 760.143554688 100.44921875 c 0
 767.493164062 100.44921875 773.452148438 94.490234375 773.452148438 87.140625 c 0x06790311e2b0
723.446289062 65.0908203125 m 0
 723.446289062 57.740234375 717.487304688 51.7822265625 710.137695312 51.7822265625 c 0
 702.787109375 51.7822265625 696.828125 57.740234375 696.828125 65.0908203125 c 0
 696.828125 72.4404296875 702.787109375 78.3994140625 710.137695312 78.3994140625 c 0x0a790311e230
 717.487304688 78.3994140625 723.446289062 72.4404296875 723.446289062 65.0908203125 c 0
673.440429688 87.140625 m 0x06790311ea30
 673.440429688 79.7900390625 667.481445312 73.83203125 660.131835938 73.83203125 c 0
 652.78125 73.83203125 646.822265625 79.7900390625 646.822265625 87.140625 c 0
 646.822265625 94.490234375 652.78125 100.44921875 660.131835938 100.44921875 c 0
 667.481445312 100.44921875 673.440429688 94.490234375 673.440429688 87.140625 c 0x06790311ea30
650.99609375 159.590820312 m 0x02790311f230
 650.99609375 152.240234375 645.037109375 146.282226562 637.6875 146.282226562 c 0
 630.336914062 146.282226562 624.377929688 152.240234375 624.377929688 159.590820312 c 0
 624.377929688 166.940429688 630.336914062 172.899414062 637.6875 172.899414062 c 0
 645.037109375 172.899414062 650.99609375 166.940429688 650.99609375 159.590820312 c 0x02790311f230
675.014648438 232.040039062 m 0
 675.014648438 224.689453125 669.055664062 218.731445312 661.706054688 218.731445312 c 0
 654.35546875 218.731445312 648.396484375 224.689453125 648.396484375 232.040039062 c 0
 648.396484375 239.389648438 654.35546875 245.348632812 661.706054688 245.348632812 c 0x03790311e230
 669.055664062 245.348632812 675.014648438 239.389648438 675.014648438 232.040039062 c 0
612.93359375 286.771484375 m 0
 612.93359375 279.420898438 606.974609375 273.462890625 599.624023438 273.462890625 c 0
 592.274414062 273.462890625 586.315429688 279.420898438 586.315429688 286.771484375 c 0
 586.315429688 294.122070312 592.274414062 300.080078125 599.624023438 300.080078125 c 0
 606.974609375 300.080078125 612.93359375 294.122070312 612.93359375 286.771484375 c 0
570.146484375 159.590820312 m 0
 570.146484375 152.240234375 564.1875 146.282226562 556.836914062 146.282226562 c 0
 549.487304688 146.282226562 543.528320312 152.240234375 543.528320312 159.590820312 c 0
 543.528320312 166.940429688 549.487304688 172.899414062 556.836914062 172.899414062 c 0
 564.1875 172.899414062 570.146484375 166.940429688 570.146484375 159.590820312 c 0
612.93359375 32.408203125 m 0
 612.93359375 25.05859375 606.974609375 19.099609375 599.624023438 19.099609375 c 0
 592.274414062 19.099609375 586.315429688 25.05859375 586.315429688 32.408203125 c 0
 586.315429688 39.7587890625 592.274414062 45.716796875 599.624023438 45.716796875 c 0x12790311e230
 606.974609375 45.716796875 612.93359375 39.7587890625 612.93359375 32.408203125 c 0
723.446289062 -13.66015625 m 0
 723.446289062 -21.009765625 717.487304688 -26.96875 710.137695312 -26.96875 c 0
 702.787109375 -26.96875 696.828125 -21.009765625 696.828125 -13.66015625 c 0
 696.828125 -6.3095703125 702.787109375 -0.3515625 710.137695312 -0.3515625 c 0x42790311e230
 717.487304688 -0.3515625 723.446289062 -6.3095703125 723.446289062 -13.66015625 c 0
833.958984375 32.408203125 m 0
 833.958984375 25.05859375 828 19.099609375 820.650390625 19.099609375 c 0
 813.30078125 19.099609375 807.341796875 25.05859375 807.341796875 32.408203125 c 0
 807.341796875 39.7587890625 813.30078125 45.716796875 820.650390625 45.716796875 c 0x12790311e230
 828 45.716796875 833.958984375 39.7587890625 833.958984375 32.408203125 c 0
876.74609375 159.590820312 m 0
 876.74609375 152.240234375 870.787109375 146.282226562 863.4375 146.282226562 c 0
 856.087890625 146.282226562 850.12890625 152.240234375 850.12890625 159.590820312 c 0
 850.12890625 166.940429688 856.087890625 172.899414062 863.4375 172.899414062 c 0
 870.787109375 172.899414062 876.74609375 166.940429688 876.74609375 159.590820312 c 0
833.958984375 286.771484375 m 0
 833.958984375 279.420898438 828 273.462890625 820.650390625 273.462890625 c 0
 813.30078125 273.462890625 807.341796875 279.420898438 807.341796875 286.771484375 c 0
 807.341796875 294.122070312 813.30078125 300.080078125 820.650390625 300.080078125 c 0
 828 300.080078125 833.958984375 294.122070312 833.958984375 286.771484375 c 0
276.596679688 12.0263671875 m 0
 276.467773438 11.7861328125 276.560546875 11.478515625 276.80078125 11.349609375 c 0
 349.25 -27.5 l 0
 349.490234375 -27.62890625 349.797851562 -27.5361328125 349.926757812 -27.2958984375 c 0
 350.055664062 -27.0556640625 349.962890625 -26.748046875 349.72265625 -26.619140625 c 0
 277.2734375 12.23046875 l 0
 277.033203125 12.359375 276.725585938 12.2666015625 276.596679688 12.0263671875 c 0
EndSplineSet
Validated: 5
Layer: 2
EndChar
StartChar: ampersand
Encoding: 6 38 184
Width: 633
Flags: HMW
HStem: -15 80<219.5 280 219.5 295> 0 21G<495 613 495 495> 655 80<240 310.5>
VStem: 40 95<139.5 200 139.5 219.5> 81 91<520 575 520 612.5> 373 91<528 582> 455 89<322 347>
LayerCount: 3
Back
SplineSet
299.065429688 345.943359375 m 1x32
 299.065429688 345.943359375 l 1
 431.057617188 199.942382812 l 1
 449.443359375 271.600585938 l 1
 455.071289062 346.943359375 l 1
 544 343 l 1
 534.159179688 233.203125 l 1
 495.01171875 129.90234375 l 1
 567 50 l 5
 502 -8 l 1
 494.844726562 -0.0888671875 l 1
 440.896484375 58.861328125 l 1
 359.579101562 4.6220703125 l 1
 257.875 -15.09765625 l 1
 93.0625 40.767578125 l 1
 40 173.927734375 l 1
 77.6259765625 285.166992188 l 1
 163.904296875 358.951171875 l 1
 121.734375 410.563476562 l 1
 80.9404296875 549.977539062 l 1
 139.067382812 689.390625 l 1
 276.051757812 735 l 1
 424.3359375 676.3828125 l 1
 463.993164062 559.982421875 l 1
 427.055664062 451.086914062 l 1
 299.065429688 345.943359375 l 1x32
250.788085938 64.865234375 m 1
 327.530273438 79.58984375 l 1
 383.947265625 119.896484375 l 1
 220.9375 297.916015625 l 1
 158.474609375 242.266601562 l 1
 134.971679688 173.927734375 l 1
 169.272460938 93.4736328125 l 1
 250.788085938 64.865234375 l 1
342.33984375 478.719726562 m 1
 372.774414062 559.81640625 l 1
 350.157226562 623.811523438 l 1
 275.885742188 654.787109375 l 1
 196.872070312 621.059570312 l 1
 171.826171875 549.810546875 l 1
 189.6171875 476.592773438 l 1
 245.868164062 405.810546875 l 1
 245.868164062 405.810546875 l 1
 342.33984375 478.719726562 l 1
EndSplineSet
Fore
SplineSet
271.206054688 -15.0986328125 m 0x20
 271.206054688 -22.44921875 265.247070312 -28.408203125 257.897460938 -28.408203125 c 0
 250.547851562 -28.408203125 244.587890625 -22.44921875 244.587890625 -15.0986328125 c 0
 244.587890625 -7.7490234375 250.547851562 -1.7900390625 257.897460938 -1.7900390625 c 0
 265.247070312 -1.7900390625 271.206054688 -7.7490234375 271.206054688 -15.0986328125 c 0x20
372.91015625 4.62109375 m 0
 372.91015625 -2.7294921875 366.951171875 -8.6884765625 359.6015625 -8.6884765625 c 0
 352.250976562 -8.6884765625 346.291992188 -2.7294921875 346.291992188 4.62109375 c 0
 346.291992188 11.970703125 352.250976562 17.9296875 359.6015625 17.9296875 c 0
 366.951171875 17.9296875 372.91015625 11.970703125 372.91015625 4.62109375 c 0
264.120117188 64.8642578125 m 0
 264.120117188 57.5146484375 258.161132812 51.5556640625 250.810546875 51.5556640625 c 0
 243.4609375 51.5556640625 237.501953125 57.5146484375 237.501953125 64.8642578125 c 0
 237.501953125 72.21484375 243.4609375 78.1728515625 250.810546875 78.1728515625 c 0
 258.161132812 78.1728515625 264.120117188 72.21484375 264.120117188 64.8642578125 c 0
340.862304688 79.5888671875 m 0
 340.862304688 72.2392578125 334.903320312 66.2802734375 327.552734375 66.2802734375 c 0
 320.203125 66.2802734375 314.244140625 72.2392578125 314.244140625 79.5888671875 c 0
 314.244140625 86.939453125 320.203125 92.8974609375 327.552734375 92.8974609375 c 0
 334.903320312 92.8974609375 340.862304688 86.939453125 340.862304688 79.5888671875 c 0
397.279296875 119.895507812 m 0
 397.279296875 112.544921875 391.3203125 106.586914062 383.969726562 106.586914062 c 0
 376.620117188 106.586914062 370.661132812 112.544921875 370.661132812 119.895507812 c 0
 370.661132812 127.24609375 376.620117188 133.204101562 383.969726562 133.204101562 c 0
 391.3203125 133.204101562 397.279296875 127.24609375 397.279296875 119.895507812 c 0
454.227539062 58.8603515625 m 0
 454.227539062 51.509765625 448.268554688 45.55078125 440.918945312 45.55078125 c 0
 433.568359375 45.55078125 427.609375 51.509765625 427.609375 58.8603515625 c 0
 427.609375 66.2099609375 433.568359375 72.1689453125 440.918945312 72.1689453125 c 0
 448.268554688 72.1689453125 454.227539062 66.2099609375 454.227539062 58.8603515625 c 0
508.342773438 129.900390625 m 0
 508.342773438 122.55078125 502.383789062 116.591796875 495.034179688 116.591796875 c 0
 487.68359375 116.591796875 481.724609375 122.55078125 481.724609375 129.900390625 c 0
 481.724609375 137.250976562 487.68359375 143.208984375 495.034179688 143.208984375 c 0
 502.383789062 143.208984375 508.342773438 137.250976562 508.342773438 129.900390625 c 0
444.388671875 199.94140625 m 0
 444.388671875 192.590820312 438.4296875 186.6328125 431.080078125 186.6328125 c 0
 423.729492188 186.6328125 417.770507812 192.590820312 417.770507812 199.94140625 c 0
 417.770507812 207.291015625 423.729492188 213.25 431.080078125 213.25 c 0
 438.4296875 213.25 444.388671875 207.291015625 444.388671875 199.94140625 c 0
547.490234375 233.202148438 m 0
 547.490234375 225.8515625 541.53125 219.893554688 534.181640625 219.893554688 c 0
 526.831054688 219.893554688 520.872070312 225.8515625 520.872070312 233.202148438 c 0
 520.872070312 240.552734375 526.831054688 246.510742188 534.181640625 246.510742188 c 0
 541.53125 246.510742188 547.490234375 240.552734375 547.490234375 233.202148438 c 0
462.774414062 271.599609375 m 0
 462.774414062 264.249023438 456.815429688 258.291015625 449.465820312 258.291015625 c 0
 442.115234375 258.291015625 436.15625 264.249023438 436.15625 271.599609375 c 0
 436.15625 278.94921875 442.115234375 284.908203125 449.465820312 284.908203125 c 0
 456.815429688 284.908203125 462.774414062 278.94921875 462.774414062 271.599609375 c 0
468.40234375 346.942382812 m 0
 468.40234375 339.591796875 462.443359375 333.633789062 455.09375 333.633789062 c 0
 447.743164062 333.633789062 441.784179688 339.591796875 441.784179688 346.942382812 c 0
 441.784179688 354.291992188 447.743164062 360.250976562 455.09375 360.250976562 c 0
 462.443359375 360.250976562 468.40234375 354.291992188 468.40234375 346.942382812 c 0
557.331054688 342.999023438 m 0
 557.331054688 335.6484375 551.372070312 329.690429688 544.022460938 329.690429688 c 0
 536.671875 329.690429688 530.712890625 335.6484375 530.712890625 342.999023438 c 0
 530.712890625 350.348632812 536.671875 356.307617188 544.022460938 356.307617188 c 0
 551.372070312 356.307617188 557.331054688 350.348632812 557.331054688 342.999023438 c 0
440.38671875 451.084960938 m 0
 440.38671875 443.734375 434.427734375 437.776367188 427.078125 437.776367188 c 0
 419.728515625 437.776367188 413.76953125 443.734375 413.76953125 451.084960938 c 0
 413.76953125 458.435546875 419.728515625 464.393554688 427.078125 464.393554688 c 0
 434.427734375 464.393554688 440.38671875 458.435546875 440.38671875 451.084960938 c 0
477.32421875 559.98046875 m 0
 477.32421875 552.630859375 471.365234375 546.671875 464.015625 546.671875 c 0
 456.666015625 546.671875 450.70703125 552.630859375 450.70703125 559.98046875 c 0
 450.70703125 567.331054688 456.666015625 573.2890625 464.015625 573.2890625 c 0
 471.365234375 573.2890625 477.32421875 567.331054688 477.32421875 559.98046875 c 0
386.106445312 559.81640625 m 0
 386.106445312 552.465820312 380.147460938 546.506835938 372.797851562 546.506835938 c 0
 365.447265625 546.506835938 359.48828125 552.465820312 359.48828125 559.81640625 c 0
 359.48828125 567.166015625 365.447265625 573.125 372.797851562 573.125 c 0
 380.147460938 573.125 386.106445312 567.166015625 386.106445312 559.81640625 c 0
363.489257812 623.811523438 m 0
 363.489257812 616.4609375 357.530273438 610.501953125 350.180664062 610.501953125 c 0
 342.830078125 610.501953125 336.87109375 616.4609375 336.87109375 623.811523438 c 0
 336.87109375 631.161132812 342.830078125 637.120117188 350.180664062 637.120117188 c 0
 357.530273438 637.120117188 363.489257812 631.161132812 363.489257812 623.811523438 c 0
437.666992188 676.380859375 m 0
 437.666992188 669.030273438 431.708007812 663.072265625 424.358398438 663.072265625 c 0
 417.008789062 663.072265625 411.049804688 669.030273438 411.049804688 676.380859375 c 0
 411.049804688 683.731445312 417.008789062 689.689453125 424.358398438 689.689453125 c 0
 431.708007812 689.689453125 437.666992188 683.731445312 437.666992188 676.380859375 c 0
289.383789062 734.998046875 m 0
 289.383789062 727.647460938 283.424804688 721.689453125 276.07421875 721.689453125 c 0
 268.724609375 721.689453125 262.765625 727.647460938 262.765625 734.998046875 c 0
 262.765625 742.348632812 268.724609375 748.306640625 276.07421875 748.306640625 c 0
 283.424804688 748.306640625 289.383789062 742.348632812 289.383789062 734.998046875 c 0
289.217773438 654.787109375 m 0
 289.217773438 647.436523438 283.258789062 641.477539062 275.909179688 641.477539062 c 0
 268.55859375 641.477539062 262.599609375 647.436523438 262.599609375 654.787109375 c 0
 262.599609375 662.13671875 268.55859375 668.095703125 275.909179688 668.095703125 c 0
 283.258789062 668.095703125 289.217773438 662.13671875 289.217773438 654.787109375 c 0
210.204101562 621.059570312 m 0
 210.204101562 613.708984375 204.245117188 607.75 196.895507812 607.75 c 0
 189.544921875 607.75 183.5859375 613.708984375 183.5859375 621.059570312 c 0
 183.5859375 628.409179688 189.544921875 634.368164062 196.895507812 634.368164062 c 0
 204.245117188 634.368164062 210.204101562 628.409179688 210.204101562 621.059570312 c 0
152.399414062 689.388671875 m 0
 152.399414062 682.038085938 146.440429688 676.080078125 139.090820312 676.080078125 c 0
 131.740234375 676.080078125 125.78125 682.038085938 125.78125 689.388671875 c 0
 125.78125 696.739257812 131.740234375 702.697265625 139.090820312 702.697265625 c 0
 146.440429688 702.697265625 152.399414062 696.739257812 152.399414062 689.388671875 c 0
94.2724609375 549.975585938 m 0
 94.2724609375 542.625 88.3134765625 536.666992188 80.962890625 536.666992188 c 0
 73.61328125 536.666992188 67.654296875 542.625 67.654296875 549.975585938 c 0
 67.654296875 557.326171875 73.61328125 563.284179688 80.962890625 563.284179688 c 0
 88.3134765625 563.284179688 94.2724609375 557.326171875 94.2724609375 549.975585938 c 0
185.158203125 549.810546875 m 0
 185.158203125 542.459960938 179.19921875 536.500976562 171.849609375 536.500976562 c 0
 164.499023438 536.500976562 158.540039062 542.459960938 158.540039062 549.810546875 c 0
 158.540039062 557.16015625 164.499023438 563.119140625 171.849609375 563.119140625 c 0
 179.19921875 563.119140625 185.158203125 557.16015625 185.158203125 549.810546875 c 0
202.94921875 476.592773438 m 0
 202.94921875 469.2421875 196.990234375 463.283203125 189.640625 463.283203125 c 0
 182.290039062 463.283203125 176.331054688 469.2421875 176.331054688 476.592773438 c 0
 176.331054688 483.942382812 182.290039062 489.901367188 189.640625 489.901367188 c 0
 196.990234375 489.901367188 202.94921875 483.942382812 202.94921875 476.592773438 c 0
135.06640625 410.561523438 m 0
 135.06640625 403.2109375 129.107421875 397.252929688 121.756835938 397.252929688 c 0
 114.407226562 397.252929688 108.448242188 403.2109375 108.448242188 410.561523438 c 0
 108.448242188 417.912109375 114.407226562 423.870117188 121.756835938 423.870117188 c 0
 129.107421875 423.870117188 135.06640625 417.912109375 135.06640625 410.561523438 c 0
259.200195312 405.810546875 m 0
 259.200195312 398.459960938 253.241210938 392.500976562 245.891601562 392.500976562 c 0
 238.541015625 392.500976562 232.58203125 398.459960938 232.58203125 405.810546875 c 0
 232.58203125 413.16015625 238.541015625 419.119140625 245.891601562 419.119140625 c 0
 253.241210938 419.119140625 259.200195312 413.16015625 259.200195312 405.810546875 c 0
177.236328125 358.94921875 m 0
 177.236328125 351.598632812 171.27734375 345.640625 163.926757812 345.640625 c 0
 156.577148438 345.640625 150.618164062 351.598632812 150.618164062 358.94921875 c 0
 150.618164062 366.299804688 156.577148438 372.2578125 163.926757812 372.2578125 c 0
 171.27734375 372.2578125 177.236328125 366.299804688 177.236328125 358.94921875 c 0
312.396484375 345.942382812 m 0
 312.396484375 338.591796875 306.4375 332.633789062 299.087890625 332.633789062 c 0
 291.73828125 332.633789062 285.779296875 338.591796875 285.779296875 345.942382812 c 0
 285.779296875 353.291992188 291.73828125 359.250976562 299.087890625 359.250976562 c 0
 306.4375 359.250976562 312.396484375 353.291992188 312.396484375 345.942382812 c 0
234.26953125 297.916015625 m 0
 234.26953125 290.565429688 228.310546875 284.606445312 220.959960938 284.606445312 c 0
 213.610351562 284.606445312 207.651367188 290.565429688 207.651367188 297.916015625 c 0
 207.651367188 305.265625 213.610351562 311.224609375 220.959960938 311.224609375 c 0
 228.310546875 311.224609375 234.26953125 305.265625 234.26953125 297.916015625 c 0
355.671875 478.719726562 m 0
 355.671875 471.369140625 349.712890625 465.41015625 342.36328125 465.41015625 c 0
 335.012695312 465.41015625 329.053710938 471.369140625 329.053710938 478.719726562 c 0
 329.053710938 486.069335938 335.012695312 492.028320312 342.36328125 492.028320312 c 0
 349.712890625 492.028320312 355.671875 486.069335938 355.671875 478.719726562 c 0
90.9580078125 285.165039062 m 0
 90.9580078125 277.814453125 84.9990234375 271.856445312 77.6484375 271.856445312 c 0
 70.298828125 271.856445312 64.33984375 277.814453125 64.33984375 285.165039062 c 0
 64.33984375 292.515625 70.298828125 298.473632812 77.6484375 298.473632812 c 0
 84.9990234375 298.473632812 90.9580078125 292.515625 90.9580078125 285.165039062 c 0
171.806640625 242.266601562 m 0
 171.806640625 234.916015625 165.846679688 228.95703125 158.497070312 228.95703125 c 0
 151.147460938 228.95703125 145.188476562 234.916015625 145.188476562 242.266601562 c 0
 145.188476562 249.616210938 151.147460938 255.575195312 158.497070312 255.575195312 c 0
 165.846679688 255.575195312 171.806640625 249.616210938 171.806640625 242.266601562 c 0
148.303710938 173.927734375 m 0
 148.303710938 166.577148438 142.344726562 160.618164062 134.994140625 160.618164062 c 0
 127.64453125 160.618164062 121.685546875 166.577148438 121.685546875 173.927734375 c 0
 121.685546875 181.27734375 127.64453125 187.236328125 134.994140625 187.236328125 c 0
 142.344726562 187.236328125 148.303710938 181.27734375 148.303710938 173.927734375 c 0
53.33203125 173.92578125 m 0
 53.33203125 166.576171875 47.373046875 160.6171875 40.0224609375 160.6171875 c 0
 32.6728515625 160.6171875 26.7138671875 166.576171875 26.7138671875 173.92578125 c 0
 26.7138671875 181.276367188 32.6728515625 187.234375 40.0224609375 187.234375 c 0
 47.373046875 187.234375 53.33203125 181.276367188 53.33203125 173.92578125 c 0
106.39453125 40.7666015625 m 0
 106.39453125 33.416015625 100.435546875 27.45703125 93.0849609375 27.45703125 c 0
 85.7353515625 27.45703125 79.7763671875 33.416015625 79.7763671875 40.7666015625 c 0
 79.7763671875 48.1162109375 85.7353515625 54.0751953125 93.0849609375 54.0751953125 c 0
 100.435546875 54.0751953125 106.39453125 48.1162109375 106.39453125 40.7666015625 c 0
182.604492188 93.4736328125 m 0
 182.604492188 86.123046875 176.645507812 80.1640625 169.294921875 80.1640625 c 0
 161.9453125 80.1640625 155.986328125 86.123046875 155.986328125 93.4736328125 c 0
 155.986328125 100.823242188 161.9453125 106.782226562 169.294921875 106.782226562 c 0
 176.645507812 106.782226562 182.604492188 100.823242188 182.604492188 93.4736328125 c 0
515.377929688 -7.9599609375 m 0
 515.377929688 -15.310546875 509.418945312 -21.2685546875 502.068359375 -21.2685546875 c 0
 494.71875 -21.2685546875 488.759765625 -15.310546875 488.759765625 -7.9599609375 c 0
 488.759765625 -0.609375 494.71875 5.3486328125 502.068359375 5.3486328125 c 0
 509.418945312 5.3486328125 515.377929688 -0.609375 515.377929688 -7.9599609375 c 0
580.331054688 49.9990234375 m 0
 580.331054688 42.6484375 574.372070312 36.689453125 567.022460938 36.689453125 c 0
 559.671875 36.689453125 553.712890625 42.6484375 553.712890625 49.9990234375 c 0
 553.712890625 57.3486328125 559.671875 63.3076171875 567.022460938 63.3076171875 c 0
 574.372070312 63.3076171875 580.331054688 57.3486328125 580.331054688 49.9990234375 c 0
EndSplineSet
Validated: 1
Layer: 2
EndChar
StartChar: quotesingle
Encoding: 7 39 146
Width: 239
Flags: HMW
HStem: 482 21G<92 148 92 92> 700 20G<70 169 169 169>
LayerCount: 3
Back
SplineSet
98.2255859375 722.41796875 m 5xe0
 98.2255859375 722.419921875 l 5
 140.473632812 722.419921875 l 5
 170.333984375 692.5546875 l 5
 170.333984375 650.30859375 l 5
 170.333984375 620.4453125 l 5
 149.551757812 530.038085938 l 5
 86.732421875 475.607421875 l 5
 62.322265625 514.389648438 l 5
 104.805664062 548.665039062 l 5
 120.49609375 620.443359375 l 5
 120.49609375 620.443359375 l 5
 98.220703125 620.443359375 l 5
 68.3603515625 650.3125 l 5
 68.3603515625 692.55859375 l 5
 98.2255859375 722.41796875 l 5xe0
EndSplineSet
Fore
SplineSet
75.658203125 514.469726562 m 0
 75.658203125 507.119140625 69.69921875 501.161132812 62.3486328125 501.161132812 c 0
 54.9990234375 501.161132812 49.0400390625 507.119140625 49.0400390625 514.469726562 c 0
 49.0400390625 521.8203125 54.9990234375 527.778320312 62.3486328125 527.778320312 c 0
 69.69921875 527.778320312 75.658203125 521.8203125 75.658203125 514.469726562 c 0
100.068359375 475.6875 m 0
 100.068359375 468.336914062 94.109375 462.37890625 86.7587890625 462.37890625 c 0
 79.4091796875 462.37890625 73.4501953125 468.336914062 73.4501953125 475.6875 c 0
 73.4501953125 483.038085938 79.4091796875 488.99609375 86.7587890625 488.99609375 c 0
 94.109375 488.99609375 100.068359375 483.038085938 100.068359375 475.6875 c 0
162.887695312 530.118164062 m 0
 162.887695312 522.767578125 156.928710938 516.809570312 149.578125 516.809570312 c 0
 142.228515625 516.809570312 136.26953125 522.767578125 136.26953125 530.118164062 c 0
 136.26953125 537.46875 142.228515625 543.426757812 149.578125 543.426757812 c 0
 156.928710938 543.426757812 162.887695312 537.46875 162.887695312 530.118164062 c 0
118.141601562 548.745117188 m 0
 118.141601562 541.39453125 112.182617188 535.436523438 104.83203125 535.436523438 c 0
 97.482421875 535.436523438 91.5234375 541.39453125 91.5234375 548.745117188 c 0
 91.5234375 556.095703125 97.482421875 562.053710938 104.83203125 562.053710938 c 0
 112.182617188 562.053710938 118.141601562 556.095703125 118.141601562 548.745117188 c 0
133.83203125 620.5234375 m 0
 133.83203125 613.172851562 127.873046875 607.21484375 120.522460938 607.21484375 c 0
 113.172851562 607.21484375 107.213867188 613.172851562 107.213867188 620.5234375 c 0
 107.213867188 627.874023438 113.172851562 633.83203125 120.522460938 633.83203125 c 0
 127.873046875 633.83203125 133.83203125 627.874023438 133.83203125 620.5234375 c 0
183.669921875 620.5234375 m 0
 183.669921875 613.172851562 177.7109375 607.21484375 170.360351562 607.21484375 c 0
 163.010742188 607.21484375 157.051757812 613.172851562 157.051757812 620.5234375 c 0
 157.051757812 627.874023438 163.010742188 633.83203125 170.360351562 633.83203125 c 0
 177.7109375 633.83203125 183.669921875 627.874023438 183.669921875 620.5234375 c 0
183.669921875 692.634765625 m 0
 183.669921875 685.284179688 177.7109375 679.326171875 170.360351562 679.326171875 c 0
 163.010742188 679.326171875 157.051757812 685.284179688 157.051757812 692.634765625 c 0
 157.051757812 699.985351562 163.010742188 705.943359375 170.360351562 705.943359375 c 0
 177.7109375 705.943359375 183.669921875 699.985351562 183.669921875 692.634765625 c 0
153.809570312 722.5 m 0
 153.809570312 715.149414062 147.850585938 709.19140625 140.5 709.19140625 c 0
 133.150390625 709.19140625 127.19140625 715.149414062 127.19140625 722.5 c 0
 127.19140625 729.850585938 133.150390625 735.80859375 140.5 735.80859375 c 0
 147.850585938 735.80859375 153.809570312 729.850585938 153.809570312 722.5 c 0
111.563476562 722.5 m 0
 111.563476562 715.149414062 105.604492188 709.19140625 98.25390625 709.19140625 c 0
 90.904296875 709.19140625 84.9453125 715.149414062 84.9453125 722.5 c 0
 84.9453125 729.850585938 90.904296875 735.80859375 98.25390625 735.80859375 c 0
 105.604492188 735.80859375 111.563476562 729.850585938 111.563476562 722.5 c 0
81.6962890625 692.638671875 m 0
 81.6962890625 685.288085938 75.7373046875 679.330078125 68.38671875 679.330078125 c 0
 61.037109375 679.330078125 55.078125 685.288085938 55.078125 692.638671875 c 0
 55.078125 699.989257812 61.037109375 705.947265625 68.38671875 705.947265625 c 0
 75.7373046875 705.947265625 81.6962890625 699.989257812 81.6962890625 692.638671875 c 0
81.6962890625 650.392578125 m 0
 81.6962890625 643.041992188 75.7373046875 637.083984375 68.38671875 637.083984375 c 0
 61.037109375 637.083984375 55.078125 643.041992188 55.078125 650.392578125 c 0
 55.078125 657.743164062 61.037109375 663.701171875 68.38671875 663.701171875 c 0
 75.7373046875 663.701171875 81.6962890625 657.743164062 81.6962890625 650.392578125 c 0
111.556640625 620.5234375 m 0
 111.556640625 613.172851562 105.59765625 607.21484375 98.2470703125 607.21484375 c 0
 90.8974609375 607.21484375 84.9384765625 613.172851562 84.9384765625 620.5234375 c 0
 84.9384765625 627.874023438 90.8974609375 633.83203125 98.2470703125 633.83203125 c 0
 105.59765625 633.83203125 111.556640625 627.874023438 111.556640625 620.5234375 c 0
EndSplineSet
Validated: 5
Layer: 2
EndChar
StartChar: parenleft
Encoding: 8 40 185
Width: 311
Flags: HMW
HStem: -100 21G<228 291 228 228> 800 20G<228 291 291 291>
VStem: 50 95<275.5 444.5>
LayerCount: 3
Back
SplineSet
224.30859375 829.200195312 m 5
 274.26953125 800.640625 l 5
 177.436523438 606.458007812 l 5
 139.685546875 359.985351562 l 5
 177.436523438 113.548828125 l 5
 274.26953125 -80.6396484375 l 5
 224.30859375 -109.228515625 l 5
 93.3662109375 108.15625 l 5
 42.73046875 359.985351562 l 5
 93.3662109375 611.875 l 5
 224.30859375 829.200195312 l 5
EndSplineSet
Fore
SplineSet
287.625 800.783203125 m 0
 287.625 793.432617188 281.666015625 787.474609375 274.31640625 787.474609375 c 0
 266.966796875 787.474609375 261.0078125 793.432617188 261.0078125 800.783203125 c 0
 261.0078125 808.133789062 266.966796875 814.091796875 274.31640625 814.091796875 c 0
 281.666015625 814.091796875 287.625 808.133789062 287.625 800.783203125 c 0
237.6640625 829.342773438 m 0
 237.6640625 821.9921875 231.705078125 816.034179688 224.35546875 816.034179688 c 0
 217.005859375 816.034179688 211.046875 821.9921875 211.046875 829.342773438 c 0
 211.046875 836.693359375 217.005859375 842.651367188 224.35546875 842.651367188 c 0
 231.705078125 842.651367188 237.6640625 836.693359375 237.6640625 829.342773438 c 0
190.791992188 606.600585938 m 0
 190.791992188 599.25 184.833007812 593.291015625 177.483398438 593.291015625 c 0
 170.133789062 593.291015625 164.174804688 599.25 164.174804688 606.600585938 c 0
 164.174804688 613.950195312 170.133789062 619.909179688 177.483398438 619.909179688 c 0
 184.833007812 619.909179688 190.791992188 613.950195312 190.791992188 606.600585938 c 0
106.72265625 612.017578125 m 0
 106.72265625 604.666992188 100.763671875 598.708007812 93.4130859375 598.708007812 c 0
 86.0634765625 598.708007812 80.1044921875 604.666992188 80.1044921875 612.017578125 c 0
 80.1044921875 619.3671875 86.0634765625 625.326171875 93.4130859375 625.326171875 c 0
 100.763671875 625.326171875 106.72265625 619.3671875 106.72265625 612.017578125 c 0
56.0869140625 360.126953125 m 0
 56.0869140625 352.77734375 50.1279296875 346.818359375 42.77734375 346.818359375 c 0
 35.427734375 346.818359375 29.46875 352.77734375 29.46875 360.126953125 c 0
 29.46875 367.477539062 35.427734375 373.435546875 42.77734375 373.435546875 c 0
 50.1279296875 373.435546875 56.0869140625 367.477539062 56.0869140625 360.126953125 c 0
153.041015625 360.126953125 m 0
 153.041015625 352.77734375 147.08203125 346.818359375 139.732421875 346.818359375 c 0
 132.3828125 346.818359375 126.423828125 352.77734375 126.423828125 360.126953125 c 0
 126.423828125 367.477539062 132.3828125 373.435546875 139.732421875 373.435546875 c 0
 147.08203125 373.435546875 153.041015625 367.477539062 153.041015625 360.126953125 c 0
190.791992188 113.690429688 m 0
 190.791992188 106.33984375 184.833007812 100.381835938 177.483398438 100.381835938 c 0
 170.133789062 100.381835938 164.174804688 106.33984375 164.174804688 113.690429688 c 0
 164.174804688 121.040039062 170.133789062 126.999023438 177.483398438 126.999023438 c 0
 184.833007812 126.999023438 190.791992188 121.040039062 190.791992188 113.690429688 c 0
106.72265625 108.297851562 m 0
 106.72265625 100.948242188 100.763671875 94.9892578125 93.4130859375 94.9892578125 c 0
 86.0634765625 94.9892578125 80.1044921875 100.948242188 80.1044921875 108.297851562 c 0
 80.1044921875 115.6484375 86.0634765625 121.606445312 93.4130859375 121.606445312 c 0
 100.763671875 121.606445312 106.72265625 115.6484375 106.72265625 108.297851562 c 0
237.6640625 -109.086914062 m 0
 237.6640625 -116.4375 231.705078125 -122.395507812 224.35546875 -122.395507812 c 0
 217.005859375 -122.395507812 211.046875 -116.4375 211.046875 -109.086914062 c 0
 211.046875 -101.736328125 217.005859375 -95.7783203125 224.35546875 -95.7783203125 c 0
 231.705078125 -95.7783203125 237.6640625 -101.736328125 237.6640625 -109.086914062 c 0
287.625 -80.498046875 m 0
 287.625 -87.84765625 281.666015625 -93.806640625 274.31640625 -93.806640625 c 0
 266.966796875 -93.806640625 261.0078125 -87.84765625 261.0078125 -80.498046875 c 0
 261.0078125 -73.1474609375 266.966796875 -67.189453125 274.31640625 -67.189453125 c 0
 281.666015625 -67.189453125 287.625 -73.1474609375 287.625 -80.498046875 c 0
EndSplineSet
Validated: 1
Layer: 2
EndChar
StartChar: parenright
Encoding: 9 41 186
Width: 311
Flags: HMW
HStem: -100 21G<20 83 20 20> 800 20G<20 83 83 83>
VStem: 166 95<275.5 444.5 275.5 450.5>
LayerCount: 3
Back
SplineSet
81.755859375 -109.228515625 m 5
 30.7197265625 -82.6796875 l 5
 128.596679688 113.513671875 l 5
 166.380859375 359.985351562 l 5
 128.596679688 606.458007812 l 5
 30.7197265625 802.680664062 l 5
 81.755859375 829.200195312 l 5
 212.731445312 611.815429688 l 5
 263.334960938 359.985351562 l 5
 212.731445312 108.15625 l 5
 81.755859375 -109.228515625 l 5
EndSplineSet
Fore
SplineSet
18.125 799.533203125 m 0
 18.125 806.883789062 24.083984375 812.841796875 31.43359375 812.841796875 c 0
 38.7841796875 812.841796875 44.7431640625 806.883789062 44.7431640625 799.533203125 c 0
 44.7431640625 792.182617188 38.7841796875 786.224609375 31.43359375 786.224609375 c 0
 24.083984375 786.224609375 18.125 792.182617188 18.125 799.533203125 c 0
68.0859375 828.092773438 m 0
 68.0859375 835.443359375 74.044921875 841.401367188 81.39453125 841.401367188 c 0
 88.7451171875 841.401367188 94.7041015625 835.443359375 94.7041015625 828.092773438 c 0
 94.7041015625 820.7421875 88.7451171875 814.784179688 81.39453125 814.784179688 c 0
 74.044921875 814.784179688 68.0859375 820.7421875 68.0859375 828.092773438 c 0
114.958007812 605.350585938 m 0
 114.958007812 612.700195312 120.916992188 618.659179688 128.266601562 618.659179688 c 0
 135.6171875 618.659179688 141.576171875 612.700195312 141.576171875 605.350585938 c 0
 141.576171875 598 135.6171875 592.041015625 128.266601562 592.041015625 c 0
 120.916992188 592.041015625 114.958007812 598 114.958007812 605.350585938 c 0
199.028320312 610.767578125 m 0
 199.028320312 618.1171875 204.987304688 624.076171875 212.336914062 624.076171875 c 0
 219.686523438 624.076171875 225.645507812 618.1171875 225.645507812 610.767578125 c 0
 225.645507812 603.416992188 219.686523438 597.458007812 212.336914062 597.458007812 c 0
 204.987304688 597.458007812 199.028320312 603.416992188 199.028320312 610.767578125 c 0
249.6640625 358.876953125 m 0
 249.6640625 366.227539062 255.623046875 372.185546875 262.97265625 372.185546875 c 0
 270.322265625 372.185546875 276.28125 366.227539062 276.28125 358.876953125 c 0
 276.28125 351.52734375 270.322265625 345.568359375 262.97265625 345.568359375 c 0
 255.623046875 345.568359375 249.6640625 351.52734375 249.6640625 358.876953125 c 0
152.708984375 358.876953125 m 0
 152.708984375 366.227539062 158.66796875 372.185546875 166.017578125 372.185546875 c 0
 173.368164062 372.185546875 179.327148438 366.227539062 179.327148438 358.876953125 c 0
 179.327148438 351.52734375 173.368164062 345.568359375 166.017578125 345.568359375 c 0
 158.66796875 345.568359375 152.708984375 351.52734375 152.708984375 358.876953125 c 0
114.958007812 112.440429688 m 0
 114.958007812 119.790039062 120.916992188 125.749023438 128.266601562 125.749023438 c 0
 135.6171875 125.749023438 141.576171875 119.790039062 141.576171875 112.440429688 c 0
 141.576171875 105.08984375 135.6171875 99.1318359375 128.266601562 99.1318359375 c 0
 120.916992188 99.1318359375 114.958007812 105.08984375 114.958007812 112.440429688 c 0
199.028320312 107.047851562 m 0
 199.028320312 114.3984375 204.987304688 120.356445312 212.336914062 120.356445312 c 0
 219.686523438 120.356445312 225.645507812 114.3984375 225.645507812 107.047851562 c 0
 225.645507812 99.6982421875 219.686523438 93.7392578125 212.336914062 93.7392578125 c 0
 204.987304688 93.7392578125 199.028320312 99.6982421875 199.028320312 107.047851562 c 0
68.0859375 -110.336914062 m 0
 68.0859375 -102.986328125 74.044921875 -97.0283203125 81.39453125 -97.0283203125 c 0
 88.7451171875 -97.0283203125 94.7041015625 -102.986328125 94.7041015625 -110.336914062 c 0
 94.7041015625 -117.6875 88.7451171875 -123.645507812 81.39453125 -123.645507812 c 0
 74.044921875 -123.645507812 68.0859375 -117.6875 68.0859375 -110.336914062 c 0
18.125 -81.748046875 m 0
 18.125 -74.3974609375 24.083984375 -68.439453125 31.43359375 -68.439453125 c 0
 38.7841796875 -68.439453125 44.7431640625 -74.3974609375 44.7431640625 -81.748046875 c 0
 44.7431640625 -89.09765625 38.7841796875 -95.056640625 31.43359375 -95.056640625 c 0
 24.083984375 -95.056640625 18.125 -89.09765625 18.125 -81.748046875 c 0
51 -93.51953125 m 1024
18.125 799.533203125 m 0
 18.125 806.883789062 24.083984375 812.841796875 31.43359375 812.841796875 c 0
 38.7841796875 812.841796875 44.7431640625 806.883789062 44.7431640625 799.533203125 c 0
 44.7431640625 792.182617188 38.7841796875 786.224609375 31.43359375 786.224609375 c 0
 24.083984375 786.224609375 18.125 792.182617188 18.125 799.533203125 c 0
68.0859375 828.092773438 m 0
 68.0859375 835.443359375 74.044921875 841.401367188 81.39453125 841.401367188 c 0
 88.7451171875 841.401367188 94.7041015625 835.443359375 94.7041015625 828.092773438 c 0
 94.7041015625 820.7421875 88.7451171875 814.784179688 81.39453125 814.784179688 c 0
 74.044921875 814.784179688 68.0859375 820.7421875 68.0859375 828.092773438 c 0
114.958007812 605.350585938 m 0
 114.958007812 612.700195312 120.916992188 618.659179688 128.266601562 618.659179688 c 0
 135.6171875 618.659179688 141.576171875 612.700195312 141.576171875 605.350585938 c 0
 141.576171875 598 135.6171875 592.041015625 128.266601562 592.041015625 c 0
 120.916992188 592.041015625 114.958007812 598 114.958007812 605.350585938 c 0
199.028320312 610.767578125 m 0
 199.028320312 618.1171875 204.987304688 624.076171875 212.336914062 624.076171875 c 0
 219.686523438 624.076171875 225.645507812 618.1171875 225.645507812 610.767578125 c 0
 225.645507812 603.416992188 219.686523438 597.458007812 212.336914062 597.458007812 c 0
 204.987304688 597.458007812 199.028320312 603.416992188 199.028320312 610.767578125 c 0
249.6640625 358.876953125 m 0
 249.6640625 366.227539062 255.623046875 372.185546875 262.97265625 372.185546875 c 0
 270.322265625 372.185546875 276.28125 366.227539062 276.28125 358.876953125 c 0
 276.28125 351.52734375 270.322265625 345.568359375 262.97265625 345.568359375 c 0
 255.623046875 345.568359375 249.6640625 351.52734375 249.6640625 358.876953125 c 0
152.708984375 358.876953125 m 0
 152.708984375 366.227539062 158.66796875 372.185546875 166.017578125 372.185546875 c 0
 173.368164062 372.185546875 179.327148438 366.227539062 179.327148438 358.876953125 c 0
 179.327148438 351.52734375 173.368164062 345.568359375 166.017578125 345.568359375 c 0
 158.66796875 345.568359375 152.708984375 351.52734375 152.708984375 358.876953125 c 0
114.958007812 112.440429688 m 0
 114.958007812 119.790039062 120.916992188 125.749023438 128.266601562 125.749023438 c 0
 135.6171875 125.749023438 141.576171875 119.790039062 141.576171875 112.440429688 c 0
 141.576171875 105.08984375 135.6171875 99.1318359375 128.266601562 99.1318359375 c 0
 120.916992188 99.1318359375 114.958007812 105.08984375 114.958007812 112.440429688 c 0
199.028320312 107.047851562 m 0
 199.028320312 114.3984375 204.987304688 120.356445312 212.336914062 120.356445312 c 0
 219.686523438 120.356445312 225.645507812 114.3984375 225.645507812 107.047851562 c 0
 225.645507812 99.6982421875 219.686523438 93.7392578125 212.336914062 93.7392578125 c 0
 204.987304688 93.7392578125 199.028320312 99.6982421875 199.028320312 107.047851562 c 0
68.0859375 -110.336914062 m 0
 68.0859375 -102.986328125 74.044921875 -97.0283203125 81.39453125 -97.0283203125 c 0
 88.7451171875 -97.0283203125 94.7041015625 -102.986328125 94.7041015625 -110.336914062 c 0
 94.7041015625 -117.6875 88.7451171875 -123.645507812 81.39453125 -123.645507812 c 0
 74.044921875 -123.645507812 68.0859375 -117.6875 68.0859375 -110.336914062 c 0
18.125 -81.748046875 m 0
 18.125 -74.3974609375 24.083984375 -68.439453125 31.43359375 -68.439453125 c 0
 38.7841796875 -68.439453125 44.7431640625 -74.3974609375 44.7431640625 -81.748046875 c 0
 44.7431640625 -89.09765625 38.7841796875 -95.056640625 31.43359375 -95.056640625 c 0
 24.083984375 -95.056640625 18.125 -89.09765625 18.125 -81.748046875 c 0
EndSplineSet
Validated: 5
Layer: 2
EndChar
StartChar: asterisk
Encoding: 10 42 191
Width: 417
Flags: HMW
HStem: 423 21G<269 269> 715 20G<169 251 251 251>
LayerCount: 3
Back
SplineSet
250.830078125 738.120117188 m 5
 238.58984375 617.759765625 l 5
 349.76953125 664.6796875 l 5
 375.26953125 585.120117188 l 5
 256.950195312 559.620117188 l 5
 336.509765625 468.83984375 l 5
 269.190429688 419.879882812 l 5
 207.990234375 523.919921875 l 5
 144.75 420.900390625 l 5
 77.4296875 469.860351562 l 5
 156.990234375 559.620117188 l 5
 41.73046875 587.16015625 l 5
 67.23046875 666.719726562 l 5
 177.389648438 617.759765625 l 5
 167.190429688 738.120117188 l 5
 250.830078125 738.120117188 l 5
EndSplineSet
Fore
SplineSet
143.724609375 559.624023438 m 0
 143.724609375 566.974609375 149.68359375 572.932617188 157.034179688 572.932617188 c 0
 164.383789062 572.932617188 170.342773438 566.974609375 170.342773438 559.624023438 c 0
 170.342773438 552.274414062 164.383789062 546.315429688 157.034179688 546.315429688 c 0
 149.68359375 546.315429688 143.724609375 552.274414062 143.724609375 559.624023438 c 0
194.724609375 523.924804688 m 0
 194.724609375 531.274414062 200.68359375 537.233398438 208.034179688 537.233398438 c 0
 215.383789062 537.233398438 221.342773438 531.274414062 221.342773438 523.924804688 c 0
 221.342773438 516.57421875 215.383789062 510.616210938 208.034179688 510.616210938 c 0
 200.68359375 510.616210938 194.724609375 516.57421875 194.724609375 523.924804688 c 0
243.684570312 559.625 m 0
 243.684570312 566.975585938 249.643554688 572.93359375 256.994140625 572.93359375 c 0
 264.34375 572.93359375 270.302734375 566.975585938 270.302734375 559.625 c 0
 270.302734375 552.274414062 264.34375 546.31640625 256.994140625 546.31640625 c 0
 249.643554688 546.31640625 243.684570312 552.274414062 243.684570312 559.625 c 0
225.32421875 617.764648438 m 0
 225.32421875 625.115234375 231.283203125 631.073242188 238.6328125 631.073242188 c 0
 245.982421875 631.073242188 251.94140625 625.115234375 251.94140625 617.764648438 c 0
 251.94140625 610.4140625 245.982421875 604.456054688 238.6328125 604.456054688 c 0
 231.283203125 604.456054688 225.32421875 610.4140625 225.32421875 617.764648438 c 0
164.124023438 617.763671875 m 0
 164.124023438 625.114257812 170.083007812 631.072265625 177.432617188 631.072265625 c 0
 184.783203125 631.072265625 190.7421875 625.114257812 190.7421875 617.763671875 c 0
 190.7421875 610.4140625 184.783203125 604.455078125 177.432617188 604.455078125 c 0
 170.083007812 604.455078125 164.124023438 610.4140625 164.124023438 617.763671875 c 0
153.924804688 738.124023438 m 0
 153.924804688 745.474609375 159.883789062 751.432617188 167.233398438 751.432617188 c 0
 174.583984375 751.432617188 180.54296875 745.474609375 180.54296875 738.124023438 c 0
 180.54296875 730.7734375 174.583984375 724.815429688 167.233398438 724.815429688 c 0
 159.883789062 724.815429688 153.924804688 730.7734375 153.924804688 738.124023438 c 0
237.564453125 738.124023438 m 0
 237.564453125 745.474609375 243.5234375 751.432617188 250.873046875 751.432617188 c 0
 258.223632812 751.432617188 264.182617188 745.474609375 264.182617188 738.124023438 c 0
 264.182617188 730.7734375 258.223632812 724.815429688 250.873046875 724.815429688 c 0
 243.5234375 724.815429688 237.564453125 730.7734375 237.564453125 738.124023438 c 0
336.50390625 664.684570312 m 0
 336.50390625 672.03515625 342.462890625 677.993164062 349.8125 677.993164062 c 0
 357.163085938 677.993164062 363.122070312 672.03515625 363.122070312 664.684570312 c 0
 363.122070312 657.333984375 357.163085938 651.375976562 349.8125 651.375976562 c 0
 342.462890625 651.375976562 336.50390625 657.333984375 336.50390625 664.684570312 c 0
362.00390625 585.125 m 0
 362.00390625 592.475585938 367.962890625 598.43359375 375.3125 598.43359375 c 0
 382.663085938 598.43359375 388.622070312 592.475585938 388.622070312 585.125 c 0
 388.622070312 577.774414062 382.663085938 571.81640625 375.3125 571.81640625 c 0
 367.962890625 571.81640625 362.00390625 577.774414062 362.00390625 585.125 c 0
53.96484375 666.723632812 m 0
 53.96484375 674.07421875 59.923828125 680.032226562 67.2734375 680.032226562 c 0
 74.6240234375 680.032226562 80.5830078125 674.07421875 80.5830078125 666.723632812 c 0
 80.5830078125 659.374023438 74.6240234375 653.415039062 67.2734375 653.415039062 c 0
 59.923828125 653.415039062 53.96484375 659.374023438 53.96484375 666.723632812 c 0
28.46484375 587.1640625 m 0
 28.46484375 594.514648438 34.423828125 600.47265625 41.7734375 600.47265625 c 0
 49.1240234375 600.47265625 55.0830078125 594.514648438 55.0830078125 587.1640625 c 0
 55.0830078125 579.814453125 49.1240234375 573.85546875 41.7734375 573.85546875 c 0
 34.423828125 573.85546875 28.46484375 579.814453125 28.46484375 587.1640625 c 0
64.1640625 469.864257812 m 0
 64.1640625 477.21484375 70.123046875 483.172851562 77.4736328125 483.172851562 c 0
 84.8232421875 483.172851562 90.7822265625 477.21484375 90.7822265625 469.864257812 c 0
 90.7822265625 462.514648438 84.8232421875 456.555664062 77.4736328125 456.555664062 c 0
 70.123046875 456.555664062 64.1640625 462.514648438 64.1640625 469.864257812 c 0
131.484375 420.904296875 m 0
 131.484375 428.254882812 137.443359375 434.212890625 144.793945312 434.212890625 c 0
 152.143554688 434.212890625 158.102539062 428.254882812 158.102539062 420.904296875 c 0
 158.102539062 413.5546875 152.143554688 407.595703125 144.793945312 407.595703125 c 0
 137.443359375 407.595703125 131.484375 413.5546875 131.484375 420.904296875 c 0
255.924804688 419.884765625 m 0
 255.924804688 427.234375 261.883789062 433.193359375 269.234375 433.193359375 c 0
 276.583984375 433.193359375 282.54296875 427.234375 282.54296875 419.884765625 c 0
 282.54296875 412.534179688 276.583984375 406.576171875 269.234375 406.576171875 c 0
 261.883789062 406.576171875 255.924804688 412.534179688 255.924804688 419.884765625 c 0
323.244140625 468.844726562 m 0
 323.244140625 476.194335938 329.203125 482.153320312 336.553710938 482.153320312 c 0
 343.903320312 482.153320312 349.862304688 476.194335938 349.862304688 468.844726562 c 0
 349.862304688 461.494140625 343.903320312 455.536132812 336.553710938 455.536132812 c 0
 329.203125 455.536132812 323.244140625 461.494140625 323.244140625 468.844726562 c 0
EndSplineSet
Validated: 1
Layer: 2
EndChar
StartChar: plus
Encoding: 11 43 143
Width: 556
Flags: HMW
HStem: 114 21G<240 315 240 240> 325 75<50 240 50 240 315 506> 590 20G<240 315 315 315>
VStem: 240 75<114 325 114 325 400 610>
LayerCount: 3
Back
SplineSet
315.740234375 324.259765625 m 5
 315.740234375 109.040039062 l 5
 239.240234375 109.040039062 l 5
 239.240234375 324.259765625 l 5
 45.4404296875 324.259765625 l 5
 45.4404296875 400.759765625 l 5
 239.240234375 400.759765625 l 5
 239.240234375 614.959960938 l 5
 315.740234375 614.959960938 l 5
 315.740234375 400.759765625 l 5
 510.559570312 400.759765625 l 5
 510.559570312 324.259765625 l 5
 315.740234375 324.259765625 l 5
EndSplineSet
Fore
SplineSet
32.140625 324.346679688 m 0
 32.140625 331.697265625 38.099609375 337.655273438 45.44921875 337.655273438 c 0
 52.7998046875 337.655273438 58.7587890625 331.697265625 58.7587890625 324.346679688 c 0
 58.7587890625 316.99609375 52.7998046875 311.038085938 45.44921875 311.038085938 c 0
 38.099609375 311.038085938 32.140625 316.99609375 32.140625 324.346679688 c 0
32.140625 400.846679688 m 0
 32.140625 408.197265625 38.099609375 414.155273438 45.44921875 414.155273438 c 0
 52.7998046875 414.155273438 58.7587890625 408.197265625 58.7587890625 400.846679688 c 0
 58.7587890625 393.49609375 52.7998046875 387.538085938 45.44921875 387.538085938 c 0
 38.099609375 387.538085938 32.140625 393.49609375 32.140625 400.846679688 c 0
225.940429688 324.346679688 m 0
 225.940429688 331.697265625 231.899414062 337.655273438 239.25 337.655273438 c 0
 246.599609375 337.655273438 252.55859375 331.697265625 252.55859375 324.346679688 c 0
 252.55859375 316.99609375 246.599609375 311.038085938 239.25 311.038085938 c 0
 231.899414062 311.038085938 225.940429688 316.99609375 225.940429688 324.346679688 c 0
225.940429688 400.846679688 m 0
 225.940429688 408.197265625 231.899414062 414.155273438 239.25 414.155273438 c 0
 246.599609375 414.155273438 252.55859375 408.197265625 252.55859375 400.846679688 c 0
 252.55859375 393.49609375 246.599609375 387.538085938 239.25 387.538085938 c 0
 231.899414062 387.538085938 225.940429688 393.49609375 225.940429688 400.846679688 c 0
225.940429688 109.126953125 m 0
 225.940429688 116.477539062 231.899414062 122.435546875 239.25 122.435546875 c 0
 246.599609375 122.435546875 252.55859375 116.477539062 252.55859375 109.126953125 c 0
 252.55859375 101.776367188 246.599609375 95.818359375 239.25 95.818359375 c 0
 231.899414062 95.818359375 225.940429688 101.776367188 225.940429688 109.126953125 c 0
225.940429688 615.046875 m 0
 225.940429688 622.397460938 231.899414062 628.35546875 239.25 628.35546875 c 0
 246.599609375 628.35546875 252.55859375 622.397460938 252.55859375 615.046875 c 0
 252.55859375 607.696289062 246.599609375 601.73828125 239.25 601.73828125 c 0
 231.899414062 601.73828125 225.940429688 607.696289062 225.940429688 615.046875 c 0
522.858398438 324.346679688 m 0
 522.858398438 316.99609375 516.899414062 311.038085938 509.549804688 311.038085938 c 0
 502.19921875 311.038085938 496.240234375 316.99609375 496.240234375 324.346679688 c 0
 496.240234375 331.697265625 502.19921875 337.655273438 509.549804688 337.655273438 c 0
 516.899414062 337.655273438 522.858398438 331.697265625 522.858398438 324.346679688 c 0
522.858398438 400.846679688 m 0
 522.858398438 393.49609375 516.899414062 387.538085938 509.549804688 387.538085938 c 0
 502.19921875 387.538085938 496.240234375 393.49609375 496.240234375 400.846679688 c 0
 496.240234375 408.197265625 502.19921875 414.155273438 509.549804688 414.155273438 c 0
 516.899414062 414.155273438 522.858398438 408.197265625 522.858398438 400.846679688 c 0
329.05859375 324.346679688 m 0
 329.05859375 316.99609375 323.099609375 311.038085938 315.75 311.038085938 c 0
 308.399414062 311.038085938 302.440429688 316.99609375 302.440429688 324.346679688 c 0
 302.440429688 331.697265625 308.399414062 337.655273438 315.75 337.655273438 c 0
 323.099609375 337.655273438 329.05859375 331.697265625 329.05859375 324.346679688 c 0
329.05859375 400.846679688 m 0
 329.05859375 393.49609375 323.099609375 387.538085938 315.75 387.538085938 c 0
 308.399414062 387.538085938 302.440429688 393.49609375 302.440429688 400.846679688 c 0
 302.440429688 408.197265625 308.399414062 414.155273438 315.75 414.155273438 c 0
 323.099609375 414.155273438 329.05859375 408.197265625 329.05859375 400.846679688 c 0
329.05859375 109.126953125 m 0
 329.05859375 101.776367188 323.099609375 95.818359375 315.75 95.818359375 c 0
 308.399414062 95.818359375 302.440429688 101.776367188 302.440429688 109.126953125 c 0
 302.440429688 116.477539062 308.399414062 122.435546875 315.75 122.435546875 c 0
 323.099609375 122.435546875 329.05859375 116.477539062 329.05859375 109.126953125 c 0
329.05859375 615.046875 m 0
 329.05859375 607.696289062 323.099609375 601.73828125 315.75 601.73828125 c 0
 308.399414062 601.73828125 302.440429688 607.696289062 302.440429688 615.046875 c 0
 302.440429688 622.397460938 308.399414062 628.35546875 315.75 628.35546875 c 0
 323.099609375 628.35546875 329.05859375 622.397460938 329.05859375 615.046875 c 0
EndSplineSet
Validated: 1
Layer: 2
EndChar
StartChar: comma
Encoding: 12 44 126
Width: 246
Flags: HMW
HStem: -142 21G<94 94> 0 21G<76 127 76 76 176 176> 80 20G<76 176 176 176>
VStem: 76 100<0 100> 127 49<-32 0>
LayerCount: 3
Back
SplineSet
104.844726562 102.419921875 m 1
 104.844726562 102.421875 l 1
 147.092773438 102.421875 l 1
 176.953125 72.556640625 l 1
 176.953125 30.310546875 l 1
 176.953125 0.447265625 l 1
 156.170898438 -89.9599609375 l 1
 93.3515625 -144.390625 l 1
 68.94140625 -105.608398438 l 1
 111.424804688 -71.3330078125 l 1
 127.115234375 0.4453125 l 1
 127.115234375 0.4453125 l 1
 104.83984375 0.4453125 l 1
 74.9794921875 30.314453125 l 1
 74.9794921875 72.560546875 l 1
 104.844726562 102.419921875 l 1
EndSplineSet
Fore
SplineSet
82.158203125 -105.530273438 m 4xe0
 82.158203125 -112.880859375 76.19921875 -118.838867188 68.8486328125 -118.838867188 c 4
 61.4990234375 -118.838867188 55.5400390625 -112.880859375 55.5400390625 -105.530273438 c 4
 55.5400390625 -98.1796875 61.4990234375 -92.2216796875 68.8486328125 -92.2216796875 c 4
 76.19921875 -92.2216796875 82.158203125 -98.1796875 82.158203125 -105.530273438 c 4xe0
106.568359375 -144.3125 m 4
 106.568359375 -151.663085938 100.609375 -157.62109375 93.2587890625 -157.62109375 c 4
 85.9091796875 -157.62109375 79.9501953125 -151.663085938 79.9501953125 -144.3125 c 4
 79.9501953125 -136.961914062 85.9091796875 -131.00390625 93.2587890625 -131.00390625 c 4
 100.609375 -131.00390625 106.568359375 -136.961914062 106.568359375 -144.3125 c 4
169.387695312 -89.8818359375 m 4
 169.387695312 -97.232421875 163.428710938 -103.190429688 156.078125 -103.190429688 c 4
 148.728515625 -103.190429688 142.76953125 -97.232421875 142.76953125 -89.8818359375 c 4
 142.76953125 -82.53125 148.728515625 -76.5732421875 156.078125 -76.5732421875 c 4
 163.428710938 -76.5732421875 169.387695312 -82.53125 169.387695312 -89.8818359375 c 4
124.641601562 -71.2548828125 m 4
 124.641601562 -78.60546875 118.682617188 -84.5634765625 111.33203125 -84.5634765625 c 4
 103.982421875 -84.5634765625 98.0234375 -78.60546875 98.0234375 -71.2548828125 c 4
 98.0234375 -63.904296875 103.982421875 -57.9462890625 111.33203125 -57.9462890625 c 4
 118.682617188 -57.9462890625 124.641601562 -63.904296875 124.641601562 -71.2548828125 c 4
140.33203125 0.5234375 m 4
 140.33203125 -6.8271484375 134.373046875 -12.78515625 127.022460938 -12.78515625 c 4
 119.672851562 -12.78515625 113.713867188 -6.8271484375 113.713867188 0.5234375 c 4
 113.713867188 7.8740234375 119.672851562 13.83203125 127.022460938 13.83203125 c 4
 134.373046875 13.83203125 140.33203125 7.8740234375 140.33203125 0.5234375 c 4
190.169921875 0.5234375 m 4
 190.169921875 -6.8271484375 184.2109375 -12.78515625 176.860351562 -12.78515625 c 4
 169.510742188 -12.78515625 163.551757812 -6.8271484375 163.551757812 0.5234375 c 4
 163.551757812 7.8740234375 169.510742188 13.83203125 176.860351562 13.83203125 c 4
 184.2109375 13.83203125 190.169921875 7.8740234375 190.169921875 0.5234375 c 4
190.169921875 72.634765625 m 4
 190.169921875 65.2841796875 184.2109375 59.326171875 176.860351562 59.326171875 c 4
 169.510742188 59.326171875 163.551757812 65.2841796875 163.551757812 72.634765625 c 4
 163.551757812 79.9853515625 169.510742188 85.943359375 176.860351562 85.943359375 c 4
 184.2109375 85.943359375 190.169921875 79.9853515625 190.169921875 72.634765625 c 4
160.309570312 102.5 m 4
 160.309570312 95.1494140625 154.350585938 89.19140625 147 89.19140625 c 4
 139.650390625 89.19140625 133.69140625 95.1494140625 133.69140625 102.5 c 4
 133.69140625 109.850585938 139.650390625 115.80859375 147 115.80859375 c 4
 154.350585938 115.80859375 160.309570312 109.850585938 160.309570312 102.5 c 4
118.063476562 102.5 m 4
 118.063476562 95.1494140625 112.104492188 89.19140625 104.75390625 89.19140625 c 4
 97.404296875 89.19140625 91.4453125 95.1494140625 91.4453125 102.5 c 4
 91.4453125 109.850585938 97.404296875 115.80859375 104.75390625 115.80859375 c 4
 112.104492188 115.80859375 118.063476562 109.850585938 118.063476562 102.5 c 4
88.1962890625 72.638671875 m 4
 88.1962890625 65.2880859375 82.2373046875 59.330078125 74.88671875 59.330078125 c 4
 67.537109375 59.330078125 61.578125 65.2880859375 61.578125 72.638671875 c 4
 61.578125 79.9892578125 67.537109375 85.947265625 74.88671875 85.947265625 c 4
 82.2373046875 85.947265625 88.1962890625 79.9892578125 88.1962890625 72.638671875 c 4
88.1962890625 30.392578125 m 4
 88.1962890625 23.0419921875 82.2373046875 17.083984375 74.88671875 17.083984375 c 4
 67.537109375 17.083984375 61.578125 23.0419921875 61.578125 30.392578125 c 4
 61.578125 37.7431640625 67.537109375 43.701171875 74.88671875 43.701171875 c 4
 82.2373046875 43.701171875 88.1962890625 37.7431640625 88.1962890625 30.392578125 c 4
118.056640625 0.5234375 m 4
 118.056640625 -6.8271484375 112.09765625 -12.78515625 104.747070312 -12.78515625 c 4
 97.3974609375 -12.78515625 91.4384765625 -6.8271484375 91.4384765625 0.5234375 c 4
 91.4384765625 7.8740234375 97.3974609375 13.83203125 104.747070312 13.83203125 c 4
 112.09765625 13.83203125 118.056640625 7.8740234375 118.056640625 0.5234375 c 4
EndSplineSet
Validated: 5
Layer: 2
EndChar
StartChar: hyphen
Encoding: 13 45 128
Width: 370
Flags: HMW
HStem: 217 86<50 320 50 320>
LayerCount: 3
Back
SplineSet
322.700195312 216.139648438 m 5
 47.2998046875 216.139648438 l 5
 47.2998046875 303.860351562 l 5
 322.700195312 303.860351562 l 5
 322.700195312 216.139648438 l 5
EndSplineSet
Fore
SplineSet
60.5595703125 303.80859375 m 0
 60.5595703125 296.458007812 54.6005859375 290.5 47.25 290.5 c 0
 39.900390625 290.5 33.94140625 296.458007812 33.94140625 303.80859375 c 0
 33.94140625 311.159179688 39.900390625 317.1171875 47.25 317.1171875 c 0
 54.6005859375 317.1171875 60.5595703125 311.159179688 60.5595703125 303.80859375 c 0
60.5595703125 216.087890625 m 0
 60.5595703125 208.737304688 54.6005859375 202.779296875 47.25 202.779296875 c 0
 39.900390625 202.779296875 33.94140625 208.737304688 33.94140625 216.087890625 c 0
 33.94140625 223.438476562 39.900390625 229.396484375 47.25 229.396484375 c 0
 54.6005859375 229.396484375 60.5595703125 223.438476562 60.5595703125 216.087890625 c 0
335.958984375 303.80859375 m 0
 335.958984375 296.458007812 330 290.5 322.650390625 290.5 c 0
 315.30078125 290.5 309.341796875 296.458007812 309.341796875 303.80859375 c 0
 309.341796875 311.159179688 315.30078125 317.1171875 322.650390625 317.1171875 c 0
 330 317.1171875 335.958984375 311.159179688 335.958984375 303.80859375 c 0
335.958984375 216.087890625 m 0
 335.958984375 208.737304688 330 202.779296875 322.650390625 202.779296875 c 0
 315.30078125 202.779296875 309.341796875 208.737304688 309.341796875 216.087890625 c 0
 309.341796875 223.438476562 315.30078125 229.396484375 322.650390625 229.396484375 c 0
 330 229.396484375 335.958984375 223.438476562 335.958984375 216.087890625 c 0
EndSplineSet
Validated: 1
Layer: 2
EndChar
StartChar: period
Encoding: 14 46 127
Width: 231
Flags: HMW
HStem: 0 100<70 161 70 161>
VStem: 70 91<0 100>
LayerCount: 3
Back
SplineSet
139.390625 -11.2001953125 m 1
 93.16015625 -11.44921875 l 1
 60.3076171875 24.2958984375 l 1
 60.080078125 75.099609375 l 1
 92.609375 111.200195312 l 1
 138.83984375 111.44921875 l 1
 171.692382812 75.7041015625 l 1
 171.919921875 24.900390625 l 1
 139.390625 -11.2001953125 l 1
EndSplineSet
Fore
SplineSet
106.0625 111.25 m 4
 106.0625 103.899414062 100.102539062 97.94140625 92.7529296875 97.94140625 c 4
 85.4033203125 97.94140625 79.4443359375 103.899414062 79.4443359375 111.25 c 4
 79.4443359375 118.600585938 85.4033203125 124.55859375 92.7529296875 124.55859375 c 4
 100.102539062 124.55859375 106.0625 118.600585938 106.0625 111.25 c 4
152.086914062 111.458007812 m 4
 152.086914062 104.107421875 146.127929688 98.1494140625 138.778320312 98.1494140625 c 4
 131.428710938 98.1494140625 125.469726562 104.107421875 125.469726562 111.458007812 c 4
 125.469726562 118.80859375 131.428710938 124.766601562 138.778320312 124.766601562 c 4
 146.127929688 124.766601562 152.086914062 118.80859375 152.086914062 111.458007812 c 4
106.309570312 -11.44140625 m 4
 106.309570312 -18.7919921875 100.350585938 -24.75 93 -24.75 c 4
 85.650390625 -24.75 79.69140625 -18.7919921875 79.69140625 -11.44140625 c 4
 79.69140625 -4.0908203125 85.650390625 1.8671875 93 1.8671875 c 4
 100.350585938 1.8671875 106.309570312 -4.0908203125 106.309570312 -11.44140625 c 4
152.55859375 -11.19140625 m 4
 152.55859375 -18.5419921875 146.599609375 -24.5 139.25 -24.5 c 4
 131.900390625 -24.5 125.94140625 -18.5419921875 125.94140625 -11.19140625 c 4
 125.94140625 -3.8408203125 131.900390625 2.1171875 139.25 2.1171875 c 4
 146.599609375 2.1171875 152.55859375 -3.8408203125 152.55859375 -11.19140625 c 4
60.1455078125 61.6064453125 m 4
 52.7958984375 61.6064453125 46.8369140625 67.5654296875 46.8369140625 74.916015625 c 4
 46.8369140625 82.265625 52.7958984375 88.224609375 60.1455078125 88.224609375 c 4
 67.49609375 88.224609375 73.4541015625 82.265625 73.4541015625 74.916015625 c 4
 73.4541015625 67.5654296875 67.49609375 61.6064453125 60.1455078125 61.6064453125 c 4
60.3349609375 10.771484375 m 4
 52.984375 10.771484375 47.0263671875 16.73046875 47.0263671875 24.080078125 c 4
 47.0263671875 31.4296875 52.984375 37.388671875 60.3349609375 37.388671875 c 4
 67.685546875 37.388671875 73.6435546875 31.4296875 73.6435546875 24.080078125 c 4
 73.6435546875 16.73046875 67.685546875 10.771484375 60.3349609375 10.771484375 c 4
171.75 61.75 m 4
 164.400390625 61.75 158.44140625 67.708984375 158.44140625 75.0595703125 c 4
 158.44140625 82.4091796875 164.400390625 88.3681640625 171.75 88.3681640625 c 4
 179.100585938 88.3681640625 185.05859375 82.4091796875 185.05859375 75.0595703125 c 4
 185.05859375 67.708984375 179.100585938 61.75 171.75 61.75 c 4
171.75 10.75 m 4
 164.399414062 10.75 158.44140625 16.708984375 158.44140625 24.0595703125 c 4
 158.44140625 31.4091796875 164.399414062 37.3681640625 171.75 37.3681640625 c 4
 179.100585938 37.3681640625 185.05859375 31.4091796875 185.05859375 24.0595703125 c 4
 185.05859375 16.708984375 179.100585938 10.75 171.75 10.75 c 4
EndSplineSet
Validated: 1
Layer: 2
EndChar
StartChar: slash
Encoding: 15 47 151
Width: 336
Flags: HMW
HStem: -100 21G<0 89 0 0> 800 20G<246 336 336 336>
LayerCount: 3
Back
SplineSet
89 -100 m 5
 6 -77 l 5
 246 820 l 5
 329 797 l 5
 89 -100 l 5
EndSplineSet
Fore
SplineSet
5.93359375 -90.263671875 m 4
 -1.416015625 -90.263671875 -7.375 -84.3046875 -7.375 -76.9541015625 c 4
 -7.375 -69.6044921875 -1.416015625 -63.6455078125 5.93359375 -63.6455078125 c 4
 13.2841796875 -63.6455078125 19.2421875 -69.6044921875 19.2421875 -76.9541015625 c 4
 19.2421875 -84.3046875 13.2841796875 -90.263671875 5.93359375 -90.263671875 c 4
88.93359375 -113.263671875 m 4
 81.583984375 -113.263671875 75.625 -107.3046875 75.625 -99.9541015625 c 4
 75.625 -92.6044921875 81.583984375 -86.6455078125 88.93359375 -86.6455078125 c 4
 96.2841796875 -86.6455078125 102.2421875 -92.6044921875 102.2421875 -99.9541015625 c 4
 102.2421875 -107.3046875 96.2841796875 -113.263671875 88.93359375 -113.263671875 c 4
245.93359375 806.736328125 m 4
 238.583984375 806.736328125 232.625 812.6953125 232.625 820.045898438 c 4
 232.625 827.395507812 238.583984375 833.354492188 245.93359375 833.354492188 c 4
 253.284179688 833.354492188 259.2421875 827.395507812 259.2421875 820.045898438 c 4
 259.2421875 812.6953125 253.284179688 806.736328125 245.93359375 806.736328125 c 4
328.93359375 783.736328125 m 4
 321.583984375 783.736328125 315.625 789.6953125 315.625 797.045898438 c 4
 315.625 804.395507812 321.583984375 810.354492188 328.93359375 810.354492188 c 4
 336.284179688 810.354492188 342.2421875 804.395507812 342.2421875 797.045898438 c 4
 342.2421875 789.6953125 336.284179688 783.736328125 328.93359375 783.736328125 c 4
EndSplineSet
Validated: 1
Layer: 2
EndChar
StartChar: zero
Encoding: 16 48 116
Width: 556
Flags: HMW
HStem: -15 75<262.5 332.5 262.5 362.5> 660 75<223.5 293>
VStem: 45 90<324.5 443.5 324.5 468.5> 421 90<276.5 396>
LayerCount: 3
Back
SplineSet
278.05078125 742.5 m 5
 461.553710938 634.241210938 l 5
 515.76171875 359.950195312 l 5
 461.553710938 85.7021484375 l 5
 278.05078125 -22.513671875 l 5
 94.5791015625 85.7353515625 l 5
 40.3388671875 359.950195312 l 5
 94.5791015625 634.241210938 l 5
 278.05078125 742.5 l 5
153.708984375 168.25 m 5
 353.744140625 636.444335938 l 5
 317.779296875 651.719726562 l 5
 278.135742188 665.999023438 l 5
 163.521484375 576.875976562 l 5
 132.276367188 359.993164062 l 5
 143.359375 258 l 5
 153.708984375 168.25 l 5
400.520507812 552.755859375 m 5
 201.591796875 83.541015625 l 5
 239.239257812 68.2802734375 l 5
 277.96484375 53.9873046875 l 5
 392.643554688 143.109375 l 5
 423.82421875 359.993164062 l 5
 411.619140625 464.040039062 l 5
 400.520507812 552.755859375 l 5
EndSplineSet
Fore
SplineSet
94.591796875 72.5712890625 m 0
 87.2412109375 72.5712890625 81.283203125 78.5302734375 81.283203125 85.8798828125 c 0
 81.283203125 93.23046875 87.2412109375 99.189453125 94.591796875 99.189453125 c 0
 101.942382812 99.189453125 107.900390625 93.23046875 107.900390625 85.8798828125 c 0
 107.900390625 78.5302734375 101.942382812 72.5712890625 94.591796875 72.5712890625 c 0
153.721679688 155.0859375 m 0
 146.372070312 155.0859375 140.413085938 161.044921875 140.413085938 168.395507812 c 0
 140.413085938 175.745117188 146.372070312 181.704101562 153.721679688 181.704101562 c 0
 161.072265625 181.704101562 167.030273438 175.745117188 167.030273438 168.395507812 c 0
 167.030273438 161.044921875 161.072265625 155.0859375 153.721679688 155.0859375 c 0
201.604492188 70.376953125 m 0
 194.254882812 70.376953125 188.295898438 76.3359375 188.295898438 83.6865234375 c 0
 188.295898438 91.0361328125 194.254882812 96.9951171875 201.604492188 96.9951171875 c 0
 208.955078125 96.9951171875 214.913085938 91.0361328125 214.913085938 83.6865234375 c 0
 214.913085938 76.3359375 208.955078125 70.376953125 201.604492188 70.376953125 c 0
201.604492188 70.376953125 m 0
 194.254882812 70.376953125 188.295898438 76.3359375 188.295898438 83.6865234375 c 0
 188.295898438 91.0361328125 194.254882812 96.9951171875 201.604492188 96.9951171875 c 0
 208.955078125 96.9951171875 214.913085938 91.0361328125 214.913085938 83.6865234375 c 0
 214.913085938 76.3359375 208.955078125 70.376953125 201.604492188 70.376953125 c 0
277.978515625 40.8232421875 m 0
 270.627929688 40.8232421875 264.668945312 46.7822265625 264.668945312 54.1328125 c 0
 264.668945312 61.482421875 270.627929688 67.44140625 277.978515625 67.44140625 c 0
 285.328125 67.44140625 291.287109375 61.482421875 291.287109375 54.1328125 c 0
 291.287109375 46.7822265625 285.328125 40.8232421875 277.978515625 40.8232421875 c 0
278.064453125 -35.677734375 m 0
 270.713867188 -35.677734375 264.754882812 -29.71875 264.754882812 -22.369140625 c 0
 264.754882812 -15.0185546875 270.713867188 -9.0595703125 278.064453125 -9.0595703125 c 0
 285.4140625 -9.0595703125 291.373046875 -15.0185546875 291.373046875 -22.369140625 c 0
 291.373046875 -29.71875 285.4140625 -35.677734375 278.064453125 -35.677734375 c 0
392.657226562 129.9453125 m 0
 385.306640625 129.9453125 379.348632812 135.904296875 379.348632812 143.254882812 c 0
 379.348632812 150.604492188 385.306640625 156.563476562 392.657226562 156.563476562 c 0
 400.006835938 156.563476562 405.965820312 150.604492188 405.965820312 143.254882812 c 0
 405.965820312 135.904296875 400.006835938 129.9453125 392.657226562 129.9453125 c 0
461.567382812 72.5380859375 m 0
 454.216796875 72.5380859375 448.2578125 78.4970703125 448.2578125 85.8466796875 c 0
 448.2578125 93.197265625 454.216796875 99.15625 461.567382812 99.15625 c 0
 468.916992188 99.15625 474.875976562 93.197265625 474.875976562 85.8466796875 c 0
 474.875976562 78.4970703125 468.916992188 72.5380859375 461.567382812 72.5380859375 c 0
423.837890625 346.829101562 m 0
 416.487304688 346.829101562 410.529296875 352.788085938 410.529296875 360.138671875 c 0
 410.529296875 367.48828125 416.487304688 373.447265625 423.837890625 373.447265625 c 0
 431.1875 373.447265625 437.146484375 367.48828125 437.146484375 360.138671875 c 0
 437.146484375 352.788085938 431.1875 346.829101562 423.837890625 346.829101562 c 0
515.775390625 346.786132812 m 0
 508.424804688 346.786132812 502.465820312 352.745117188 502.465820312 360.094726562 c 0
 502.465820312 367.4453125 508.424804688 373.404296875 515.775390625 373.404296875 c 0
 523.125 373.404296875 529.083984375 367.4453125 529.083984375 360.094726562 c 0
 529.083984375 352.745117188 523.125 346.786132812 515.775390625 346.786132812 c 0
411.6328125 450.876953125 m 0
 404.282226562 450.876953125 398.32421875 456.8359375 398.32421875 464.185546875 c 0
 398.32421875 471.53515625 404.282226562 477.494140625 411.6328125 477.494140625 c 0
 418.982421875 477.494140625 424.94140625 471.53515625 424.94140625 464.185546875 c 0
 424.94140625 456.8359375 418.982421875 450.876953125 411.6328125 450.876953125 c 0
461.567382812 621.077148438 m 0
 454.216796875 621.077148438 448.2578125 627.036132812 448.2578125 634.385742188 c 0
 448.2578125 641.736328125 454.216796875 647.6953125 461.567382812 647.6953125 c 0
 468.916992188 647.6953125 474.875976562 641.736328125 474.875976562 634.385742188 c 0
 474.875976562 627.036132812 468.916992188 621.077148438 461.567382812 621.077148438 c 0
400.534179688 539.591796875 m 0
 393.18359375 539.591796875 387.225585938 545.55078125 387.225585938 552.901367188 c 0
 387.225585938 560.250976562 393.18359375 566.209960938 400.534179688 566.209960938 c 0
 407.883789062 566.209960938 413.842773438 560.250976562 413.842773438 552.901367188 c 0
 413.842773438 545.55078125 407.883789062 539.591796875 400.534179688 539.591796875 c 0
353.756835938 623.280273438 m 0
 346.40625 623.280273438 340.448242188 629.239257812 340.448242188 636.588867188 c 0
 340.448242188 643.939453125 346.40625 649.8984375 353.756835938 649.8984375 c 0
 361.107421875 649.8984375 367.065429688 643.939453125 367.065429688 636.588867188 c 0
 367.065429688 629.239257812 361.107421875 623.280273438 353.756835938 623.280273438 c 0
278.064453125 729.3359375 m 0
 270.713867188 729.3359375 264.754882812 735.294921875 264.754882812 742.645507812 c 0
 264.754882812 749.995117188 270.713867188 755.954101562 278.064453125 755.954101562 c 0
 285.4140625 755.954101562 291.373046875 749.995117188 291.373046875 742.645507812 c 0
 291.373046875 735.294921875 285.4140625 729.3359375 278.064453125 729.3359375 c 0
278.1484375 652.834960938 m 0
 270.797851562 652.834960938 264.83984375 658.793945312 264.83984375 666.143554688 c 0
 264.83984375 673.494140625 270.797851562 679.453125 278.1484375 679.453125 c 0
 285.499023438 679.453125 291.45703125 673.494140625 291.45703125 666.143554688 c 0
 291.45703125 658.793945312 285.499023438 652.834960938 278.1484375 652.834960938 c 0
163.534179688 563.711914062 m 0
 156.184570312 563.711914062 150.225585938 569.670898438 150.225585938 577.020507812 c 0
 150.225585938 584.37109375 156.184570312 590.330078125 163.534179688 590.330078125 c 0
 170.884765625 590.330078125 176.842773438 584.37109375 176.842773438 577.020507812 c 0
 176.842773438 569.670898438 170.884765625 563.711914062 163.534179688 563.711914062 c 0
94.591796875 621.077148438 m 0
 87.2412109375 621.077148438 81.283203125 627.036132812 81.283203125 634.385742188 c 0
 81.283203125 641.736328125 87.2412109375 647.6953125 94.591796875 647.6953125 c 0
 101.942382812 647.6953125 107.900390625 641.736328125 107.900390625 634.385742188 c 0
 107.900390625 627.036132812 101.942382812 621.077148438 94.591796875 621.077148438 c 0
40.3515625 346.786132812 m 0
 33.001953125 346.786132812 27.04296875 352.745117188 27.04296875 360.094726562 c 0
 27.04296875 367.4453125 33.001953125 373.404296875 40.3515625 373.404296875 c 0
 47.7021484375 373.404296875 53.66015625 367.4453125 53.66015625 360.094726562 c 0
 53.66015625 352.745117188 47.7021484375 346.786132812 40.3515625 346.786132812 c 0
132.2890625 346.829101562 m 0
 124.939453125 346.829101562 118.98046875 352.788085938 118.98046875 360.137695312 c 0
 118.98046875 367.487304688 124.939453125 373.446289062 132.2890625 373.446289062 c 0
 139.639648438 373.446289062 145.59765625 367.487304688 145.59765625 360.137695312 c 0
 145.59765625 352.788085938 139.639648438 346.829101562 132.2890625 346.829101562 c 0
EndSplineSet
Validated: 5
Layer: 2
EndChar
StartChar: one
Encoding: 17 49 117
Width: 512
Flags: HMW
HStem: 0 21G<233 328 233 233> 700 20G<254 328 328 328>
VStem: 233 95<0 555 555 555>
LayerCount: 3
Back
SplineSet
327.983398438 -0.080078125 m 1
 232.845703125 -0.080078125 l 1
 232.845703125 554.905273438 l 1
 169.02734375 481.029296875 l 1
 100 460 l 1
 67 534.977539062 l 1
 193.384765625 600.47265625 l 1
 253.857421875 720 l 1
 327.983398438 720 l 1
 327.983398438 -0.080078125 l 1
EndSplineSet
Fore
SplineSet
67.015625 521.637695312 m 0
 59.666015625 521.637695312 53.70703125 527.596679688 53.70703125 534.946289062 c 0
 53.70703125 542.295898438 59.666015625 548.254882812 67.015625 548.254882812 c 0
 74.3662109375 548.254882812 80.32421875 542.295898438 80.32421875 534.946289062 c 0
 80.32421875 527.596679688 74.3662109375 521.637695312 67.015625 521.637695312 c 0
100.015625 446.66015625 m 0
 92.666015625 446.66015625 86.70703125 452.619140625 86.70703125 459.96875 c 0
 86.70703125 467.318359375 92.666015625 473.278320312 100.015625 473.278320312 c 0
 107.366210938 473.278320312 113.32421875 467.318359375 113.32421875 459.96875 c 0
 113.32421875 452.619140625 107.366210938 446.66015625 100.015625 446.66015625 c 0
169.043945312 467.689453125 m 0
 161.693359375 467.689453125 155.734375 473.6484375 155.734375 480.998046875 c 0
 155.734375 488.348632812 161.693359375 494.307617188 169.043945312 494.307617188 c 0
 176.393554688 494.307617188 182.352539062 488.348632812 182.352539062 480.998046875 c 0
 182.352539062 473.6484375 176.393554688 467.689453125 169.043945312 467.689453125 c 0
232.862304688 541.565429688 m 0
 225.51171875 541.565429688 219.552734375 547.524414062 219.552734375 554.874023438 c 0
 219.552734375 562.223632812 225.51171875 568.182617188 232.862304688 568.182617188 c 0
 240.211914062 568.182617188 246.170898438 562.223632812 246.170898438 554.874023438 c 0
 246.170898438 547.524414062 240.211914062 541.565429688 232.862304688 541.565429688 c 0
193.400390625 587.1328125 m 0
 186.05078125 587.1328125 180.091796875 593.091796875 180.091796875 600.44140625 c 0
 180.091796875 607.791015625 186.05078125 613.75 193.400390625 613.75 c 0
 200.750976562 613.75 206.708984375 607.791015625 206.708984375 600.44140625 c 0
 206.708984375 593.091796875 200.750976562 587.1328125 193.400390625 587.1328125 c 0
253.873046875 706.659179688 m 0
 246.5234375 706.659179688 240.564453125 712.618164062 240.564453125 719.96875 c 0
 240.564453125 727.318359375 246.5234375 733.27734375 253.873046875 733.27734375 c 0
 261.223632812 733.27734375 267.182617188 727.318359375 267.182617188 719.96875 c 0
 267.182617188 712.618164062 261.223632812 706.659179688 253.873046875 706.659179688 c 0
328 706.659179688 m 0
 320.649414062 706.659179688 314.69140625 712.618164062 314.69140625 719.96875 c 0
 314.69140625 727.318359375 320.649414062 733.27734375 328 733.27734375 c 0
 335.349609375 733.27734375 341.30859375 727.318359375 341.30859375 719.96875 c 0
 341.30859375 712.618164062 335.349609375 706.659179688 328 706.659179688 c 0
328 -13.419921875 m 0
 320.649414062 -13.419921875 314.69140625 -7.4609375 314.69140625 -0.111328125 c 0
 314.69140625 7.2392578125 320.649414062 13.1982421875 328 13.1982421875 c 0
 335.349609375 13.1982421875 341.30859375 7.2392578125 341.30859375 -0.111328125 c 0
 341.30859375 -7.4609375 335.349609375 -13.419921875 328 -13.419921875 c 0
232.862304688 -13.419921875 m 0
 225.51171875 -13.419921875 219.552734375 -7.4609375 219.552734375 -0.111328125 c 0
 219.552734375 7.2392578125 225.51171875 13.1982421875 232.862304688 13.1982421875 c 0
 240.211914062 13.1982421875 246.170898438 7.2392578125 246.170898438 -0.111328125 c 0
 246.170898438 -7.4609375 240.211914062 -13.419921875 232.862304688 -13.419921875 c 0
EndSplineSet
Validated: 1
Layer: 2
EndChar
StartChar: two
Encoding: 18 50 118
Width: 556
Flags: HMW
HStem: 0 85<148 496 148 496> 655 80<231.5 317>
VStem: 50 90<502 512> 405 90<487 560>
LayerCount: 3
Back
SplineSet
495.698242188 85.3935546875 m 6
 495.698242188 -0.35546875 l 5
 35.3994140625 -0.35546875 l 1
 100.022460938 186.725585938 l 1
 269.6484375 328.426757812 l 0
 368.41796875 423.62109375 l 1
 407.825195312 525.134765625 l 1
 373.646484375 622.013671875 l 1
 275.233398438 660.788085938 l 1
 173.47265625 616.434570312 l 1
 137.540039062 504.723632812 l 1
 53.8388671875 536.310546875 l 1
 112.908203125 680.65625 l 1
 277.274414062 742.349609375 l 1
 438.921875 685.112304688 l 1
 499.592773438 523.008789062 l 1
 441.079101562 370.422851562 l 1
 308.963867188 248.352539062 l 0
 204.21484375 167.002929688 l 1
 147.705078125 85.3095703125 l 1
 495.698242188 85.3095703125 l 5
 495.698242188 85.3935546875 l 6
EndSplineSet
Fore
SplineSet
53.8896484375 523.004882812 m 0
 46.5390625 523.004882812 40.5810546875 528.963867188 40.5810546875 536.314453125 c 0
 40.5810546875 543.6640625 46.5390625 549.623046875 53.8896484375 549.623046875 c 0
 61.2392578125 549.623046875 67.1982421875 543.6640625 67.1982421875 536.314453125 c 0
 67.1982421875 528.963867188 61.2392578125 523.004882812 53.8896484375 523.004882812 c 0
137.590820312 491.41796875 m 0
 130.240234375 491.41796875 124.282226562 497.376953125 124.282226562 504.7265625 c 0
 124.282226562 512.077148438 130.240234375 518.036132812 137.590820312 518.036132812 c 0
 144.94140625 518.036132812 150.899414062 512.077148438 150.899414062 504.7265625 c 0
 150.899414062 497.376953125 144.94140625 491.41796875 137.590820312 491.41796875 c 0
173.5234375 603.12890625 m 0
 166.172851562 603.12890625 160.21484375 609.087890625 160.21484375 616.4375 c 0
 160.21484375 623.788085938 166.172851562 629.747070312 173.5234375 629.747070312 c 0
 180.874023438 629.747070312 186.83203125 623.788085938 186.83203125 616.4375 c 0
 186.83203125 609.087890625 180.874023438 603.12890625 173.5234375 603.12890625 c 0
112.958984375 667.350585938 m 0
 105.608398438 667.350585938 99.6494140625 673.309570312 99.6494140625 680.659179688 c 0
 99.6494140625 688.009765625 105.608398438 693.96875 112.958984375 693.96875 c 0
 120.30859375 693.96875 126.267578125 688.009765625 126.267578125 680.659179688 c 0
 126.267578125 673.309570312 120.30859375 667.350585938 112.958984375 667.350585938 c 0
277.325195312 729.043945312 m 0
 269.975585938 729.043945312 264.016601562 735.002929688 264.016601562 742.353515625 c 0
 264.016601562 749.703125 269.975585938 755.662109375 277.325195312 755.662109375 c 0
 284.67578125 755.662109375 290.633789062 749.703125 290.633789062 742.353515625 c 0
 290.633789062 735.002929688 284.67578125 729.043945312 277.325195312 729.043945312 c 0
275.284179688 647.482421875 m 0
 267.93359375 647.482421875 261.975585938 653.44140625 261.975585938 660.791015625 c 0
 261.975585938 668.141601562 267.93359375 674.100585938 275.284179688 674.100585938 c 0
 282.634765625 674.100585938 288.592773438 668.141601562 288.592773438 660.791015625 c 0
 288.592773438 653.44140625 282.634765625 647.482421875 275.284179688 647.482421875 c 0
373.697265625 608.708007812 m 0
 366.34765625 608.708007812 360.388671875 614.666992188 360.388671875 622.016601562 c 0
 360.388671875 629.3671875 366.34765625 635.326171875 373.697265625 635.326171875 c 0
 381.047851562 635.326171875 387.005859375 629.3671875 387.005859375 622.016601562 c 0
 387.005859375 614.666992188 381.047851562 608.708007812 373.697265625 608.708007812 c 0
438.97265625 671.806640625 m 0
 431.622070312 671.806640625 425.6640625 677.765625 425.6640625 685.116210938 c 0
 425.6640625 692.465820312 431.622070312 698.424804688 438.97265625 698.424804688 c 0
 446.322265625 698.424804688 452.28125 692.465820312 452.28125 685.116210938 c 0
 452.28125 677.765625 446.322265625 671.806640625 438.97265625 671.806640625 c 0
499.643554688 509.703125 m 0
 492.29296875 509.703125 486.334960938 515.662109375 486.334960938 523.01171875 c 0
 486.334960938 530.361328125 492.29296875 536.3203125 499.643554688 536.3203125 c 0
 506.993164062 536.3203125 512.952148438 530.361328125 512.952148438 523.01171875 c 0
 512.952148438 515.662109375 506.993164062 509.703125 499.643554688 509.703125 c 0
407.876953125 511.829101562 m 0
 400.526367188 511.829101562 394.567382812 517.788085938 394.567382812 525.137695312 c 0
 394.567382812 532.487304688 400.526367188 538.446289062 407.876953125 538.446289062 c 0
 415.2265625 538.446289062 421.185546875 532.487304688 421.185546875 525.137695312 c 0
 421.185546875 517.788085938 415.2265625 511.829101562 407.876953125 511.829101562 c 0
441.129882812 357.1171875 m 0
 433.779296875 357.1171875 427.821289062 363.076171875 427.821289062 370.42578125 c 0
 427.821289062 377.776367188 433.779296875 383.735351562 441.129882812 383.735351562 c 0
 448.48046875 383.735351562 454.438476562 377.776367188 454.438476562 370.42578125 c 0
 454.438476562 363.076171875 448.48046875 357.1171875 441.129882812 357.1171875 c 0
368.469726562 410.315429688 m 0
 361.119140625 410.315429688 355.161132812 416.274414062 355.161132812 423.625 c 0
 355.161132812 430.974609375 361.119140625 436.93359375 368.469726562 436.93359375 c 0
 375.8203125 436.93359375 381.778320312 430.974609375 381.778320312 423.625 c 0
 381.778320312 416.274414062 375.8203125 410.315429688 368.469726562 410.315429688 c 0
269.69921875 315.12109375 m 0
 262.348632812 315.12109375 256.390625 321.080078125 256.390625 328.4296875 c 0
 256.390625 335.779296875 262.348632812 341.73828125 269.69921875 341.73828125 c 0
 277.049804688 341.73828125 283.0078125 335.779296875 283.0078125 328.4296875 c 0
 283.0078125 321.080078125 277.049804688 315.12109375 269.69921875 315.12109375 c 0
309.014648438 235.046875 m 0
 301.6640625 235.046875 295.705078125 241.005859375 295.705078125 248.35546875 c 0
 295.705078125 255.706054688 301.6640625 261.665039062 309.014648438 261.665039062 c 0
 316.364257812 261.665039062 322.323242188 255.706054688 322.323242188 248.35546875 c 0
 322.323242188 241.005859375 316.364257812 235.046875 309.014648438 235.046875 c 0
204.265625 153.697265625 m 0
 196.915039062 153.697265625 190.95703125 159.65625 190.95703125 167.005859375 c 0
 190.95703125 174.356445312 196.915039062 180.315429688 204.265625 180.315429688 c 0
 211.615234375 180.315429688 217.57421875 174.356445312 217.57421875 167.005859375 c 0
 217.57421875 159.65625 211.615234375 153.697265625 204.265625 153.697265625 c 0
100.073242188 173.419921875 m 0
 92.72265625 173.419921875 86.7646484375 179.37890625 86.7646484375 186.728515625 c 0
 86.7646484375 194.079101562 92.72265625 200.038085938 100.073242188 200.038085938 c 0
 107.423828125 200.038085938 113.381835938 194.079101562 113.381835938 186.728515625 c 0
 113.381835938 179.37890625 107.423828125 173.419921875 100.073242188 173.419921875 c 0
147.755859375 72.00390625 m 0
 140.405273438 72.00390625 134.447265625 77.962890625 134.447265625 85.3125 c 0
 134.447265625 92.6630859375 140.405273438 98.6220703125 147.755859375 98.6220703125 c 0
 155.10546875 98.6220703125 161.064453125 92.6630859375 161.064453125 85.3125 c 0
 161.064453125 77.962890625 155.10546875 72.00390625 147.755859375 72.00390625 c 0
35.4501953125 -13.6611328125 m 0
 28.1005859375 -13.6611328125 22.1416015625 -7.7021484375 22.1416015625 -0.3525390625 c 0
 22.1416015625 6.998046875 28.1005859375 12.95703125 35.4501953125 12.95703125 c 0
 42.80078125 12.95703125 48.7587890625 6.998046875 48.7587890625 -0.3525390625 c 0
 48.7587890625 -7.7021484375 42.80078125 -13.6611328125 35.4501953125 -13.6611328125 c 0
497.0078125 72.00390625 m 0
 489.658203125 72.00390625 483.69921875 77.962890625 483.69921875 85.3125 c 0
 483.69921875 92.6630859375 489.658203125 98.6220703125 497.0078125 98.6220703125 c 0
 504.358398438 98.6220703125 510.31640625 92.6630859375 510.31640625 85.3125 c 0
 510.31640625 77.962890625 504.358398438 72.00390625 497.0078125 72.00390625 c 0
495.749023438 -13.6611328125 m 0
 488.399414062 -13.6611328125 482.440429688 -7.7021484375 482.440429688 -0.3525390625 c 0
 482.440429688 6.998046875 488.399414062 12.95703125 495.749023438 12.95703125 c 0
 503.099609375 12.95703125 509.057617188 6.998046875 509.057617188 -0.3525390625 c 0
 509.057617188 -7.7021484375 503.099609375 -13.6611328125 495.749023438 -13.6611328125 c 0
EndSplineSet
Validated: 1
Layer: 2
EndChar
StartChar: three
Encoding: 19 51 119
Width: 556
Flags: HMW
HStem: -15 80<228 317.5 228 342> 356 75<230 272 230 272> 658 77<231 306.5>
VStem: 40 94<189 202> 230 249<356 612 431 612> 384 95<515.5 580.5> 414 92<169.5 250.5>
LayerCount: 3
Back
SplineSet
272.026367188 432.497070312 m 5xf0
 356.734375 467.31640625 l 5
 386.331054688 551.821289062 l 5
 355.586914062 632.787109375 l 5
 272.026367188 664 l 5
 177.983398438 623.057617188 l 5
 146.579101562 526.305664062 l 5
 63.8095703125 559.919921875 l 5
 120.04296875 687.950195312 l 5
 269.899414062 742.5 l 5
 422.041992188 695.595703125 l 5
 483.032226562 553.77734375 l 5
 452.106445312 456.514648438 l 5
 372.893554688 399.752929688 l 5
 474.303710938 328.993164062 l 5
 510.587890625 203.885742188 l 5
 444.802734375 40.9658203125 l 5
 271.85546875 -22.513671875 l 5
 103.416015625 34.0771484375 l 5
 44.4296875 164.16015625 l 5
 131.184570312 198.783203125 l 5
 169.052734375 99.4462890625 l 5
 271.85546875 59.046875 l 5
 379.102539062 102.032226562 l 5
 416.694335938 206.947265625 l 5
 379.102539062 312.408203125 l 5
 270.053710938 355.868164062 l 5
 228.991210938 355.868164062 l 5
 228.991210938 432.326171875 l 5
 272.026367188 432.326171875 l 5
 272.026367188 432.497070312 l 5xf0
EndSplineSet
Fore
SplineSet
63.818359375 546.534179688 m 0xf0
 56.4677734375 546.534179688 50.5087890625 552.493164062 50.5087890625 559.842773438 c 0
 50.5087890625 567.193359375 56.4677734375 573.15234375 63.818359375 573.15234375 c 0
 71.16796875 573.15234375 77.126953125 567.193359375 77.126953125 559.842773438 c 0
 77.126953125 552.493164062 71.16796875 546.534179688 63.818359375 546.534179688 c 0xf0
146.587890625 512.919921875 m 0
 139.237304688 512.919921875 133.278320312 518.87890625 133.278320312 526.228515625 c 0
 133.278320312 533.579101562 139.237304688 539.538085938 146.587890625 539.538085938 c 0
 153.9375 539.538085938 159.896484375 533.579101562 159.896484375 526.228515625 c 0
 159.896484375 518.87890625 153.9375 512.919921875 146.587890625 512.919921875 c 0
177.9921875 609.671875 m 0
 170.641601562 609.671875 164.682617188 615.630859375 164.682617188 622.981445312 c 0
 164.682617188 630.331054688 170.641601562 636.290039062 177.9921875 636.290039062 c 0
 185.341796875 636.290039062 191.30078125 630.331054688 191.30078125 622.981445312 c 0
 191.30078125 615.630859375 185.341796875 609.671875 177.9921875 609.671875 c 0
120.051757812 674.564453125 m 0
 112.701171875 674.564453125 106.7421875 680.5234375 106.7421875 687.874023438 c 0
 106.7421875 695.223632812 112.701171875 701.182617188 120.051757812 701.182617188 c 0
 127.401367188 701.182617188 133.360351562 695.223632812 133.360351562 687.874023438 c 0
 133.360351562 680.5234375 127.401367188 674.564453125 120.051757812 674.564453125 c 0
272.03515625 728.458007812 m 0
 264.684570312 728.458007812 258.7265625 734.416992188 258.7265625 741.767578125 c 0
 258.7265625 749.1171875 264.684570312 755.076171875 272.03515625 755.076171875 c 0
 279.384765625 755.076171875 285.34375 749.1171875 285.34375 741.767578125 c 0
 285.34375 734.416992188 279.384765625 728.458007812 272.03515625 728.458007812 c 0
272.03515625 650.614257812 m 0
 264.684570312 650.614257812 258.725585938 656.573242188 258.725585938 663.923828125 c 0
 258.725585938 671.2734375 264.684570312 677.232421875 272.03515625 677.232421875 c 0
 279.384765625 677.232421875 285.34375 671.2734375 285.34375 663.923828125 c 0
 285.34375 656.573242188 279.384765625 650.614257812 272.03515625 650.614257812 c 0
355.594726562 619.401367188 m 0
 348.244140625 619.401367188 342.286132812 625.360351562 342.286132812 632.7109375 c 0
 342.286132812 640.060546875 348.244140625 646.01953125 355.594726562 646.01953125 c 0
 362.9453125 646.01953125 368.903320312 640.060546875 368.903320312 632.7109375 c 0
 368.903320312 625.360351562 362.9453125 619.401367188 355.594726562 619.401367188 c 0
422.049804688 682.209960938 m 0
 414.69921875 682.209960938 408.741210938 688.168945312 408.741210938 695.518554688 c 0
 408.741210938 702.869140625 414.69921875 708.828125 422.049804688 708.828125 c 0
 429.400390625 708.828125 435.358398438 702.869140625 435.358398438 695.518554688 c 0
 435.358398438 688.168945312 429.400390625 682.209960938 422.049804688 682.209960938 c 0
482.765625 539.529296875 m 0
 475.415039062 539.529296875 469.45703125 545.48828125 469.45703125 552.838867188 c 0
 469.45703125 560.188476562 475.415039062 566.147460938 482.765625 566.147460938 c 0
 490.116210938 566.147460938 496.07421875 560.188476562 496.07421875 552.838867188 c 0
 496.07421875 545.48828125 490.116210938 539.529296875 482.765625 539.529296875 c 0
356.743164062 453.930664062 m 0
 349.392578125 453.930664062 343.43359375 459.889648438 343.43359375 467.240234375 c 0
 343.43359375 474.58984375 349.392578125 480.548828125 356.743164062 480.548828125 c 0
 364.092773438 480.548828125 370.051757812 474.58984375 370.051757812 467.240234375 c 0
 370.051757812 459.889648438 364.092773438 453.930664062 356.743164062 453.930664062 c 0
452.114257812 443.12890625 m 0
 444.763671875 443.12890625 438.8046875 449.087890625 438.8046875 456.4375 c 0
 438.8046875 463.787109375 444.763671875 469.74609375 452.114257812 469.74609375 c 0
 459.463867188 469.74609375 465.422851562 463.787109375 465.422851562 456.4375 c 0
 465.422851562 449.087890625 459.463867188 443.12890625 452.114257812 443.12890625 c 0
372.90234375 386.3671875 m 0
 365.551757812 386.3671875 359.592773438 392.326171875 359.592773438 399.676757812 c 0
 359.592773438 407.026367188 365.551757812 412.985351562 372.90234375 412.985351562 c 0
 380.251953125 412.985351562 386.2109375 407.026367188 386.2109375 399.676757812 c 0
 386.2109375 392.326171875 380.251953125 386.3671875 372.90234375 386.3671875 c 0
272.032226562 419.110351562 m 0
 264.681640625 419.110351562 258.723632812 425.069335938 258.723632812 432.419921875 c 0
 258.723632812 439.76953125 264.681640625 445.728515625 272.032226562 445.728515625 c 0
 279.3828125 445.728515625 285.340820312 439.76953125 285.340820312 432.419921875 c 0
 285.340820312 425.069335938 279.3828125 419.110351562 272.032226562 419.110351562 c 0
270.0625 342.483398438 m 0
 262.712890625 342.483398438 256.75390625 348.442382812 256.75390625 355.791992188 c 0
 256.75390625 363.141601562 262.712890625 369.100585938 270.0625 369.100585938 c 0
 277.413085938 369.100585938 283.37109375 363.141601562 283.37109375 355.791992188 c 0
 283.37109375 348.442382812 277.413085938 342.483398438 270.0625 342.483398438 c 0
229 342.483398438 m 0
 221.649414062 342.483398438 215.69140625 348.442382812 215.69140625 355.791992188 c 0
 215.69140625 363.141601562 221.649414062 369.100585938 229 369.100585938 c 0
 236.349609375 369.100585938 242.30859375 363.141601562 242.30859375 355.791992188 c 0
 242.30859375 348.442382812 236.349609375 342.483398438 229 342.483398438 c 0
229 418.94140625 m 0
 221.649414062 418.94140625 215.69140625 424.900390625 215.69140625 432.25 c 0
 215.69140625 439.599609375 221.649414062 445.55859375 229 445.55859375 c 0
 236.349609375 445.55859375 242.30859375 439.599609375 242.30859375 432.25 c 0
 242.30859375 424.900390625 236.349609375 418.94140625 229 418.94140625 c 0
379.111328125 299.0234375 m 0
 371.760742188 299.0234375 365.801757812 304.982421875 365.801757812 312.33203125 c 0
 365.801757812 319.682617188 371.760742188 325.641601562 379.111328125 325.641601562 c 0
 386.4609375 325.641601562 392.419921875 319.682617188 392.419921875 312.33203125 c 0
 392.419921875 304.982421875 386.4609375 299.0234375 379.111328125 299.0234375 c 0
474.311523438 315.607421875 m 0
 466.961914062 315.607421875 461.002929688 321.56640625 461.002929688 328.916992188 c 0
 461.002929688 336.266601562 466.961914062 342.225585938 474.311523438 342.225585938 c 0
 481.662109375 342.225585938 487.620117188 336.266601562 487.620117188 328.916992188 c 0
 487.620117188 321.56640625 481.662109375 315.607421875 474.311523438 315.607421875 c 0
510.595703125 190.500976562 m 0
 503.24609375 190.500976562 497.287109375 196.459960938 497.287109375 203.809570312 c 0
 497.287109375 211.16015625 503.24609375 217.119140625 510.595703125 217.119140625 c 0
 517.946289062 217.119140625 523.904296875 211.16015625 523.904296875 203.809570312 c 0
 523.904296875 196.459960938 517.946289062 190.500976562 510.595703125 190.500976562 c 0
416.703125 193.560546875 m 0
 409.352539062 193.560546875 403.39453125 199.51953125 403.39453125 206.870117188 c 0
 403.39453125 214.219726562 409.352539062 220.178710938 416.703125 220.178710938 c 0
 424.053710938 220.178710938 430.01171875 214.219726562 430.01171875 206.870117188 c 0
 430.01171875 199.51953125 424.053710938 193.560546875 416.703125 193.560546875 c 0
379.112304688 88.6474609375 m 0
 371.76171875 88.6474609375 365.802734375 94.6064453125 365.802734375 101.956054688 c 0
 365.802734375 109.305664062 371.76171875 115.264648438 379.112304688 115.264648438 c 0
 386.461914062 115.264648438 392.420898438 109.305664062 392.420898438 101.956054688 c 0
 392.420898438 94.6064453125 386.461914062 88.6474609375 379.112304688 88.6474609375 c 0
444.810546875 27.5810546875 m 0
 437.459960938 27.5810546875 431.501953125 33.5400390625 431.501953125 40.8896484375 c 0
 431.501953125 48.2392578125 437.459960938 54.1982421875 444.810546875 54.1982421875 c 0
 452.161132812 54.1982421875 458.119140625 48.2392578125 458.119140625 40.8896484375 c 0
 458.119140625 33.5400390625 452.161132812 27.5810546875 444.810546875 27.5810546875 c 0
272.03515625 -35.9560546875 m 0
 264.684570312 -35.9560546875 258.7265625 -29.9970703125 258.7265625 -22.6474609375 c 0
 258.7265625 -15.296875 264.684570312 -9.337890625 272.03515625 -9.337890625 c 0
 279.384765625 -9.337890625 285.34375 -15.296875 285.34375 -22.6474609375 c 0
 285.34375 -29.9970703125 279.384765625 -35.9560546875 272.03515625 -35.9560546875 c 0
272.03515625 45.7294921875 m 0
 264.684570312 45.7294921875 258.7265625 51.6884765625 258.7265625 59.0390625 c 0
 258.7265625 66.388671875 264.684570312 72.34765625 272.03515625 72.34765625 c 0
 279.384765625 72.34765625 285.34375 66.388671875 285.34375 59.0390625 c 0
 285.34375 51.6884765625 279.384765625 45.7294921875 272.03515625 45.7294921875 c 0
169.060546875 86.0615234375 m 0
 161.7109375 86.0615234375 155.751953125 92.0205078125 155.751953125 99.3701171875 c 0
 155.751953125 106.720703125 161.7109375 112.6796875 169.060546875 112.6796875 c 0
 176.411132812 112.6796875 182.369140625 106.720703125 182.369140625 99.3701171875 c 0
 182.369140625 92.0205078125 176.411132812 86.0615234375 169.060546875 86.0615234375 c 0
103.424804688 20.6923828125 m 0
 96.07421875 20.6923828125 90.1162109375 26.6513671875 90.1162109375 34.0009765625 c 0
 90.1162109375 41.3505859375 96.07421875 47.3095703125 103.424804688 47.3095703125 c 0
 110.775390625 47.3095703125 116.733398438 41.3505859375 116.733398438 34.0009765625 c 0
 116.733398438 26.6513671875 110.775390625 20.6923828125 103.424804688 20.6923828125 c 0
43.73046875 150.493164062 m 0
 36.380859375 150.493164062 30.421875 156.452148438 30.421875 163.801757812 c 0
 30.421875 171.151367188 36.380859375 177.110351562 43.73046875 177.110351562 c 0
 51.0810546875 177.110351562 57.0390625 171.151367188 57.0390625 163.801757812 c 0
 57.0390625 156.452148438 51.0810546875 150.493164062 43.73046875 150.493164062 c 0
131.193359375 185.3984375 m 0
 123.842773438 185.3984375 117.883789062 191.357421875 117.883789062 198.70703125 c 0
 117.883789062 206.056640625 123.842773438 212.015625 131.193359375 212.015625 c 0
 138.54296875 212.015625 144.501953125 206.056640625 144.501953125 198.70703125 c 0
 144.501953125 191.357421875 138.54296875 185.3984375 131.193359375 185.3984375 c 0
EndSplineSet
Validated: 1
Layer: 2
EndChar
StartChar: four
Encoding: 20 52 120
Width: 556
Flags: HMW
HStem: 0 21G<329 424 329 329> 171 85<121 329 30 30 424 521> 700 20G<345 424 424 424>
VStem: 329 95<0 171 256 565 565 565>
LayerCount: 3
Back
SplineSet
424 0 m 1
 329 0 l 1
 329 171 l 1
 30 171 l 1
 30 256 l 1
 345 720 l 1
 424 720 l 1
 424 256 l 1
 521 256 l 1
 521 171 l 1
 424 171 l 1
 424 0 l 1
121 256 m 1
 329 256 l 1
 329 565 l 1
 121 256 l 1
EndSplineSet
Fore
SplineSet
328.999023438 -13.3095703125 m 0
 321.6484375 -13.3095703125 315.690429688 -7.3505859375 315.690429688 0 c 0
 315.690429688 7.349609375 321.6484375 13.30859375 328.999023438 13.30859375 c 0
 336.349609375 13.30859375 342.307617188 7.349609375 342.307617188 0 c 0
 342.307617188 -7.3505859375 336.349609375 -13.3095703125 328.999023438 -13.3095703125 c 0
423.999023438 -13.3095703125 m 0
 416.6484375 -13.3095703125 410.690429688 -7.3505859375 410.690429688 0 c 0
 410.690429688 7.349609375 416.6484375 13.30859375 423.999023438 13.30859375 c 0
 431.349609375 13.30859375 437.307617188 7.349609375 437.307617188 0 c 0
 437.307617188 -7.3505859375 431.349609375 -13.3095703125 423.999023438 -13.3095703125 c 0
328.999023438 157.690429688 m 0
 321.6484375 157.690429688 315.690429688 163.649414062 315.690429688 171 c 0
 315.690429688 178.349609375 321.6484375 184.30859375 328.999023438 184.30859375 c 0
 336.349609375 184.30859375 342.307617188 178.349609375 342.307617188 171 c 0
 342.307617188 163.649414062 336.349609375 157.690429688 328.999023438 157.690429688 c 0
423.999023438 157.690429688 m 0
 416.6484375 157.690429688 410.690429688 163.649414062 410.690429688 171 c 0
 410.690429688 178.349609375 416.6484375 184.30859375 423.999023438 184.30859375 c 0
 431.349609375 184.30859375 437.307617188 178.349609375 437.307617188 171 c 0
 437.307617188 163.649414062 431.349609375 157.690429688 423.999023438 157.690429688 c 0
328.999023438 242.690429688 m 0
 321.6484375 242.690429688 315.690429688 248.649414062 315.690429688 256 c 0
 315.690429688 263.349609375 321.6484375 269.30859375 328.999023438 269.30859375 c 0
 336.349609375 269.30859375 342.307617188 263.349609375 342.307617188 256 c 0
 342.307617188 248.649414062 336.349609375 242.690429688 328.999023438 242.690429688 c 0
423.999023438 242.690429688 m 0
 416.6484375 242.690429688 410.690429688 248.649414062 410.690429688 256 c 0
 410.690429688 263.349609375 416.6484375 269.30859375 423.999023438 269.30859375 c 0
 431.349609375 269.30859375 437.307617188 263.349609375 437.307617188 256 c 0
 437.307617188 248.649414062 431.349609375 242.690429688 423.999023438 242.690429688 c 0
344.999023438 706.690429688 m 0
 337.6484375 706.690429688 331.690429688 712.649414062 331.690429688 720 c 0
 331.690429688 727.349609375 337.6484375 733.30859375 344.999023438 733.30859375 c 0
 352.349609375 733.30859375 358.307617188 727.349609375 358.307617188 720 c 0
 358.307617188 712.649414062 352.349609375 706.690429688 344.999023438 706.690429688 c 0
423.999023438 706.690429688 m 0
 416.6484375 706.690429688 410.690429688 712.649414062 410.690429688 720 c 0
 410.690429688 727.349609375 416.6484375 733.30859375 423.999023438 733.30859375 c 0
 431.349609375 733.30859375 437.307617188 727.349609375 437.307617188 720 c 0
 437.307617188 712.649414062 431.349609375 706.690429688 423.999023438 706.690429688 c 0
520.999023438 157.690429688 m 0
 513.6484375 157.690429688 507.690429688 163.649414062 507.690429688 171 c 0
 507.690429688 178.349609375 513.6484375 184.30859375 520.999023438 184.30859375 c 0
 528.349609375 184.30859375 534.307617188 178.349609375 534.307617188 171 c 0
 534.307617188 163.649414062 528.349609375 157.690429688 520.999023438 157.690429688 c 0
520.999023438 242.690429688 m 0
 513.6484375 242.690429688 507.690429688 248.649414062 507.690429688 256 c 0
 507.690429688 263.349609375 513.6484375 269.30859375 520.999023438 269.30859375 c 0
 528.349609375 269.30859375 534.307617188 263.349609375 534.307617188 256 c 0
 534.307617188 248.649414062 528.349609375 242.690429688 520.999023438 242.690429688 c 0
29.9990234375 157.690429688 m 0
 22.6484375 157.690429688 16.6904296875 163.649414062 16.6904296875 171 c 0
 16.6904296875 178.349609375 22.6484375 184.30859375 29.9990234375 184.30859375 c 0
 37.349609375 184.30859375 43.3076171875 178.349609375 43.3076171875 171 c 0
 43.3076171875 163.649414062 37.349609375 157.690429688 29.9990234375 157.690429688 c 0
29.9990234375 242.690429688 m 0
 22.6484375 242.690429688 16.6904296875 248.649414062 16.6904296875 256 c 0
 16.6904296875 263.349609375 22.6484375 269.30859375 29.9990234375 269.30859375 c 0
 37.349609375 269.30859375 43.3076171875 263.349609375 43.3076171875 256 c 0
 43.3076171875 248.649414062 37.349609375 242.690429688 29.9990234375 242.690429688 c 0
120.999023438 242.690429688 m 0
 113.6484375 242.690429688 107.690429688 248.649414062 107.690429688 256 c 0
 107.690429688 263.349609375 113.6484375 269.30859375 120.999023438 269.30859375 c 0
 128.349609375 269.30859375 134.307617188 263.349609375 134.307617188 256 c 0
 134.307617188 248.649414062 128.349609375 242.690429688 120.999023438 242.690429688 c 0
328.999023438 551.690429688 m 0
 321.6484375 551.690429688 315.690429688 557.649414062 315.690429688 565 c 0
 315.690429688 572.349609375 321.6484375 578.30859375 328.999023438 578.30859375 c 0
 336.349609375 578.30859375 342.307617188 572.349609375 342.307617188 565 c 0
 342.307617188 557.649414062 336.349609375 551.690429688 328.999023438 551.690429688 c 0
EndSplineSet
Validated: 1
Layer: 2
EndChar
StartChar: five
Encoding: 21 53 121
Width: 556
Flags: HMW
HStem: -15 80<224.5 312 224.5 341.5> 395 80<262.5 311> 635 85<190 475 190 190>
VStem: 412 97<189 282.5>
LayerCount: 3
Back
SplineSet
123.9296875 191.796875 m 1
 167.368164062 96.0322265625 l 1
 263.749023438 59.205078125 l 1
 375.866210938 110.702148438 l 1
 414.626953125 232.620117188 l 1
 375.354492188 350.583007812 l 1
 262.729492188 395.829101562 l 1
 185.848632812 377.670898438 l 1
 130.052734375 327.44921875 l 1
 49.34375 337.655273438 l 5
 118.764648438 720.349609375 l 1
 475.0078125 720.349609375 l 1
 475.0078125 634.599609375 l 1
 189.311523438 634.599609375 l 1
 150.337890625 430.548828125 l 1
 216.337890625 468.145507812 l 1
 287.16015625 477.44921875 l 1
 452.569335938 405.575195312 l 1
 513.538085938 232.705078125 l 1
 447.891601562 52.052734375 l 1
 263.665039062 -22.271484375 l 1
 103.61328125 32.5341796875 l 1
 44.400390625 156.149414062 l 1
 123.9296875 191.796875 l 1
EndSplineSet
Fore
SplineSet
44.390625 142.744140625 m 0
 37.041015625 142.744140625 31.0830078125 148.703125 31.0830078125 156.053710938 c 0
 31.0830078125 163.403320312 37.041015625 169.362304688 44.390625 169.362304688 c 0
 51.7421875 169.362304688 57.7001953125 163.403320312 57.7001953125 156.053710938 c 0
 57.7001953125 148.703125 51.7421875 142.744140625 44.390625 142.744140625 c 0
123.919921875 178.391601562 m 0
 116.5703125 178.391601562 110.612304688 184.350585938 110.612304688 191.701171875 c 0
 110.612304688 199.05078125 116.5703125 205.009765625 123.919921875 205.009765625 c 0
 131.271484375 205.009765625 137.229492188 199.05078125 137.229492188 191.701171875 c 0
 137.229492188 184.350585938 131.271484375 178.391601562 123.919921875 178.391601562 c 0
167.358398438 82.6279296875 m 0
 160.0078125 82.6279296875 154.049804688 88.5869140625 154.049804688 95.9365234375 c 0
 154.049804688 103.286132812 160.0078125 109.245117188 167.358398438 109.245117188 c 0
 174.708984375 109.245117188 180.666992188 103.286132812 180.666992188 95.9365234375 c 0
 180.666992188 88.5869140625 174.708984375 82.6279296875 167.358398438 82.6279296875 c 0
103.604492188 19.1298828125 m 0
 96.25390625 19.1298828125 90.2958984375 25.0888671875 90.2958984375 32.4384765625 c 0
 90.2958984375 39.7880859375 96.25390625 45.7470703125 103.604492188 45.7470703125 c 0
 110.955078125 45.7470703125 116.913085938 39.7880859375 116.913085938 32.4384765625 c 0
 116.913085938 25.0888671875 110.955078125 19.1298828125 103.604492188 19.1298828125 c 0
263.740234375 45.7998046875 m 0
 256.389648438 45.7998046875 250.431640625 51.7587890625 250.431640625 59.109375 c 0
 250.431640625 66.458984375 256.389648438 72.41796875 263.740234375 72.41796875 c 0
 271.090820312 72.41796875 277.048828125 66.458984375 277.048828125 59.109375 c 0
 277.048828125 51.7587890625 271.090820312 45.7998046875 263.740234375 45.7998046875 c 0
263.65625 -35.6767578125 m 0
 256.305664062 -35.6767578125 250.34765625 -29.7177734375 250.34765625 -22.3671875 c 0
 250.34765625 -15.017578125 256.305664062 -9.05859375 263.65625 -9.05859375 c 0
 271.006835938 -9.05859375 276.96484375 -15.017578125 276.96484375 -22.3671875 c 0
 276.96484375 -29.7177734375 271.006835938 -35.6767578125 263.65625 -35.6767578125 c 0
375.857421875 97.296875 m 0
 368.506835938 97.296875 362.548828125 103.255859375 362.548828125 110.606445312 c 0
 362.548828125 117.956054688 368.506835938 123.915039062 375.857421875 123.915039062 c 0
 383.208007812 123.915039062 389.166015625 117.956054688 389.166015625 110.606445312 c 0
 389.166015625 103.255859375 383.208007812 97.296875 375.857421875 97.296875 c 0
447.881835938 38.6474609375 m 0
 440.532226562 38.6474609375 434.57421875 44.6064453125 434.57421875 51.95703125 c 0
 434.57421875 59.306640625 440.532226562 65.265625 447.881835938 65.265625 c 0
 455.233398438 65.265625 461.19140625 59.306640625 461.19140625 51.95703125 c 0
 461.19140625 44.6064453125 455.233398438 38.6474609375 447.881835938 38.6474609375 c 0
513.529296875 219.299804688 m 0
 506.178710938 219.299804688 500.220703125 225.258789062 500.220703125 232.608398438 c 0
 500.220703125 239.958984375 506.178710938 245.91796875 513.529296875 245.91796875 c 0
 520.879882812 245.91796875 526.837890625 239.958984375 526.837890625 232.608398438 c 0
 526.837890625 225.258789062 520.879882812 219.299804688 513.529296875 219.299804688 c 0
414.6171875 219.213867188 m 0
 407.266601562 219.213867188 401.30859375 225.172851562 401.30859375 232.5234375 c 0
 401.30859375 239.873046875 407.266601562 245.83203125 414.6171875 245.83203125 c 0
 421.967773438 245.83203125 427.92578125 239.873046875 427.92578125 232.5234375 c 0
 427.92578125 225.172851562 421.967773438 219.213867188 414.6171875 219.213867188 c 0
375.34375 337.178710938 m 0
 367.994140625 337.178710938 362.036132812 343.137695312 362.036132812 350.487304688 c 0
 362.036132812 357.837890625 367.994140625 363.796875 375.34375 363.796875 c 0
 382.6953125 363.796875 388.653320312 357.837890625 388.653320312 350.487304688 c 0
 388.653320312 343.137695312 382.6953125 337.178710938 375.34375 337.178710938 c 0
452.559570312 392.169921875 m 0
 445.209960938 392.169921875 439.251953125 398.12890625 439.251953125 405.478515625 c 0
 439.251953125 412.829101562 445.209960938 418.788085938 452.559570312 418.788085938 c 0
 459.911132812 418.788085938 465.869140625 412.829101562 465.869140625 405.478515625 c 0
 465.869140625 398.12890625 459.911132812 392.169921875 452.559570312 392.169921875 c 0
287.151367188 464.043945312 m 0
 279.80078125 464.043945312 273.842773438 470.002929688 273.842773438 477.352539062 c 0
 273.842773438 484.703125 279.80078125 490.662109375 287.151367188 490.662109375 c 0
 294.501953125 490.662109375 300.459960938 484.703125 300.459960938 477.352539062 c 0
 300.459960938 470.002929688 294.501953125 464.043945312 287.151367188 464.043945312 c 0
262.719726562 382.424804688 m 0
 255.370117188 382.424804688 249.412109375 388.383789062 249.412109375 395.733398438 c 0
 249.412109375 403.083007812 255.370117188 409.041992188 262.719726562 409.041992188 c 0
 270.071289062 409.041992188 276.029296875 403.083007812 276.029296875 395.733398438 c 0
 276.029296875 388.383789062 270.071289062 382.424804688 262.719726562 382.424804688 c 0
130.043945312 314.043945312 m 0
 122.694335938 314.043945312 116.736328125 320.002929688 116.736328125 327.353515625 c 0
 116.736328125 334.703125 122.694335938 340.662109375 130.043945312 340.662109375 c 0
 137.39453125 340.662109375 143.352539062 334.703125 143.352539062 327.353515625 c 0
 143.352539062 320.002929688 137.39453125 314.043945312 130.043945312 314.043945312 c 0
49.3349609375 324.250976562 m 0
 41.9853515625 324.250976562 36.02734375 330.209960938 36.02734375 337.559570312 c 0
 36.02734375 344.909179688 41.9853515625 350.868164062 49.3349609375 350.868164062 c 0
 56.685546875 350.868164062 62.6435546875 344.909179688 62.6435546875 337.559570312 c 0
 62.6435546875 330.209960938 56.685546875 324.250976562 49.3349609375 324.250976562 c 0
150.329101562 417.143554688 m 0
 142.979492188 417.143554688 137.021484375 423.102539062 137.021484375 430.453125 c 0
 137.021484375 437.802734375 142.979492188 443.76171875 150.329101562 443.76171875 c 0
 157.6796875 443.76171875 163.637695312 437.802734375 163.637695312 430.453125 c 0
 163.637695312 423.102539062 157.6796875 417.143554688 150.329101562 417.143554688 c 0
216.329101562 454.740234375 m 0
 208.979492188 454.740234375 203.021484375 460.69921875 203.021484375 468.048828125 c 0
 203.021484375 475.399414062 208.979492188 481.358398438 216.329101562 481.358398438 c 0
 223.6796875 481.358398438 229.637695312 475.399414062 229.637695312 468.048828125 c 0
 229.637695312 460.69921875 223.6796875 454.740234375 216.329101562 454.740234375 c 0
189.302734375 621.194335938 m 0
 181.953125 621.194335938 175.995117188 627.153320312 175.995117188 634.50390625 c 0
 175.995117188 641.853515625 181.953125 647.8125 189.302734375 647.8125 c 0
 196.654296875 647.8125 202.612304688 641.853515625 202.612304688 634.50390625 c 0
 202.612304688 627.153320312 196.654296875 621.194335938 189.302734375 621.194335938 c 0
118.755859375 706.944335938 m 0
 111.40625 706.944335938 105.448242188 712.903320312 105.448242188 720.25390625 c 0
 105.448242188 727.603515625 111.40625 733.5625 118.755859375 733.5625 c 0
 126.107421875 733.5625 132.065429688 727.603515625 132.065429688 720.25390625 c 0
 132.065429688 712.903320312 126.107421875 706.944335938 118.755859375 706.944335938 c 0
474.999023438 706.697265625 m 0
 467.649414062 706.697265625 461.69140625 712.65625 461.69140625 720.006835938 c 0
 461.69140625 727.356445312 467.649414062 733.315429688 474.999023438 733.315429688 c 0
 482.349609375 733.315429688 488.307617188 727.356445312 488.307617188 720.006835938 c 0
 488.307617188 712.65625 482.349609375 706.697265625 474.999023438 706.697265625 c 0
474.999023438 621.194335938 m 0
 467.649414062 621.194335938 461.69140625 627.153320312 461.69140625 634.50390625 c 0
 461.69140625 641.853515625 467.649414062 647.8125 474.999023438 647.8125 c 0
 482.349609375 647.8125 488.307617188 641.853515625 488.307617188 634.50390625 c 0
 488.307617188 627.153320312 482.349609375 621.194335938 474.999023438 621.194335938 c 0
216.931640625 361.233398438 m 1025
EndSplineSet
Validated: 1
Layer: 2
EndChar
StartChar: six
Encoding: 22 54 122
Width: 556
Flags: HMW
HStem: -15 80<231.5 320 231.5 352.5> 387 80<254.5 320> 655 80<220.5 317>
VStem: 35 86 35 100<246.5 270.5 181.5 463> 409 97<181.5 270.5>
LayerCount: 3
Back
SplineSet
401.528320312 550.884765625 m 5xec
 361.385742188 632.709960938 l 5
 288.329101562 661.022460938 l 5
 152.282226562 561.822265625 l 5
 117.975585938 369.3046875 l 5
 192.680664062 448.706054688 l 5
 287.22265625 469.237304688 l 5
 452.133789062 397.201171875 l 5
 510.646484375 229.485351562 l 5
 450.834960938 53.4248046875 l 5
 280.1640625 -22.4296875 l 5
 77.91796875 88.37109375 l 5
 30.291015625 334.520507812 l 5
 95.18359375 636.426757812 l 5
 283.311523438 742.499023438 l 5
 426.77734375 693.809570312 l 5
 478.0703125 587.458984375 l 5
 401.528320312 550.884765625 l 5xec
271.9140625 59.216796875 m 5
 378.607421875 107.26953125 l 5
 411.819335938 223.446289062 l 5
 378.672851562 339.623046875 l 5
 271.9140625 387.67578125 l 5
 172.9921875 339.588867188 l 5
 132.178710938 223.446289062 l 5
 171.110351562 107.303710938 l 5
 271.9140625 59.216796875 l 5
EndSplineSet
Fore
SplineSet
283.293945312 729.142578125 m 4xe4
 275.943359375 729.142578125 269.986328125 735.1015625 269.986328125 742.452148438 c 4
 269.986328125 749.801757812 275.943359375 755.760742188 283.293945312 755.760742188 c 4
 290.64453125 755.760742188 296.602539062 749.801757812 296.602539062 742.452148438 c 4
 296.602539062 735.1015625 290.64453125 729.142578125 283.293945312 729.142578125 c 4xe4
288.310546875 647.66796875 m 4
 280.9609375 647.66796875 275.002929688 653.626953125 275.002929688 660.9765625 c 4
 275.002929688 668.327148438 280.9609375 674.286132812 288.310546875 674.286132812 c 4
 295.662109375 674.286132812 301.620117188 668.327148438 301.620117188 660.9765625 c 4
 301.620117188 653.626953125 295.662109375 647.66796875 288.310546875 647.66796875 c 4
426.759765625 680.453125 m 4
 419.41015625 680.453125 413.452148438 686.412109375 413.452148438 693.762695312 c 4
 413.452148438 701.112304688 419.41015625 707.071289062 426.759765625 707.071289062 c 4
 434.111328125 707.071289062 440.068359375 701.112304688 440.068359375 693.762695312 c 4
 440.068359375 686.412109375 434.111328125 680.453125 426.759765625 680.453125 c 4
361.368164062 619.35546875 m 4
 354.017578125 619.35546875 348.059570312 625.314453125 348.059570312 632.6640625 c 4
 348.059570312 640.014648438 354.017578125 645.973632812 361.368164062 645.973632812 c 4
 368.71875 645.973632812 374.676757812 640.014648438 374.676757812 632.6640625 c 4
 374.676757812 625.314453125 368.71875 619.35546875 361.368164062 619.35546875 c 4
401.510742188 537.530273438 m 4
 394.161132812 537.530273438 388.203125 543.489257812 388.203125 550.838867188 c 4
 388.203125 558.189453125 394.161132812 564.1484375 401.510742188 564.1484375 c 4
 408.862304688 564.1484375 414.8203125 558.189453125 414.8203125 550.838867188 c 4
 414.8203125 543.489257812 408.862304688 537.530273438 401.510742188 537.530273438 c 4
478.033203125 574.142578125 m 4
 470.682617188 574.142578125 464.724609375 580.1015625 464.724609375 587.451171875 c 4
 464.724609375 594.801757812 470.682617188 600.760742188 478.033203125 600.760742188 c 4
 485.383789062 600.760742188 491.341796875 594.801757812 491.341796875 587.451171875 c 4
 491.341796875 580.1015625 485.383789062 574.142578125 478.033203125 574.142578125 c 4
95.1650390625 623.0703125 m 4
 87.814453125 623.0703125 81.8564453125 629.029296875 81.8564453125 636.379882812 c 4
 81.8564453125 643.729492188 87.814453125 649.688476562 95.1650390625 649.688476562 c 4
 102.515625 649.688476562 108.473632812 643.729492188 108.473632812 636.379882812 c 4
 108.473632812 629.029296875 102.515625 623.0703125 95.1650390625 623.0703125 c 4
152.264648438 548.467773438 m 4
 144.915039062 548.467773438 138.95703125 554.426757812 138.95703125 561.776367188 c 4
 138.95703125 569.126953125 144.915039062 575.0859375 152.264648438 575.0859375 c 4
 159.616210938 575.0859375 165.57421875 569.126953125 165.57421875 561.776367188 c 4
 165.57421875 554.426757812 159.616210938 548.467773438 152.264648438 548.467773438 c 4
287.205078125 455.8828125 m 4
 279.854492188 455.8828125 273.896484375 461.841796875 273.896484375 469.19140625 c 4
 273.896484375 476.541015625 279.854492188 482.5 287.205078125 482.5 c 4
 294.555664062 482.5 300.513671875 476.541015625 300.513671875 469.19140625 c 4
 300.513671875 461.841796875 294.555664062 455.8828125 287.205078125 455.8828125 c 4
192.663085938 435.3515625 m 4
 185.3125 435.3515625 179.354492188 441.310546875 179.354492188 448.66015625 c 4
 179.354492188 456.009765625 185.3125 461.96875 192.663085938 461.96875 c 4
 200.013671875 461.96875 205.971679688 456.009765625 205.971679688 448.66015625 c 4
 205.971679688 441.310546875 200.013671875 435.3515625 192.663085938 435.3515625 c 4
271.895507812 374.321289062 m 4
 264.545898438 374.321289062 258.587890625 380.280273438 258.587890625 387.630859375 c 4
 258.587890625 394.98046875 264.545898438 400.939453125 271.895507812 400.939453125 c 4
 279.247070312 400.939453125 285.205078125 394.98046875 285.205078125 387.630859375 c 4
 285.205078125 380.280273438 279.247070312 374.321289062 271.895507812 374.321289062 c 4
452.116210938 383.846679688 m 4
 444.765625 383.846679688 438.807617188 389.805664062 438.807617188 397.155273438 c 4
 438.807617188 404.504882812 444.765625 410.463867188 452.116210938 410.463867188 c 4
 459.466796875 410.463867188 465.424804688 404.504882812 465.424804688 397.155273438 c 4
 465.424804688 389.805664062 459.466796875 383.846679688 452.116210938 383.846679688 c 4
378.655273438 326.268554688 m 4
 371.3046875 326.268554688 365.346679688 332.227539062 365.346679688 339.577148438 c 4
 365.346679688 346.927734375 371.3046875 352.88671875 378.655273438 352.88671875 c 4
 386.005859375 352.88671875 391.963867188 346.927734375 391.963867188 339.577148438 c 4
 391.963867188 332.227539062 386.005859375 326.268554688 378.655273438 326.268554688 c 4
411.801757812 210.091796875 m 4
 404.452148438 210.091796875 398.494140625 216.05078125 398.494140625 223.401367188 c 4
 398.494140625 230.750976562 404.452148438 236.709960938 411.801757812 236.709960938 c 4
 419.153320312 236.709960938 425.111328125 230.750976562 425.111328125 223.401367188 c 4
 425.111328125 216.05078125 419.153320312 210.091796875 411.801757812 210.091796875 c 4
510.62890625 216.129882812 m 4
 503.279296875 216.129882812 497.321289062 222.088867188 497.321289062 229.438476562 c 4
 497.321289062 236.7890625 503.279296875 242.748046875 510.62890625 242.748046875 c 4
 517.979492188 242.748046875 523.9375 236.7890625 523.9375 229.438476562 c 4
 523.9375 222.088867188 517.979492188 216.129882812 510.62890625 216.129882812 c 4
450.81640625 40.0693359375 m 4
 443.466796875 40.0693359375 437.508789062 46.0283203125 437.508789062 53.37890625 c 4
 437.508789062 60.728515625 443.466796875 66.6875 450.81640625 66.6875 c 4
 458.16796875 66.6875 464.125976562 60.728515625 464.125976562 53.37890625 c 4
 464.125976562 46.0283203125 458.16796875 40.0693359375 450.81640625 40.0693359375 c 4
378.58984375 93.9150390625 m 4
 371.240234375 93.9150390625 365.282226562 99.8740234375 365.282226562 107.223632812 c 4
 365.282226562 114.57421875 371.240234375 120.533203125 378.58984375 120.533203125 c 4
 385.940429688 120.533203125 391.8984375 114.57421875 391.8984375 107.223632812 c 4
 391.8984375 99.8740234375 385.940429688 93.9150390625 378.58984375 93.9150390625 c 4
271.895507812 45.8623046875 m 4
 264.545898438 45.8623046875 258.587890625 51.8212890625 258.587890625 59.1708984375 c 4
 258.587890625 66.5205078125 264.545898438 72.4794921875 271.895507812 72.4794921875 c 4
 279.247070312 72.4794921875 285.205078125 66.5205078125 285.205078125 59.1708984375 c 4
 285.205078125 51.8212890625 279.247070312 45.8623046875 271.895507812 45.8623046875 c 4
280.145507812 -35.78515625 m 4
 272.795898438 -35.78515625 266.837890625 -29.826171875 266.837890625 -22.4765625 c 4
 266.837890625 -15.1259765625 272.795898438 -9.1669921875 280.145507812 -9.1669921875 c 4
 287.497070312 -9.1669921875 293.455078125 -15.1259765625 293.455078125 -22.4765625 c 4
 293.455078125 -29.826171875 287.497070312 -35.78515625 280.145507812 -35.78515625 c 4
77.8994140625 75.015625 m 4
 70.5498046875 75.015625 64.591796875 80.974609375 64.591796875 88.3251953125 c 4
 64.591796875 95.6748046875 70.5498046875 101.633789062 77.8994140625 101.633789062 c 4
 85.2509765625 101.633789062 91.208984375 95.6748046875 91.208984375 88.3251953125 c 4
 91.208984375 80.974609375 85.2509765625 75.015625 77.8994140625 75.015625 c 4
171.091796875 93.9482421875 m 4
 163.7421875 93.9482421875 157.784179688 99.9072265625 157.784179688 107.256835938 c 4
 157.784179688 114.607421875 163.7421875 120.56640625 171.091796875 120.56640625 c 4
 178.442382812 120.56640625 184.400390625 114.607421875 184.400390625 107.256835938 c 4
 184.400390625 99.9072265625 178.442382812 93.9482421875 171.091796875 93.9482421875 c 4
132.16015625 210.091796875 m 4
 124.809570312 210.091796875 118.8515625 216.05078125 118.8515625 223.401367188 c 4
 118.8515625 230.750976562 124.809570312 236.709960938 132.16015625 236.709960938 c 4
 139.510742188 236.709960938 145.46875 230.750976562 145.46875 223.401367188 c 4
 145.46875 216.05078125 139.510742188 210.091796875 132.16015625 210.091796875 c 4
30.2724609375 321.165039062 m 4
 22.9228515625 321.165039062 16.96484375 327.124023438 16.96484375 334.473632812 c 4
 16.96484375 341.82421875 22.9228515625 347.783203125 30.2724609375 347.783203125 c 4
 37.6240234375 347.783203125 43.58203125 341.82421875 43.58203125 334.473632812 c 4
 43.58203125 327.124023438 37.6240234375 321.165039062 30.2724609375 321.165039062 c 4
117.958007812 355.950195312 m 4
 110.607421875 355.950195312 104.649414062 361.909179688 104.649414062 369.258789062 c 4
 104.649414062 376.609375 110.607421875 382.568359375 117.958007812 382.568359375 c 4
 125.30859375 382.568359375 131.266601562 376.609375 131.266601562 369.258789062 c 4
 131.266601562 361.909179688 125.30859375 355.950195312 117.958007812 355.950195312 c 4
172.973632812 326.234375 m 4
 165.624023438 326.234375 159.666015625 332.193359375 159.666015625 339.54296875 c 4
 159.666015625 346.893554688 165.624023438 352.852539062 172.973632812 352.852539062 c 4
 180.325195312 352.852539062 186.283203125 346.893554688 186.283203125 339.54296875 c 4
 186.283203125 332.193359375 180.325195312 326.234375 172.973632812 326.234375 c 4
EndSplineSet
Validated: 1
Layer: 2
EndChar
